<mxfile host="app.diagrams.net" agent="Mozilla/5.0 (Windows NT 10.0; Win64; x64) AppleWebKit/537.36 (KHTML, like Gecko) Chrome/132.0.0.0 Safari/537.36" version="26.0.11">
  <diagram name="Page-1" id="PMWw4acVN7YezoFr94T5">
    <mxGraphModel dx="1050" dy="2195" grid="1" gridSize="10" guides="1" tooltips="1" connect="1" arrows="1" fold="1" page="1" pageScale="1" pageWidth="1169" pageHeight="1654" math="0" shadow="0">
      <root>
        <mxCell id="0" />
        <mxCell id="1" parent="0" />
        <mxCell id="urtNTClgw5RGaUremrSD-1" value="user" style="rounded=0;whiteSpace=wrap;html=1;fillColor=#fff2cc;strokeColor=#d6b656;" vertex="1" parent="1">
          <mxGeometry x="80" y="120" width="120" height="60" as="geometry" />
        </mxCell>
        <mxCell id="urtNTClgw5RGaUremrSD-2" value="Roles" style="rounded=0;whiteSpace=wrap;html=1;fillColor=#dae8fc;strokeColor=#6c8ebf;" vertex="1" parent="1">
          <mxGeometry x="330" y="120" width="120" height="60" as="geometry" />
        </mxCell>
        <mxCell id="urtNTClgw5RGaUremrSD-3" value="Privileges" style="rounded=0;whiteSpace=wrap;html=1;fillColor=#d5e8d4;strokeColor=#82b366;" vertex="1" parent="1">
          <mxGeometry x="550" y="120" width="120" height="60" as="geometry" />
        </mxCell>
        <mxCell id="urtNTClgw5RGaUremrSD-4" value="Resource URI and Action" style="rounded=0;whiteSpace=wrap;html=1;fillColor=#e1d5e7;strokeColor=#9673a6;" vertex="1" parent="1">
          <mxGeometry x="760" y="120" width="120" height="60" as="geometry" />
        </mxCell>
        <mxCell id="urtNTClgw5RGaUremrSD-5" value="user_2" style="rounded=1;whiteSpace=wrap;html=1;glass=0;fillColor=#fff2cc;strokeColor=#d6b656;" vertex="1" parent="1">
          <mxGeometry x="80" y="455" width="120" height="60" as="geometry" />
        </mxCell>
        <mxCell id="urtNTClgw5RGaUremrSD-6" value="user_3" style="rounded=1;whiteSpace=wrap;html=1;fillColor=#fff2cc;strokeColor=#d6b656;" vertex="1" parent="1">
          <mxGeometry x="80" y="585" width="120" height="60" as="geometry" />
        </mxCell>
        <mxCell id="urtNTClgw5RGaUremrSD-8" value="Visitor" style="rounded=0;whiteSpace=wrap;html=1;fillColor=#dae8fc;strokeColor=#6c8ebf;" vertex="1" parent="1">
          <mxGeometry x="320" y="315" width="120" height="60" as="geometry" />
        </mxCell>
        <mxCell id="urtNTClgw5RGaUremrSD-9" value="Admin User" style="rounded=0;whiteSpace=wrap;html=1;fillColor=#dae8fc;strokeColor=#6c8ebf;" vertex="1" parent="1">
          <mxGeometry x="320" y="585" width="120" height="60" as="geometry" />
        </mxCell>
        <mxCell id="urtNTClgw5RGaUremrSD-10" value="Browse Media" style="rounded=0;whiteSpace=wrap;html=1;fillColor=#d5e8d4;strokeColor=#82b366;" vertex="1" parent="1">
          <mxGeometry x="550" y="240" width="120" height="60" as="geometry" />
        </mxCell>
        <mxCell id="urtNTClgw5RGaUremrSD-11" value="Borrow/Return/Renew Media" style="rounded=0;whiteSpace=wrap;html=1;fillColor=#d5e8d4;strokeColor=#82b366;" vertex="1" parent="1">
          <mxGeometry x="550" y="340" width="120" height="60" as="geometry" />
        </mxCell>
        <mxCell id="urtNTClgw5RGaUremrSD-12" value="User_1&lt;div&gt;&lt;br&gt;&lt;/div&gt;" style="rounded=1;whiteSpace=wrap;html=1;fillColor=#fff2cc;strokeColor=#d6b656;" vertex="1" parent="1">
          <mxGeometry x="80" y="315" width="120" height="60" as="geometry" />
        </mxCell>
        <mxCell id="urtNTClgw5RGaUremrSD-14" value="Member" style="rounded=0;whiteSpace=wrap;html=1;fillColor=#dae8fc;strokeColor=#6c8ebf;" vertex="1" parent="1">
          <mxGeometry x="320" y="455" width="120" height="60" as="geometry" />
        </mxCell>
        <mxCell id="urtNTClgw5RGaUremrSD-15" value="Media Wishlist CRUD" style="rounded=0;whiteSpace=wrap;html=1;fillColor=#d5e8d4;strokeColor=#82b366;" vertex="1" parent="1">
          <mxGeometry x="550" y="450" width="120" height="60" as="geometry" />
        </mxCell>
        <mxCell id="urtNTClgw5RGaUremrSD-16" value="Media Wishlist &amp;amp; Returm Notification" style="rounded=0;whiteSpace=wrap;html=1;fillColor=#d5e8d4;strokeColor=#82b366;" vertex="1" parent="1">
          <mxGeometry x="550" y="540" width="120" height="60" as="geometry" />
        </mxCell>
        <mxCell id="urtNTClgw5RGaUremrSD-19" value="Media CRUD" style="rounded=0;whiteSpace=wrap;html=1;fillColor=#d5e8d4;strokeColor=#82b366;" vertex="1" parent="1">
          <mxGeometry x="550" y="640" width="120" height="60" as="geometry" />
        </mxCell>
        <mxCell id="urtNTClgw5RGaUremrSD-20" value="&lt;b&gt;&lt;font style=&quot;font-size: 33px;&quot;&gt;AML RBAC Model&lt;/font&gt;&lt;/b&gt;" style="whiteSpace=wrap;html=1;" vertex="1" parent="1">
          <mxGeometry x="90" y="-30" width="800" height="60" as="geometry" />
        </mxCell>
        <mxCell id="urtNTClgw5RGaUremrSD-21" value="" style="shape=image;verticalLabelPosition=bottom;labelBackgroundColor=default;verticalAlign=top;aspect=fixed;imageAspect=0;image=data:image/png,iVBORw0KGgoAAAANSUhEUgAAAygAAAByCAIAAAA3a2KqAAAgAElEQVR4Ae19b2hcS5bffu1v0Td9G7EDYUw+DMp8eIIQcD5MGIVho+zC4ARClGyyS0/vCkWJVjIxph3Hi9b7WPW+GCHHeaO3zgNLmeXRWedthGFonHi0BmGe1uMg3H/crT8tNa2/bT1ZtuOmsnVvnfpzb1Xde1vdre72eTzcpXtvVZ36nTqnTlWdOvVrBP9DBBABRAARQAQQAUQAEWgLAr/WllqwEkQAEUAEEAFEABFABBABgoYXdgJEABFABBABRAARQATahAAaXm0CGqtBBBABRAARQAQQAUQADS/sA4gAIoAIIAKIACKACLQJATS82gQ0VoMIIAKIACKACCACiAAaXtgHEAFEABFABBABRAARaBMCaHi1CWisBhFABBABRAARQAQQATS8sA8gAogAIoAIIAKIACLQJgTQ8GoT0FgNIoAIIAKIACKACCACaHhhH0AEOhCBvdF4NhbPxub2OpA4JAkRQATI6gaV0Hh2dPXCwUB1ceEsiEbAx2J4Lc85w5g7mEn/9k/lh++Vl3c/hIDtQ+VlJXmnODiVc+WN/juRG5zZSK3WzuohCqi/W18tT88WBiYEMX2TuaHZ7YVXp5D/deq6eCsqkmhWHl7gwLy/c5lSlRt/Hqbx0L7z/9ZrqZsUosEvD86CS6tnPnf4dWunEvxx53yh16THqxsDiWxssrhQbgWpXYpVMBSVrwtUasY3M+3tqsGUnfOLcnnQ0Qz+sd+k8WJjuYGpwsi97fnn4bSWh8KLknoPGZ3wZyTDq74/Pk611uWvvzXSHk2zycXo1YX8hUiHoUR8jamWIPCxG17ciLl0t1oxKuX68YvyyKTVHhrLx1dOLCw6fmkvYWOZZe4aw+vCBjPQd7E4B80MfLdqGa0mFX1jMP3a3OZG33QrVoHt/Xb+FhXevs/3Az/tsg8aMLzkKdxY/kr64Nio9zRgXJjUa2i56EegiPxWr4ay55t9FPnCvKUPQoGhNJtSh1ZdKF+IP8JQIr7GVEsQ+MgMr6nS/Eo1Df8vpjdHborlq/65vWMNyGdPl5zpsquwxvPDd7ahkErqfmnImce4BtylL/Z1JZDj1Y1+0Hd9N0rT6QqjYXl7dCbfl8hKkvZu/RtBIfvsS5eA3OjXvlcvzfMnTVua+OgoeZUOZpeWjppYaKiioswLz56UKGsSpcU3ocrumI/0mrSlK15di1UQ015tX6LSl0++Cvqy694HGl6qxkuvVBfTm6Mz+f4xaRo5WVqshjS+Lk7qO5A1YCeFMLzeLX7mAP5Z1bZIH0WzqXjo1YX6jftXOEp0OSM+czaIZguXH7ZgihiRlA78/CMzvK6Xiz4mnL3aGWZ7f/5ds/p6GqyuRO5KRrs4/6HyfPsyKLKhdM1bw5u9Udc4SxSSL/iWovTV+9fpe+WM9MCbZBKeT7Vkg8lbW6i/u2Pa1L1LHeE1aSh2hfioe7GyN65n909pswMNL53Goxmp28O2WMWf2Fi2rdcDwt0h9UBtq3/DG14t358NrS5aTgkHnZHUkrV5XknXJtDwcljHFEo25pmRvNhkK1WJwswrqx9YrTrKrbcXyvTx7HHRXQ+z7e7bO1DHGV5tmzbZcQl628VLHaE1aRAGYd93MVbWJr6pXqErytkrT95Zv+vOlw0bXm5z3x/N3IClr9mKdrVewqVLpF6iuLXJ0IbX+lKeDgFXt9dbRVBYddF6SngL0fDiUGgSaHi5oBwmpxwFNL75VKDEXWpyo6u2FWKWI+/uaGRjqh93Me1IXfwc61WdZni9qYw4O6ejq4qJKZDrjNTaA2cf2TTp7wwiDVSE1aSG7JEfdzNWtsayaU9iY7mju6qtCbZ35zS8CCEne6YZo7feLpF6L9mt+zus4cUGl1au/YRUF22ghMONhheHQpPoCMMrXyj8xcOvv0r/j79+/isNjc14xM74GMfgd4uz7sxP8tfmy2DBc0GXRJgRxnPJvCAaDK/c+AvxMFqqwwyv7nCw7W5X8ZCaNFo/Mn7d3VgZm0VIr+6fQpPPb3gRwnz7gmKXdIfUAzDt+A1peLVjfzacumgHJRx4NLw4FJrEBRteL7O5f/Gvfuc73/0e///H//i3Hv/v/6Oh9HyPGjC8nn7h+t0rVlQAFWCrDTw4FF+CfPbdqQYt5otMSqqzDC+bg+3Z/uHCUmn4Ws45MUBt2b7JwshStfheaZDzBywouhEx6qdrmc3ha3DWYZxG2Ujrw3yoGf0FO09MruJgBzsWtlupc0ogFs/2Xyslv5FcXd6/Tt8vDkLsj76rxenMke0IGDSBtX0sN3CzlFp9bVssrR0tLJWG+IHZifzw/cparU6IQZNaeoI/WMkYjXUyr3UrVEEzYGWggec1j/qEfCiuluOyE/cEZejilm6/LwJusjanZ42vuLxLZMe/4WRJCf3+6dnyPboIPXBPPkwDnco4N5OrlqqgySiNJfXjV5XpmfwAHMrpnyqMpvcCBeRstxqHk0CXH0EvNbMgSONJTQCzO6as90sf0KRJ6mVYrByJwGVeNXPQFvF3HJlKPq5pZMoVpSlZ8zjStK93EVH0APWyLbADBzO7qh8w5VdytiD4dQ30ACh2q3M9zMY9TixbO5fHs7HxQmpLXomFTmgKEhRVXXAgacJACVEq1XczVk6YrgulwWEy183G/Ves+QVBp3BHtAIKd/DRkqpmpII5ehO6xHhuaG7nKdWuF//fRRpev3rxf7//g0+4ySUnHn79l83FJkgNwVbjtTJsw9dmrvk3H4OIqldZ3MuZXRE1qn4wDoP3wJ2KTsMGFWsZboOyNv+9edq09pW7qequHar/arx3JSk6OUw6oblkKXXTlx/6DiuomsLQQONSh5BMOEPkqZQdj9jahSMXSkMMR18JqVaucPvJo3Rultc1dme98rhEg3J5Po5nY2OF1BZ0JI8KNvWEo+qoqfZ4VnPgQ0HNhFWjhtfJ/rQhFp3QvJyAaLiJYb7ohuYC9HSDn8GtfndniOUqpHY5HdAboxpekRpbP1m8A1MLoJx1gLFCyutFCiTN7Z09c+K3QRYBY1MML1JP33H7oQwIR8ZJGKU+HEeicdmpsWbsRTEvj86epot6UXIQu7x06J/xCj3wZi8uy45cuIVfN3fWV0IEUDU4sy/fBcG/K0dIFhxX0aenIRpRF3IpBkqIpE6N3YzWH7LrQhOgr8r6TfTbcxteJlIFW+un6bs6WUt4jF0Zo/alL9Lw+q2f/DPZ2JLT3/+7n5ycwKyuGWgEGF7gRN/3xQHUBqPObEUzu4KPfL/Q7Txzx63yEB9ixwvxJ9rTkb7C+APTcMs/aF+izpDUweK+Gri1kcocrB+dVo5OK6W95KfQ+z1zPiHw5dSNbCyRu3x/J1Nycu0eppe4JvU72AHIHqNEBoENSJrVSpDMYvxuLjaWj2cOi5TUWmZ54xLjUT75ct+xlXPDS3tOQ16vrWxzO2zksa9HbO2wY61j+fiyaHtqDixR3261iDAylh9NV9d2XbgO5u8X6BByNe9EQPBFrjf1BLe9Y/mRpZ3ll68p8kev1zIbg+ywrTWSghErEAETzvpR/9uFGWdQSeRGlqBdR7VMhi6AXfaEH4uMGwzzn28OJ7KX7lbX39YJoceKU89k9jvp+t6ow9CRx+oyWzMNryiNlQz9wXvQ1Y9qy+kSY1OiuKjoPOjndzbHJ7L9t8sZunhTP9uqJH8BR/T1LKDND9B4KlogFCZ3CIvUh+BIZC4TIk17Bm5tzj+vOV36tFI6WExvDM/uSItSZ8t8fJ0sTHPp2z1Mc2B1cw9ocmn8i1xsoph6/i2V6re1hSW+4nW2PAe663opteIqitP15zvTt+jzS1eZdOuMfoYvq2Vqe00FPKrh1aC6kCo1USIML0s3i9B162c1R5UdVa44ttfggwPGu6PTYyqtzn/nNLzMpHK2Jh9Q7nBBK76sJm8DN1t4ykFC3Jq8MMPryS9XZEvLn/78Z39mpTzaS5saEgcSJf930GgR72w5oTYE7XCSr5hLqWfON1mYfmLdhJLbZxpu5W/ak7aeEVv++YZuc/AM/OeKC0rMLxhXEtmY9tAot1YnNp+CwDqthIwmg4AQy+EdkExaqbrOTwg/HkEHbJ/Bt7877Fpm8nImJeg1Y/qN7afKwEnniccZ90yrGqmERxiZ2Ej7lr7PXklmuqeNpp5Q3p3WRsKEFkkzCm9HMWPVkOGV3x5wFO5IxmeeUjxkRkbHje/AJrLGpUdon2H/lBDSvK3GCI0lxYdOYJpEIfnSh0ytMuJ0LTXEK/TzRDZ2o7wuIwdtbDycBC/BSXCh0NsQNqmHTmLkSHQu12sz7oppIhdf0cXfkYg/W91wApNm+z+raCJgnxwmmUL2zj14k50FZg24ouS5qs/B4MP6VxBmyHZlkGl/lpBIW40NqwsBlJkSPgE2d7PoXZdwZwmxyiWIIYG3LQF3PMNosERARp0CJ2dptt6samOZsHalL8zwujM37ze25CeJsX/bRBB0hteHY3m66ZkVNWh4wUTTb3jRUefUuyQ+WUyFcMGBbirZhU2EJkpRDTrYwvwmrixLgBTFs5o1JIcqVh1VbbJmhIweo4Q3BHxWtPE7uGTqQr+yTTfqmja35xsedScwuG9yorigj0nNVF5M2lMAGvLJvNwu3gDCG+61+02Gl8jqSQFWN+RFAukbG1YwpppwBhlRRmvgtfJQqpAnwTCKgBvX5gERwGkdpv1TXr8nAUDJO03KJ7C0Iy/ahW4sAdtl+JE+4jEzfxPySAMkWW7l0rLAIVun8ZT2yH9Ah9RfO2iVeugkhpjsDXCZZTGrBYlyEC7v3Ez6BCBSjVrCm+x5DjkB/Kvba3oZFbrC2NWN+7NQifcXKlUlDkiNri54+TZKoFJTN2uk67bY8DKRSoLYCjMlxQmbo9TGxIUZXrc/nZXNLH/6X/7r320iDkwN6Tae3U1orx8AiKt35Aug6ZTts2gNLzcvddl2tpOAGFO8e1FV5OFWZG1qyjJtstYDYKoaCgTecoMenGBX5QQyquqJUwC6Xh+tnmuxmS2eQyRYVIW4fs+F55Ui2Vp2YVixviEQ6FfDjggiqCvz7rDbPTxtjN4TfLUr9VixgjHVQwMvQMtWeEiPkuhHLDd/A7gJbR7zLjpymiChd6uHt5pfYEokwytsY/kUv2i8QUHDWSDJ47cgEw8EqJJFv7DzXS6DSMOVOjVyv7JLPXQSPUca4DKo0DD7QdB87RQL2gjzJRVGkGW9pPOlREvJlUcsQKMffKdqkzM70KX5BY4rEgcPG1AXrAo7JVC+io+gjvXMSF1XiGpLVrxMpIqerHEycVoE3VVBWLS1bakLM7wW//uf+40t+UnyP95qIgoWw6v/pm6DDIb8mM6ZyUwYdGLhpG/4lp6jAQegeNC+iUYpG4rVPAaSwM4T3o7GMUZTCn30IsR1Y4SQ928rpYP0SiV1fyM+WxiQzhmpGgoIsyEMRxwUOYGMykNOM1PchoksnxKV0jqzANSxfnFR9xYo9MPrecIXM+AExuBX/nMDvBUGBRHQE+pntddrz6rp5e34PXq2VBwH0/PajpWBBk4jDHsqW/nOcjY2VUqu1o41BwsIIdFxo/Uykiw7py517EiyZazirWAJ6FR6oETV6kASsrFk3XLuRO0nkukDJOltGoduPQvoq0iGF5zg1nX7AKm3c6QBLrMC1bmWl1vs7xXnQrB4XjuJ4nlAbBVXB+1DnoWEKZkJo36ZEOZOkXa1gOOyZjuPunDbw2ZxJkqgUkM3a6jrmuQFALZDJ+wneQHYcepw96ANpEpTCL16Fw5tMsJAVDt/L8zw2tvbl80sf/qXK3/VRCCYGlJuLttb2z01jAqEkAP3MvmYzy/SRhUISUhzTb6taHRVdQGWqwkYbuVP/WmQK1W/U/PLOMb4C6EbpZnPHedEc6cntYPUrLAmhYUHVasjNBBmkwHtN9qHQDM/vGOImgYK1yPSLDu81Y1AQh3Ib8E6gTb6Ww1PoEYYLIcfWfxXoFgPOMae8KH4ZEO+NhQqhcNTWl4HYGWgAZDmqwIqWwl5fzTPT1TQizKzQ3M7jmM4zyn0spdODYyAG83NSFKtH7lYJw37p1aEPbmgU2mBslQdqrFgBmlaBwyCVxKYQJKnD8iEQ1+ScrHXUQwvqIjPDUQVgVJv5wh0IWidmd3AZWhRGN6BtJoXY9yG6KQG8kK9osk0BW8VW039hK9i6g0vvj8rReT2FuD7GxghczwUIICznBFKD6JEVynkFRZ8MAc9OFg7xjkNL10zXZKBcXq2ouFFUfrT/zznt7fcJ+MTfyCxvgnJKGrIrQ4WqCPdrcu20rNDD71e1sY2gPuzbfdEpziMBbboBez0G69e4b7wbuyue5upTDX9jB4FOn5VHnTkVh0eAgTeaYf2G+1D1myzqzj7wC6Z8FY2rQSgurdMv/R/vscP7xgSb5nTGGjS0RXdmhurzaBJ9T1BOn5FY3eV4ks76ZUqPSJae5eec4Z2nT0RhJWBBo4Hb8gqf8QT9bOt6vSMYoUP3t+XNh+j40bLZrnshpd1/5RT6ElAp9IB5XxqqTqwsWB4TWwuu6d9zf9KU0EgyTzMGG3fSCtezP72XZhGCHdNM0p9AEeic5l3Kpt0MN6BPJqWN4DFOqmBvPoRGt5aS7ZZD/b9WSDM+6vjeChAGM46x5hASnSVSoSxoTNa1w0SVRt0tG7A38OdAFLNGXl7gkvgn7Y0cWErXm6r/tMf/pHf9vrp7403vc3RDS8R0Nm0aeUjErbSDX6mvu/dB3w13tPJpM91ikN63Y4knzZl9NYCuJpOlBb8UU+57lBG6DAywBSKurVkzghLHRbPDINIMwzhbXjDC1ZG71TDsgHCGdisB7506hl0tT2Bm/sPDiTLhpFj7PnBWEFwOw8NvJ16tvLXTuLtiRTVItsvwrVEx42WZ7F+eL1R3erdjDDRasTwgqqNjSWwl2cdyKEY+DX3c/iiGYZXHWjTbEUFSX0gR6JzGbwbrRvxrP3gZRV2q1F2sANJ12tddo7Pfs8b2470rPQ4tNmc2Tnz/Akdx8+jLgghwZToKpVIg+4RqesGdQxwclen4qJWA3cCSEXDSyAYmPrlyl9NTE7/8Ec//gc/HP7dn/5+00OnugQYhx8LfSLwqfE4iZIbgoF5b9pWPvL/AZ3J4o+vHW79JbXwSdC0CbSD3uJhbiIeDQUNNw51NL4Di02ghGKCjD6DIMxSh0GkGXbwNrzhBb7AZn9PH1v24m5YCotzGzTcO4XV9QQWE0h/RgHI84EcAivA2bS5bBl4PG0WlzHzXSEgLAJuQdrcrTSyWz2jlakIEz1bbNXWZi67JWkaS8BEMLhye+BifwL+vn4uPjfbviE1nggQpeFykNRTOuymcANcBlstjH8eiIle7TCYwKRWnUZA0vWGF3nGgqN6g8AJ6AkcxPGoNUuMeCmzPqnl+DnUhTFavVy9tlLxQUNdN6hjQL81bCjziL4e7gSQioaXYFuHpEKqIQ+1xyslN0hMbKK0WNUv9bAsPOJfoiAdefOUp/sTFh5sHle64VZXVsuewWBmbBoIkm4GA24i3oA3IEVxk13Lw654PC0go3dAghVH73MFFrvChbfhDS8R+sEUFEOpnv4BdBpXRnnDQwVQtfVtvovkNbyABhtWMGIltOdDhV+5juneRrPLqqUlBLaaEipqAC/NPszTz9j+qbe9vARjAsZRb8AnJ0N9zYnHSEMyyuEkDIX5G0s4I3yhdA1lSK7EFh6Z5c7WK6DK45fbLLCzP6YdISRQ6mk5ARyJzmWuLkxqAainv2ClGYM+EL4o6AkfA5LuGdqhcPCsiJnsv5PqKFz65O3/kFcNggMl2361mg1EtQF1EYoSbaUSlY103aCOwc+ueaNqO/WesLB2vnCYQaQa9yh5c4JL4J+2NHHBW40tbZtceBg1JH8Padl7Jh/Xhzylfs0Q9NwXdZOQ5S+LyVVDqPr6aRqCI9sU+gUbXqAKTTqIEAIrXv5tWTGlNhpe2djVzYzXKY5ekdHveIZJ+1MuWwzCwxSEZscEuEl/7QoX3kYwvAhXE9owsPQA30HqPg+H7dACm4M0MKb30F99/VHRbTj1RPYMurqeAFGwC/OeQGL1GoTz9R2kCIcVHzV9+z7145UNTqQy8DzbvpLRRAZm9lBcsqEbwC1omCcwjbEugWgDqPJNmaz/TlU5pK0ip+EbS4SdOvTVkS9EnBvkb3OhLHdVQz+XP2nY8HpbE6eqE7n4qp+iEFJPKQkwvBqRDh6peKK4oFxl6LS8fpp+WOGR62E9JiiA6ngprWoYkHSD4cXPEsWzGn7Vaws8DLpXrcFMTL8CDcyLFEC1UXURYqc4jH3fQNcVHcNwzgxcU+iJVHVFQxoT0fCC7tK1v40aXlQhKlc+TRRG7pcXV6pp+v9O8k7xEsx7YvHc8CNNgABWdSI7cJN5PTt5K6n7JXEMzRSZ2gVcN9y2jxUwbTI72ErSG89eulsRF+A4ITMG75RszvXXC3TaLV22Q6934Mfi7Jc8SigEuYqzT+0KF95GMbwIqfyCRfShJ/jEbTD0dpHkbIHeme1dgJEM+snCNLu26LT4ssJuI3mwzS79DGF48RDbsQlq4juu/fSOo5HJbGy8NHpb41wfEisxalK2wi03pYN5h61Dczq2un31eklcGyVdANV/VwlLGx23gGE+xP6pmCTE4urVhPXDJL8u/fZ22r15CYjvn9sYcaYBiuEVpbFkf3eY3eCU7buxIV+DM7/kqgJPr2uG4aWc4646QV5Kw9BMatmP6SLph3KrdwUqgCOkEekgYrZGj8SWGS/ovV6blyc90qSKkv7KIM18GCTdZHgRcrI3yu/YvbW5IG7icmiI55MP3GAWnq3GMPuzBCZLWTmusvnMndrGsOoiFCXmSiXdGrnrEkJglzmeG07v02vZStXUijB+jx9znSmuWVt/vhO/Tu8UGb3jnsvxcCdYIoLYGlyC1OwWJnHFKwy4dE0Lrr3zHv9mB6SnSin/TSBO2czwMh/HHfh0x7fsoVJ1oYYXm1PaJ3CEEOlUo3xovH+uegz+McrSCL+qYm7veFW5A1hkn9TcqGPQFGzTwbrUQVG1Sya89QyBjB3mt3SZynJN78A9xeCgxamTZtHkeHbgbvW4zsazMCte9A4cWDeVy3EvYtJNOcJiRQgdArXtoje0aNnK+qpGTPpv7/ruvYmKm32YZ7rev+yqiBOsznoNL9qH4c5Nj7TSy6B0VUdrLL2CkFrDnsL5n5Mby29kSkMMEoErXrxwf4JOEqpF74IrIyCs1AeueDl9PbJ0kHplhW8j+BDzXMNQP0nfVc7PKggbLEuQZc/QLuOvXBmplOneZQTcV9RaQNgzVn5Ew6shdRGOEoM6VXGgohGp69LsZ8/EoriLnjJpIdIlm0rnzF15fLKeRsPLx4JufKAbfiK2o366tkIv+hVBKePZ/qn88L1y+qVzwaqhvLOTWmZ52w0l2g9T3thYbmCqMLK0k9kyh+/iBV6k4cXWhD0eEpw0JVE7mJ8rDMASYP+1IruPUj88KOPK2e5eaq7A8ElkB64VpzNH/jN6TnVKRkaAuxqv90ZSaLQrXHgb1fByqqgdLdwvDvKRNZFlLPYf82QUfSiulkdv5uiSGF17yA3cLM2zK6QiGV6EkA/FJ5vD1+AW2PHc0NzOU+cWSE3PD42VS6bLmrBsrb9bX3XEBLpBbCI3NLu9YJGRCLjprB/OXrZ/qnXS4h+Z7mqED1xiYKmjb7Iw+rV7VlRXdQONrZ+uZSinGNNp7BWKz/xz//6srp8DmexXL1n0pWm+51S3mVo5rPAbiz1l0j/DS70OFk2BhETgMuR/W1tOb4he7aiFeHpPayzSXnpPkj5HmpKZw4rBsgRJtxpeNBz06+V0aYgL9YSQLLjJTV7xgv1ZresSNIv+RtpqZBkjqYvQlEgTYJlATTpC13Vz149f7IzeBKU0URh/5olc6G3R4Myme9uvgTvBEmHIyFsTXAL/tKWJj2XFq6Ug9nLh4GCbfNX0VjZRBsD/NFDfNb0R3Vdgz2IVdv+0+1jWdopbKPVtb0s7KwzlldEWgjqHkrY0t+sqQcOr61jWToJh2mRxq2+cnOYZXuFcxRuntJdy9ipWodzqe4mRrWtLS6W+dWRffMnhnNnbQWfnUNKO1nZhHWh4dSHT2kZya6dNTTO8cKkjfI/oVaxCudWHh+lj/rK1Ut/DyIZ0Zm8DAp1DSRsa25VVoOHVlWxrD9FsMAt0q2+QmmYZXkzLBLrVN0hmT2XrVazY/mmAW31PsbJVjWmx1LeK7Isvl+3P+qK6tJ+yzqGk/W3vkhrR8OoSRvUgmc0yvHoQGmwSIoAIIAKIQK8igIZXr3K289uFhlfn8wgpRAQQAUQAEWgyAj1ueH1ya+PXp1/h/x2FAHRhjeHVUXQiMYgAIoAIIAI9jAAMRu3+7X3DSwl8pwRq88Xlw7dtQcDSx5FZiAAigAggAohAGxD4W7+fswxGLX2FhheaX+1GwNKh2yBsWAUigAggAogAIoCGl2UsPterv1g7wf8RAUQAEUAEEAFEABHwIHAu8+IcmXt8xescyGBWRAARQAQQAUQAEUAEmowAGl5NBhSLQwQQAUQAEUAEEAFEwIQAGl4mZPA5IoAIIAKIACKACCACTUYADa8mA4rFIQKIACKACCACiAAiYEIADS8TMvgcEUAEEAFEABFABBCBJiOAhleTAcXiEAFEABFABBABRAARMCGAhpcJGXyOCCACiAAigAggAohAkxFAw6vJgGJxiAAigAggAogAIoAImBBAw8uEDD5HBBABRAARQAQQAUSgyQig4dVkQLE4RAARQAQQAUQAEUAETAig4WVCBp8jAogAIoAIIAKIACLQZATQ8GoyoFgcIoAIIAKIACKACCACJgTQ8DIhg88RAUQAEUAEEAFEABFoMgJoeDUZUCwOEUAEEAFEAFR4gEUAAB/dSURBVBFABBABEwJoeJmQweeIACKACCACiAAigAg0GQE0vJoMKBaHCCACiAAigAggAoiACQE0vEzI4HNEABFABBABRAARQASajAAaXk0GFItDBBABRAARQAQQAUTAhAAaXiZk8DkigAggAogAIoAIIAJNRgANryYDisUhAogAIoAIIAKIACJgQgANLxMy+BwRQAQQAUQAEUAEEIEmI4CGV5MBxeIQAUQAEUAEEAFEABEwIYCGlwkZfI4IXCACe6PxbCyejc3tXSARWDUigAgYEVjdoBIaz46uGj9p1wtUF+1Cukn1fCyG1/KcM4y5g5n0b/9UfvheeXn3Qwg8P1ReVpJ3ioNTOVfe6L8TucGZjdRq7aweooD6u/XV8vRsYWBCENM3mRua3V54dQr5X6eui7eiIolm5eEFDsz7O5cpVbnx52EaD+07/2+9lrpJIRr88uAsuLR65nOHX7d2KsEfd84Xek16vLoxkMjGJosL5VaQ2qVYBUNR+bpApWZ8M9PerhpM2Tm/KJcHHc3gH/tNGi82lhuYKozc255/Hk5reSi8KKn3kNEJf0YyvOr74+NUa13++lsj7dE0m1yMXl3IX4h0GErE15hqCQIfu+HFjZhLd6sVo1KuH78oj0xa7aGxfHzlxMKi45f2EjaWWeauMbwubDADfReLc9DMwHerltFqUtE3BtOvzW1u9E23YhXY3m/nb1Hh7ft8P/DTLvugAcNLnsKN5a+kD46Nek8DxoVJvYaWi34Eishv9Wooe77ZR5EvzFv6IBQYSrMpdWjVhfKF+CMMJeJrTLUEgY/M8Joqza9U0/D/Ynpz5KZYvuqf2zvWgHz2dMmZLrsKazw/fGcbCqmk7peGnHmMa8Bd+mJfVwI5Xt3oB33Xd6M0na4wGpa3R2fyfYmsJGnv1r8RFLLPvnQJyI1+7Xv10jx/0rSliY+OklfpYHZp6aiJhYYqKsq88OxJibImUVp8E6rsjvlIr0lbuuLVtVgFMe3V9iUqffnkq6Avu+59oOGlarz0SnUxvTk6k+8fk6aRk6XFakjj6+KkvgNZA3ZSCMPr3eJnDuCfVW2L9FE0m4qHXl2o37h/haNElxOfNRGBj8zwul4u+sA7e7UzzPb+/Ltm9fU0WF2J3JWMdnH+Q+X59mVQZEPpmreGN3ujrnGWKCRf8C1F6av3r9P3yhnpgTfJJDyfaskGk7e2UH93x7Spe5c6wmvSUOwK8VH3YmVvXM/un9JmBxpeOo1HM1K3h22xij+xsWxbrweEu0PqgdpW/4Y3vFq+PxtaXbScklaD3iPlo+HlMJIplGzMMyN5sclWqhKFmVdWP7BadZRbby+U6ePZ46K7Hmbb3bd3p44zvLpk2tTFSx2hNam954R/28VYWRv5pnqFrihnrzx5Z/2uO182bHi5zX1/NHMDlr5mK9rVegmXLpF6ieLWJkMbXutLeToEXN1ebxVBYdVF6ylpVQt7rFw0vFyGHianHAU0vvlUcJi71ORGV20rxCxH3t3RyMZUP+5i2pG6+DnWqzrN8HpTGXF2TkdXFRNTINcZqbUHzj6yadLfGUQaqAirSQ3ZIz/uZqxsjWXTnsTGckd3VVsTbO/OaXgRQk72TDNGb71dIvVeslv3d1jDiw0uLfHLZK0LqS7aQEnr4O6pkjvF8Hr1qpjN5f/fB+uq0jmQZ2d8jGPwu8VZd+Yn+WvzZbDguaBLGcwI47lkXtAKhldu/IV4GC3VYYZXdzjYdrereEhNGq0fGb/ubqyMzSKkV/dPocnnN7wIYb59QbFLukPqAZh2/IY0vNqxPxtOXbSDknYA3wN1XLDh9eHDhz+c+ePv/+CT73z3e9/57vd+/W//nX/3B1fL5Z2mI9uA4fX0C9fvXrGiAggDW23gwaH4EuSz7041aDFfZFJSnWV42Rxsz/YPF5ZKw9dyzokBasv2TRZGlqrF90qDnD9gQdGNiFE/XctsDl+Dsw7jNMpGWh/mQ83oL9h5YnIVBzvYsbDdSp1TArF4tv9aKfmN5Ory/nX6fnEQYn/0XS1OZ45sR8CgCaztY7mBm6XU6mvbYmntaGGpNMQPzE7kh+9X1mp1Qgya1NIT/MFKxmisk3mtW6EKmgErAw08r3nUJ+RDcbUcl524JyhDF7d0+30RcGMkOYsH9KzxFZd3iez4N5wsKaHfPz1bvkcXoQfuyYdpoFMZ52Zy1VIVNBmlsaR+/KoyPZMfgEM5/VOF0fReoICc7VbjcBLo8iPopWYWBGk8qQlgdseU9X7pA5o0Sb0Mi5UjEbjMq3Yi+MjxdxyZSj6uaWTKFaUpWfM40rSvn8wreoB62RbYgYOZXdUPmPIrOVsQ/LoGegAUu9W5HmbjHieWrZ3L49nYeCG1Ja/EQic0BQmKqi44kDRhoIQoleq7GSunwa5L3r9eTgst1zdZGP3afpY2REW8085WNJ2Bv9UhCc4/xYW2HwzjDLlIw+vo6Pg3fvMnrskl//uDT/7e2l8/5yQ2JRGkhmCr8VoZtuFrM9f8m49BtNSrLO7lzK6IGlU/GIfBe+BORadhg4q1DLdBWZv/3jxtWvvK3VR11w7VfzXeu5LAnxwmndBcrjOc/O/lh77DCqqmMDTQuNQhFC6cIZKri8Wz7HjE1i4cuVAaYjj6Ski1coXbT3CClZV8s7yusTvrlcclGpTL83E8GxsrpLagI3kUh6knHFVHTbXzFhmQMi8LNWp4nexPG2LRaXZbouEmhvmiG5oL0NMNfga3+t2dIZarkNrloEBvjGp4RWps/WTxDkwtgHLWAcYKKa8XKZA0t3f2zInfBlkEjE0xvEg9fcfthzIgHBknYZT6cByJxmWnxpqxF8W8PDp7mi7qRclB7PLSoX/GK/TAm724LDty4RZ+3dxZXwkRQNXgzL58FwT/rhwhWXBcRZ+ehmhEXcilGCghkjo1djNaf4Ndl9SqCrzQh2M3yuuyzclJDVtRnY3pWi+CF27wDhq6T/IdcuuAjKpHEK+/PYmLNLx++nvjsr0lp//hP/qN5rY/wPACJ/q+Lw6gXhh1tAY1fOT7Bcnx8HurPMSH2PFC/In2dKSvMP7ANNzyD9qXgF6rg8UFeeDWRipzsH50Wjk6rZT2kp/CSOOZ8wmBL6duZGOJ3OX7O5mSk2v3ML3ENanfwQ5A9hglMghsQNKsVoLCLcbv5mJj+XjmsEhJrWWWNy4xHuWTL/cdWzk3vLTnNOT12so2t8NGHvumWFs77FjrWD6+LNqemgNL1LdbLSKMjOVH09W1XReug/n7BTqEXM07ERB8ketNPcFt71h+ZGln+eVrivzR67XMxiA7bGuNpGDECkTAhLN+1P92YcYZVBK5kSVo11Etk6ELYJc94cci4wbD/Oebw4nspbvV9bd1Quix4tQzmf1Our436jB05LG6zNZMwytKYyVDf/AedPWj2nK6xNiUKC7CSpbTAOjndzbHJ7L9t8sZunhTP9uqJH8BUdz0LKC5AzSeihYIhckdwiL1ITgSmcuESNOegVub889rTpc+rZQOFtMbw7M70qLU2fJd0DCThWkufbuHaQ6sbu4BTS6Nf5GLTRRTz7+lUv22trDEV7zOlueg5Oul1IqrKE7Xn+9M36LPL11l0q0z+hm+rJap7TUV8KiGV4PqQqrURIkwvCzdrPGuu02jDgmtqChSTSiiKBXBFrmm0zKPVWrk+YeAAzeSrZi9SCi1LXlhhtfzX72QLS1/+ud//lUTUbCpIXEgUfJ/B40W8c6WE2pDUH5LvmJuMzxzvsnC9BPrJpTceNNwK3/TnrT1jNjyzzd0m4Nn4D/nWdqFcSWRjWkPjXJrdWLzqTI3gowmg4AQy+EdULi0UnWdnxB+PIIO2D6Db3932LXM5OVMCvtrxvQb20+VgZPOE48z7plWNVIJjzAysZGmG4vKf2evJDPd00ZTTyjvTmsjYUKLpBmFUhexYdWQ4ZXfHnAmtSMZn3lK8ZAbGx03vgObyBqXHqF9hv1TQkjzthojNJYUHzqBaRKF5EsfMrXKiNO11BCv0M8TWePyAKgp/9hv03gAEf/lQuEvh35jk3roJEaOROdyvTbjrpgmcvEVXfwdTjchZ6sbTmDSbP9nFU0E7JPDJFPI3rkHb7KzwCx3S1a6KHmu6nMw+LD+FYQZsl0ZZNqfJSTSVmPD6kIAZaaET4DN3azxrksvd/FFKjmpsvhKvpskolUEpz18JpS7f1UYcljvfctk1tsfBFRtSV2Y4fVf/uvP/MaW/GTi3081EQGdGvpwLE83PbMi0GgRDS+YaPoNLzrqnHqXxCeLqRAuOMQ03DYRoHBFNehgy+jPxpVlCRhX4lnNGpJDD6uOqjZZM0JGj1HCmwAb/Nr4HVzhauZb4ItNXdPm9nzDo+4EBvdNThQX9DGpmcqLSXsKQEM+mZfbxRtAeMO93S9yTwCsbsiLBKIiYsMKxlQTziAjymgNvFYeShXyJBhGEXATrm/2COC0DuNeMydATQBQ8k6T8gUs7ciLdqEby22X4Uf6iMdsqpCQJ2xAkuVWLi0LHLJ1Gk9pj/wHdEj9tYNWqYdOYuBIA1yGlQyjWpAoB+Hyzs2kTwAi1aglvMme55ATwL+6vaaXUdbBbHc1GvdnoRLvL1SqShyQGl1d8PJtlEClpm4GZncTuy6sSKnLUZErOmWL656ZsOvZeXV70Y0noL5lYPrWIDlU7UlcmOH1R3/8J7KZ5U+P/vbvNBECpob4BrMv4fUDAHH1jnwBNEFX0Bpebl7qsu1sJwENpnj3oqrIw63I2tSUZdpkrQfAVAdjEHjfvEeUBXMa5bACn6Kp6onnAl2vj1bPtdjMFs8hElwjaI+g8rxSJFvLLgwr1jcEQsMtTgZHu8Nu9/C0MXpP8NUuGksXf2yR/WFM9dDAC9CyFR7SoyT6EcvN3wBuRBheqjLlFImE3q1evPelgCmRDK+wjSUwdyoab1DQcBZI8vgtyKQDAapk0S/sfJfLIERYIerUyP3KLvXQSfQcaYDLoELDRL2C5munWNBGmC+pMIIsazaqaMYQJVcesQCNfvCdqk3O7ECX5hc4rkgcPGxAXbAq7JRA+So+gjrWMxvquib7hpWpGvrRKwIWKLS5nKVDBlvckt+y3mXZARANb2XqwgyvhT/7b35jS34ydfVaExtuMbz6b+o2yGDIj+mcmcyEQScWTvqGb+k5GnAAigftm2iUsqFYzWMgCew84c1tHGM0pdBHzGPRet0YIeT920rpIL1SSd3fiM8WBqRzRqqGAsJsCMMRB60mUh5ymkG0DBfzgcItpXVmAbyVNp15wWJ8kt8ChX54PU/4YgacwBj8yn9ugFcG45mnjQE9oX5We732rJpe3o7fo2dLxXXsel7bsTLQwGmEwUllK99ZzsamSsnV2rHmYAEhJDputF5GUqDeZEeSLWMVbwVLQG/UAyWqVncuQjaWrFvOnaj9RDJ9gCS9TePQrWcBfRXJ8IIT3HLHBoACpN7OkQa4zApU51pAjOd3xbkQLJ7XTqL4tyDUiquD9iHPQsKUrLUeeBFs7qT6GPC3+gRwXJb686gLt5YASqBSQzc7V9e9U9U3VNdvG6lIlMO1ubsS6a6lMXcusWHChvVITNG34JxPL8zwyuXzspnlT//Pv/xf52ybnJ2pIeXmsr213VPDqEAIYTyLmWx2uXSeBiEJaa7JtxWNrqouwLxMwqfLOrUof6ZPg1yp+p2aX8YxRlsQnBEzyCfNUztIzQprUlh4ULU6QgNhspbx1qz9RvsQcvLDO4aoaaBw5T0dyKs3rexvwTqBNvpbDU+gRlAWw48s/itQrAcco+H1ofhkQ742FCqFw1NaXgdgZaCB4wENUdlKyPujeX6igl6UmR2a23Ecw3lOYcd46dTACLjR3Iwk1fqRi3XSsH9qRdiTCzqVFihL1aEaC2aQpnXAIHglgQkkefqATLiJBdEML6iIzw1EFYFSb+cIdCFonZndwGVoURjegSzLSxqCdJHSSQ3khXrF1zQFbxVbTf2Eq2V12QY+4vuzvlN18IXmFxghczwUIICznBHKD6JEVynkFRZ8MAdlHALK5AuKUm8/l4yImZhrZbLVO7bgKt66swjtQUipyW1IXpjh9TdxRa7+h+t+e8t98pN/+s+b2/hI8z+naligjnS3LttKzw499HpZG5sD7s8xi0GjUxzGAlv0AjbgjVevcF94N3bXvc1Uppp+Ro8CHb8qDzpyK4uZOE2jUxbQCK0Aax+yHBa3evcLUKl2hau3cSGv/JapvP7P99jBK/c4p+bft8xpDDTp6AqfpUFzxa9Bk+p7gnT8isbuKsWXdtIrVXpEtPYuPecM7Tp7IggrAw2cSN6QVf6IJ+pnW9XpGcUKH7y/L20+RseNls1y2Q0v6/4pp9CTgE6lA8r51FJ1YGNhUJnYXNZ0DOdAKzyXpoJAkkVAzCyIoPGY/e27MC3Ard4F0AKL4FezpYPxDuRRv3otGKyTGshr1wPWklmxssHB67Tvz/LPPAkdxzmLG1AXtPhASnSVSnSxjtTcrssbJamOhioizDkE1kfczUduaTFVAG/Zx97z9VJr25W8SMOLEPLb/ybut71+9OORra3t5iIQQQ1BxYxn8azB+xK+E7+wlW7wMxUfKim+Gq9XAfRbneJQymj9H3zalNFbC+BqOlFa8Ec91YlZOMOLqXUuSE5DzZoCljosPh/hFK5sWglwIa/8FlZGTYvqIjekIJyBzXrgS6eeQVfbE7i5/0ATltDY84OxguB2HhqgHdppK3/JEm9PpKgW2X4RriU6brRE+zDv1hnVrd7NBROtRgwv1lZibCyBvTzrQA7FwK+5n8MXFhYY+c7zskQdaNPsvwRJfSBHonMZvButG/GMdHDxCbvVKDvYgSzrtS47Xme/541tR+oML5szu5cB0t86jp9HXRBCginRVSrRBN2jqV1XNyI0VBE9iu4co3Z1sivFUk9me4tugDrWUm98GamxbUtesOFFCPnZF/eHf/xPXPPr71/+4ad/8qcfWnBxUGg1JCEvAp8aj5NIX1MXKHajdjSDGvq9xR9fO9wqdbf6j6BpE2gHvcUD4ez0K17GoY4LVVYVFUDMZxCEWeoIULjWizUhr2x4gS+wyTVVw5m9uBuWwuLcBnEKvGc7dD2BxQTSn1EA8nwgh8AKcDatxVoGHk+rxWXMfFcICIuAW+Aw79Qa2a2e0cpUhImeLbZqazOX3ZI0jSVgIhhcuT1wsT8Bf18/F5/rBjD3bUiNJwJEabgcJPW0Jrsp3ACXwVYL458HYqJXOwwmMKlh2cN9DLKsN7zIMxYcVdU8rET3Bw7i+A0vmIFHGwicwDRuHA2F4+dQF8Zo9XJDArpZS7qurt82VJFwCqJ70+62jLKTyHog5SOz6a3bxzIwrUxfvOHltu7t27enb960rqUh1ZCHgOOVkhskJjZRWqzql3pYFh7xL1GQjrx5ytP9CQsPNo8r3XCrK6tlz2AwMzZNJ0hADbiJeAPegMDHTXbtWZqF+faICmRU1JN0J4b3ORDi/NoVLryVTSuRXfuWrQqYg2KI/CwFetm4MsobHiqAqq1v810kr+EFNNiwghEroT0fKvzKVXva11znAVzTIYCNjlvgME9rYvun3vbqqZKfwjiqDfBTX3vAtk2DDS9C/I0lnBG+ULoyDWra1M+lr8xyZ+sVUMDxy20W2Nkf044QEij1tBy74SUCo5hCxgAt/JerC5Na4F+KQTdmDPogzid6wseALBsML/CsiJnsPx6MyqvWRNgz4dMtk2xLazkOotqAuoBWWCnRVipR2Yquq+23jVREozRlPnfi3M5Wjt2BUtVpjNFze8ePnVOoJoZKLW5DslMMr1Y3NYwa0tEge8/k4/qQp9SvGYKe+6JuErL8ZTG5aghVXz9NQ3Bkm0K/YMMLeraly8KKl39bVkypvRoKBD6ejV3dzHid4ugVGe4KorQ/5bIIMqoCBmObtM6s46hd4cJbYR/IZejfnrDol/owsO6Zg/s8HLZTHmwO0sCY3kN/9fVHRbZ06r+3WNcTIAq277RpvQbhfH0HKZiOC8CK20a+fZ/68coGJ1IxvJ5tX8loIgMzeygu2dAN4BY0zFvDknFOagOo8k2ZrP9OVTmkrSKn4RtLhJ069NWRL0ScG+Rvc6HMiTStf8gfCKtCYYHzSYDGe1sTp6oTufiqn6IQUk8rCjC8SANc5pGKJ4oLylWGTsPqp+mHFR65HpZJggKojpfSqoYBWTYYXnw4j2c1/KrXFm5DUHuvWgNbU78CDeyLFEC1UXURYqc4TDdrQdfVGl6NyIiDp6sVExtx5yImrxeyuyw6vjntvFXkF7jR/l80vIIwr5+m+ZUUNA5vYeR+eXGlmqb/7yTvFC/BZbexeG74kSZAANOAiezATeb17OStpO6XxDE008VVLnW64TaI7ua9h2mTt0MrNYAxFM9eulsRF+A4ITMG75RszvXXC3TaLa6VOC2+rIqLhvyBjw1xvIJcxRm5doULb6MYXoRUfsEi+tATfOI2GHq7SHK2QO/M9i7ASAb9ZGGaXVt0WnxZYbeRPNhml356jEtdT+AhtmMT1MRn9wWtbI9MZmPjpdHbGuf6kFiJUZOyFW65KR3MO2wdmtOx1aXweklcGyVdANV/VwlLGx23gGE+xP4pITBJiMXVqwnrh/R6E+cUSP/t7bR78xIQ3z+3MeK8UhR3lMaS/d1hdoNTtu/GhnwNzvySqwo8vQ5kytMHZLnTD2D0C6Z2lHPcVSfIS2kYmkkbO6aLpB/Krd6lI4AjpBHpIGK2Ro/Elhkv6L1em5cnPdKkipL+yiDNfBgk3WR4EXKyN8rv2L21uSBu4nJoiOeTD9xgFp6txjD7swQmS1k5rrLZ7VVtY1h1EYoSc6VSP2t61zX128gVOURCkIh+yi/uzMDpdzevc310pNauZ/Mv25dAwysM1nRNC6698x7/Zgekp0op/00gTtlMA5qP4w58uuNb9lCp0g236hct/IvNKe0TuL85KCGdapQPjffPVY/BP0adl4tx5XhVuQNYZJ/U3Khj0BTMNcTq7UFRsitceOsZAhm85rd0mcpyTe/APcXgoMWpk2bR5Hh24G71uM7GszA+XvQOHFg3lctxV+B0Kx9hsSKEDoHadtEbWrRsZX1VIyb9t3d91+JGxc0+zDN/Dv+yqyIeJsOL9mG4c9MjrfQyKF3V0RpLryCk1rCncP7n5May4m0hBEShX/7DNIBxw4sX7k/QSUK16F1wZaWHlfrAFS9aXlQu0yyVFb6N4EPMcw1D/SR9Vzk/qyBssCxBls2GF+0Pu/yGVqVM9y4j4L6i1gLCnjF4IxpeDamLcJQY1KncyZx0c7uuud9GlBGXTnCKiGd1gZxg7TaejRYcyodBEx+g4RUazPrp2gq96FcEpYxn+6fyw/fK6ZfOBauGks5OapnlbTeUaD9MeWNjuYGpwsjSTmbLHL6LF3iRhhc7I+bxkOCkKYnawfxcYQCWAPuvFdl9lHoxU8aVs9291FyB4ZPIDlwrTmeOpOgDcj1KRvbCXY3XeyPJeVtkeDlV1I4W7hcH+ciayDIW+495Moo+FFfLozdzdEmMrj3kBm6W5tkVUpEML0LIh+KTzeFrsP0xnhua23nq3AKpMbxCY+WS6bImLFvr79ZXHTGBbhCbyA3Nbi9YZCQCbjrrh7OX7Z8GTmoNW41uOS4xsNTRN1kY/do9K6qruoHG1k/XMpRTjOk09grFZ/65f39W1895Y92EXrLoO9N8z6luM7VyWKH3i5v+Cy/1Oli0pUbgMuR/W1tOb4he7aiFeHpPayzSXnpPkj5HmpKZw4rBsgxleNFw0K+X06UhLtQTQrLgsLm84gVjfKBbfaStRoZHJHURmhLDBgLwQPptYtc191taX4SKGHl8x1kf/g1MZPV0vNS0tic/FsOr7cD2SoXgYJt81fQWhRhXwtYJ/qeB+i5sgT38Xc9iFXb/tId526ymtVDqm0ViR5YTyiujLZR3DiVtaW7XVYKGV9exrJ0Ew7TJ4lbfODnNM7zCuYo3Tmkv5exVrOB0cOBecy8xszVtaanUt4bkzig1nDN7O2jtHEra0dourAMNry5kWttIbu20qWmGFy51hO8RvYpVKLf68DB9zF+2Vup7GNmQzuxtQKBzKGlDY7uyCjS8upJt7SGaDWaBbvUNUtMsw4tpGVzqCMGHXsWK7Z8GuNWHAAg/abHU9y7AbH/WF9Wl/S3uHEra3/YuqRENry5hVA+S2SzDqwehwSYhAogAIoAI9CoCaHj1Kmc7v11oeHU+j5BCRAARQAQQgSYj0OOG12/OlfH/TkMAurDG8Oo0UpEeRAARQAQQgV5FAAajdv/2uOH1yS1216kS/s4fSxCftBEBSx9HNiECiAAigAggAm1A4Eez25bBqKWv0PDyhUVuownShr7VgVVYOnQHUoskIQKIACKACPQeAmh4Wcbic726+fAA/+80BCwc7TRSkR5EABFABBCBXkXAMhi19FWPr3i1FDssHBFABBABRAARQAQQgUgIoOEVCS78GBFABBABRAARQAQQgcYRQMOrcewwJyKACCACiAAigAggApEQQMMrElz4MSKACCACiAAigAggAo0jgIZX49hhTkQAEUAEEAFEABFABCIhgIZXJLjwY0QAEUAEEAFEABFABBpHAA2vxrHDnIgAIoAIIAKIACKACERCAA2vSHDhx4gAIoAIIAKIACKACDSOABpejWOHOREBRAARQAQQAUQAEYiEABpekeDCjxEBRAARQAQQAUQAEWgcATS8GscOcyICiAAigAggAogAIhAJATS8IsGFHyMCiAAigAggAogAItA4Amh4NY4d5kQEEAFEABFABBABRCASAmh4RYILP0YEEAFEABFABBABRKBxBP4/p9Gbc/iJW9EAAAAASUVORK5CYII=;" vertex="1" parent="1">
          <mxGeometry x="750" y="340.56" width="283.51" height="40" as="geometry" />
        </mxCell>
        <mxCell id="urtNTClgw5RGaUremrSD-22" value="" style="shape=image;verticalLabelPosition=bottom;labelBackgroundColor=default;verticalAlign=top;aspect=fixed;imageAspect=0;image=data:image/png,iVBORw0KGgoAAAANSUhEUgAAAiAAAAA9CAIAAAAbPEUnAAAYFUlEQVR4Ae1dX2hczXXP6z7qTW9ZCDRR85AKWqKXgvqQB0EpzkPAlBQUEr6yFVUXFUVy67jrOiZq8lEvX1VVRkllXLe2KE23uIblK60wuKpaxakwBtX7R7sra6VFsv6sZFm28HLL3Jkz/+7Mvbure6WVfT7Mp/tn5syZ3505v5kzZ2a/4OB/iAAigAggAohABAh8IQKZKBIRQAQQAUQAEXCQYLARIAKIACKACESCABJMJLCiUEQAEUAEEAEkGGwDiAAigAggApEggAQTCawoFBFABBABRAAJBtsAIoAIIAKIQCQIIMFEAisKRQQQAUQAEUCCwTaACCACiAAiEAkCSDCRwIpCEQFE4DQIlDKFWCIXSxTS1dbFLFXaz9t6aZjDB4HOIpjsVM5tGfr/u8cKAzPV7OZ7n5rAq/e1F7XUZKl3LC9EjeR7JyrppfpxA1L5/G28W1mqjt8qxkeEGl2j+b5b67OrR5DvIH1NvBUFkS5h+je1DRnP/O+rjX6iUj75rJnKh6deo56+QaDovbdzHCy1Mf8z93vd3KiRxI2Vh0WC5LX1xTfBmTHFuSBQe+R+o+TavL1l7S9V4kO52GhptkWeaIlgdE2QYM6lQZgKvRgEw612z+2tmrU1N/afVy+Nmuw7N/rDhcTCoQkH9mz/hb+ESpYlvDAEo/c9n8qH+4p18lwswUGzF9B4lUySD9f/6LWbaHsQPtngkj0XvjlPBF5P3ySfrOtnr+xaiG7SmzmwJzO8aYVgPJogwRgQPZ9HHUkwY+Xpha0M/HuQWbt0Q0xHuqe29w1YHS/OueMpapiShYHJdRBSS98t97n2ixJVz51XJgnO/lKlG+xa1/XyeKbGdMiuD04UuoZkW/lu5X+FhizZPapAfvCR59ULajcNekf8aC91hViBnrm9iAvyiG9lBnP8pEw+zVD5AZuvfDQzmLf1bKYyMNYEB3sAPucHq+s9pLMUUqt+ipzFDMarCRKM3zc503cdSTDXqiUPCMerGwPMZ+X19jRWMsAuQ/nL80ZX2Pvas/X+YTa/6cvU9RLebA9SEhoqpp5zV5iU6uQgM1Odlx7olx3YrJ+tdRErUJz2GWXq1Tj7e88I9OxVOKcSYZx+4QhGc2mGDx8gE7gGY9KkA3ti+AhdDIkXhmAInMxc5mKfbSlu/edrbOYxVJxY9V2nqW8NcpZ6rvjajh+X6PwGvDStf7+Oa9bvHnzmEqoGV+s1izaHdwQabXkdJB3M6EUjmDdbl8mEPnf5ybuI0ARkggjGqEnH9cSIQLoAYi8UwTi7qTHXYibXFgW23M+bH1xSeEckka8KdGqfi7H1ZPau2QYti9KuO61Zv6ldcj1+g0sKlWpan/vt8n3X/2matp67blErAK3ughEMG40NVbKRtSxAJoBgzJp0Wk+Muhl1sPyLRTDvHtyiPi6pQ/Jpza2acWXFAz6M6xP5VEG8hAadTz4XD1u76rBmfW7L+y2hpi/vt5T5wieGVie15wtQp7NwaQIy/gRj0aTDeuIF+KSRqdgswfzTP//L7/7ed776tV//8ld/7Xe++a2f/u2dKFRiYcrWwayBYBbv0PV/hS0CdANOit/fFSlZo8x1TW41R1QiK7vqrGbtt7x//Gp3dq48cDXvRi4Qzu4aLV6a2yqdeCrlwASRRlo3jpbn1wauQsxFkkRvZ8zh42pGr2D3iWd5n6UD+6JZXlXmyUE2U+6DuMGu0eLgo519ZUzNBxMlCB/w6sGA0ma0juMcb26np0S0etdoYeBubbmuFEDFqdq+Ly1VB28Atsl839TGopYLGhsPj5QutCq7JdT3ZufKfWMgk3wvV5lXZoewog9ZOyx209XHiepfUa9pojRrDfuAVQ0Rc6GCZnZpHmdnyM6V+IwagxPQKQhWiYkCU28oF79RTi8dHDsOVMGXYMyaOI5aKPuOEObTfbWU0NuJWkHHcUIDfJMtJ8sqNY4WM+Ueqk9yTV/WbbpoNoJUB8q8JvDWCCBzBXXd2eHpI7poimCSI9//4pe+ov371uVv7+23aYptlQkiGHCRXa2uMBH1iatep5lNPDxvbLEo2IlNd9eF+7yxk4SNL/HJmsnUQnbbX7kN2dKc2XP78v7yz+kWNjoXVP8/UsnqUdySTT/cTblbWyRryLL3P/QETWjMZK64ZQQq7ItmbSVl6lsJoBZFn+vVFYkCGIElcgOfmwI3HMdhRkpLoAYlQmwhKWgon1jQRYE1rGQbR5nbwL5KrmL6paQWayoq+Cy9VuXjxUyJbCWRpUnX/XO73k4o9HmzraB0rVqCoq1rjY3tQbc4S/wx0I/qYXY2N/qYVsX0pvSxfTqFvTnFb28vBm+0tGjiyATTqD0um9Eb9TZ1qnbYgFOpAoeDaaUTyZ+7xaKr1V4Xc1MI+NHsBGszhpbPMnqjpaQPF9JlMMH8+Q9/pFELv/3O934/JDWYmACCgcV8iXhhw8StWhPLL1xZsFPKWo7jvKz28Z6cLCaeGKPRuBDPhWhDnldn/aDBkDTBQl/Fb1bS8zsre0e1vaNaeTv1KZhFPSIAsJqqpq8T89p/d2O+7Oba3M3McdvnXQDjGe2bTKGhy75KCpUwkQp0IHNynYRfDxcSWVqFg+WFdQgyVGOywQUXkwcTkkw2A1ZG68dZIIn4p+uZFwcEor2D5fm1fkZphVRBYgtBh+XUfULevTMMotKLrdSPAdgr6zAqcpyTt67Mo0U3fSxRfkA/BPn/W6klC01io8VxVtmj2uZuJlPutYdEAnrl5J18bKSUfvaayHxbn53bLHFANIYATICSLfHHQD+XHqvL+60STKNOmpNrH+M316af1RnIC9VBdwtzzxWKm3EA7upq00QimNRDd+PBtXJ6YbfkIrzybCPBt0irYxFXaASAU2DBOCTvlGJDBWZbTl7P39+ArXVtFA2Tb2/bhvVXgrDHCNQ+dwOaolxCg9YU9IuWlbU1TifGi3/79//gsk5/4UcwIgBManPA4bHWtsofQuOWhw+u+lu1y/K4eLQ4/oRM2Jv6D9pQO4dbNFVA04mMoTWQO/uPFZNT6xjWtzTnCdj0oVzMGKTHWXlkbVGxupDR/mlW5ty5lGx5QUkwkdoHApmJXMw72TrcYoHm6t5ycKKaYrXB2sqj9eOndDtU/vJjfTbnnOyOu/uKNH8aaEtOTPBEmhxnJqmtNAwYIaNWTYbC8VLFjTLPdX9WM+wvPtxNMRutkwGIzcWG1ZmTK5jBbj6FBbzQ/vSj8DHVtjUXGdew7+d7ev9qHGWmgJXNSpISbc5V8o71xFxsKNc9taV6TUnWLMgf+FzZoBYR4KpK3hbiVqetb80CZDxUwWIfrhfJFEd/C59YH0oSNUL/L2AG83f3/sHIK/zhn/wgFaJOJoJ5v79Xz9rGa20SjMMKMm4yJx5SPjB3B1mjpbRxZ4xW844hmDaX96FbJp7KFRM2/dJj3RTQdODtzanhapDRRjBg3I2+GjBAmuUFmZaTb1h/07zS4AQzFMQcibKBZqPCbot7Ggb4iiMItLVsay+sx+lQXV7zc7GDjFo1Ka4wPtWZW/o60P5lgnTEjMqiDzs9KGdwrextDriqGrAixVpdmpJO6qWxU8DkI2YLzIG2YT+LzFcTaMmxK+vLyqAHdOPyleXeyACXOc/M3O0W/ZxudNNCk9jS4+XHNdfbqb4F8PU5KGAT7t8AgvmLn/wl5xLjxeB3PwlRIbD7TXucoYO1OIPhDkpjx3YrdHKQuVuUvbe2/f+i+sa+JF6f2RVrrC3v3gcw1dNZwKar0wKlMjAfV4ImgtZg/EagwkRqHwiUGVtfVjSAG7As5irofRtCAOTnDAR7zIgJJeAJWy5w5Hq4FjJq1XSrAwVZbD2tMoxGVWcviFUtC4DEeSLmmTuysYJhguJmti2qC8meK2OnYA8NUzqeH+adkruCvxMrZ/LIQHoNzcAHOhiLSNEfEQIuJlWGFRHHcdoveoeesaR0PUYhpQdvWPNQ3jJO0hwVEnqhXgYQzN/cnjHyCn/4RyOjIerjQzDdN0yOHTBtXj+jr1Zgp0SwgCU5icARS+KWU2ogr7Evwcugv6CSO35UVnSVQVaQGMdxWAMyeYTk3Cdva+WdzEItfbeSuFWMSxFKZuvs8eRKwiDUQjGgUCPlIc/EOF4bevPXYCI1ywsyJ7d4SuUCOqpaBQfmWKq1AkeiYoYW3ENrvF/B86TvoXCggbbljHG8bOdayKhV060T06Qw8VKponYDEhR7YXwoZ4R5mGagGby2j8KMvszHslDjtalTrLAwExtcRBBUQf1kUESAJkBg3rU9EOA4AK9waMOTKAAHr52F8tsvGlZbZStB5+Vuh2XLLdJbxqwtfUSBWstXAQTzi6e/5FxivPj7+3Mtl2nPwAhGOYtse3nzaP/ElocReMw2pDXm41FkfkZT5JRPqRlcUtc2RSo+SDF3CTmh6RpMp8eQxaTGYcqoPYPQGu+6H09Y30nfEqypkJlbumqdQTEzT1ChxjTGh6AEP+PZsusI7ItmeX1lSiNBtQqOAwMReVYHe/T4AWhENyjXOofmcMn+JcilaQuVbYtgQKY0xOby5AuTBYe8Nn0cB3xEMiAQUKexDhQGWcxjcEil/zWpx7q5OuvSMkIVTL0pUBNToZp8sPhCPpQYDeC+Kp2maKiIGGFQ9mWfiQ25+Fs2sJNbr45MqPcBBOM4zuB3PzFSyxe/9JXf7P9GqMrA0kgLJhVcBEGH7il6wj4YeRCqJPDe8P3/Pobbtw15RUbyBEbl1jM8+Jo83fsys5ae38o8JTE2+6ss6lG1zkE2nVTDmMb4kFXaZ3mfpoAup5lIP5kko2UG4zjgDRNOIbMTH8otTVfdSDkR3KXf7r8VsxXIpWnLKmvBh7z1yQiv/Ib5RISp1UFemz7kBxHY7yNIIzM2thUQcf3Jhb9LU0kq35jUYwTj6z+AKggC4FKDNTEVyrOzC08aKDEawD3Fyfqcpmg+eII1FTrm5ozCHObsLRtpWcYQsk4hXQcTzPp69be+MeDlmF/51a/958J/haQGE8NaXgsEA+0+4NhwWU2wNa0dAQleIGNcABXv24ZkDaK7DlreZ1Y1NlKe9e6ONFvnIJtOKsPWGKTwcRvruFWHEajim1JBgS6nmcggZcxVcEVr6/lsCqX3NOZSSAQ4plRl/XjCTWlV21JNkqlJTUCCMu6Ghxp6qtZsQQWcNgEfxczHqkTTnalTZG/TCaKfeuBG8xJME5qYCtWUA4i4IY4YcF+VTvOtyeCJnm9CfQw0okTygLFxw213twBVQxpVaLCEfhtMMI7j7O7tfX/8T2WO+d4nf7Cy8n+ha9MGwThig6S+O8GsHmym0U/MNKfmT8FGdDTBBC3vw2YFs2Vnizc58wzGh/UhSgrGUBQ0QMzjWwsegVqH9laZ7Dv5EAwYULrgyeyLd7QOILTkCAJrZbOYVrX9MgKq5o/FKgzGRTUZfmJ5i+YhYTRejhJwiMv7tCCTYS3RX5PTgv2EYo4wmt4w5WYCDVihOTWsUS7AhFukgJtwEAqdomgxFnFdjtQ3oHjAaJN2Wwj1nqkDQaFFFFdNEQwt+PXR0S+e/vK//2dpezuqw9/bIRjH2V8o0+0CsZHygy3huDDg9XKTbccbKorFPUM6zyMwT34rIv5tyCMy/AfQ96xV87G/3GeSsBBMwsbffJ+HGAy6VbNZVZhBeohHBsRiIm0yIatfBR3mlyM9jTGxwXbzD22LcIWi5L8WbXkSq9q+GWF90UcTqK+ylGKlZ64Pu2ADZxIfyNaKbcv7DDqfQYYuG+6NnYI1VEsUtUO2PNM96t4w5aY0AYKxhkGDfNXURgm4EQcAyXHaL5rIgBXNVIG2NHXax4LKCukqPQnFL3hPaBTSVQsEE1KJfmLaIxh55xTZ3W3eGvm+9KTSwzbqG/Y6Ze+VUrbfVJZ2filDA60qAW1ISx36LXjVpdmxXgbMYLx2RP6xNfMMJpGLXVmbF5FTVDY5ioP+VoJn44jFqkJn8P8JZ4vltcjk9QSDq1YBXoNTKPXYtV/m0Xpjme2uN+7RcxyHNKQJZavQ6V1k5vhm8JwEbbRMljPqd7GgBzjwv2zFLp9cosfvW0wPkK6Bj7kop6WNluCqTeQHPefuOIevknQ3Kwk50Wyl9sunonjlihNMIj/wuecQI75Bdag0qw6VIwQ8yDi0XbRbcdYv+mYq5MAefV7OpmsDd9fIW33fpYJc6DcfBsE4jnYG1Ejx0t3qA/abmBupyRI7Wo40WVObcyC+wD1uLzG3Ab+nqf4apuFsCemLBLUhKWkEl4HL+6RMMNCJXM/t2vImPSdmZ9oNxe6dLNNho2qdIcu1IjlHR5zOckTOQeEHzHj31fOy1JkKG4HqfUAHxGIiQRlVpsjsTzDgFOq9RoLovCzL5DR2xvlpDmPlFJwy4h7QUhlwfzBChah9goGY8lzsSiVDDuA5mM9sSj9FIfac24+KMYyWLOgJnOCKDUriV6xHKjS7vA9jl1hC2YJqjEEgpUvBJr1T1Sw9fIhvqR4qpe7RQEeFYJpxrhLhrCfm+66TEwGk837q89mKzxE7ylDVejZPW4AHG4c2vzX9lHShpWvEra9nPy9lr66kez7CmWzghwYWdFQMT3c2F+3OYKh2ZGjJWw8PJ1UuxsrpF+bt6Kxob5QwPIl/urFijZZ2FQhuQxGiyEZAPtshaeFSx5aRISdqgN9AtZ7CprOfvwVARPbRSkY7LZiUJTJK1WauAN+xMEluMZFGmZL4AILhC7lknOG3SeLw1Tg/scpb3+HidFUq1KotT+Oj9gGcWsQDo9WFnMZh5rY9pny4mDK1Zwt6XB/pAtacYomc5aME7FhislolGMfZf7YGHgVed/diuJhefQ9VkAmmOU0EwRTSL+tp5WRJUVB/xnNEDa1JRIA3YxzaKprhD6s45obN3Aak+upCqdQSorn8UGYwHJ3G0fICOQA8DkcjxxK57rHCwEw188I98o+nVC+OD+vz2XW65ZAdHp7IxYbz8bHipbmN+Zf27S9cTjNtiCcO+YL5HDRfvLmQ+s70VDEunV7OzlszW2fFONKTz8Xh6ldL4/N7nrOeaLFKRqaJ/0qypC7YF9XamklLymaugpQA5nkeN4KUhl2yU/dFYxjJ905U0guG+lq05TJNUPCX5MwImGEP5XomNryHFBDYZ0q9fF41nI/fKKfmd2uWEU+QPrxsx4HlqJjZYcj9+3q4nSzCvW7JRQa563uzd0u90FXd3yBgvxkBVZAIxhL4B7Kkv3JPbBwtPhK/6RAbyfdNVbPeEEopN5m0hQ64rJJalnbXatGQHVZxzLuLoAX6/UwDSAr1b2cRTKhV+5iEwfJ+ajX0WkPTtHmlWigQlvfPdpLegoIfYdLGLjmXOuH5GXKAokmXJiSP8G/naBJhJT840UgwH8AnbWJ5v/1ahkcwzS3vt68p5mwdAbaqYTk8lG/4t3jPWi+v7RxNBRq0LR0zRoUAEkxUyJ6dXHD7WHfvn0qV0AgGR6Cn+g6RZGbh2jaHYbOL6pHopgjtHE0UtfAmCAEkmCCEOv4963uBy/ttViQsgrFvPWlTMcx2WgT2H7s/PEUWfo2RL8ylaQ23O235zefvHE2a1xlTEgSQYLAd+CMQFsH4l4JvzwyB9/t77m9izpXoBqbY9Q32u/FnpgIW9NEggATz0XzqNiuKBNMmcB2ajYUzQcCuYfNshyqOal1EBDqCYH74rzv4r1MR2PjtP3aN0Z+97FQNsfG0gsBPV9kGpj/M/8at9R88bCUv9tMPDoHiliXUPSQ26wiC+frNiti1593Xhk8QAUQAEUAEIkAACQbm8hGAi6yGCCACiMDHjMBHQTDf/Osq/kMEEAFEABE4YwQ+CoIJyd2HYhABRAARQAQ6CIGOWIPpIDxQFUQAEUAEEIGQEECCCQlIFIMIIAKIACKgIoAEo+KBd4gAIoAIIAIhIYAEExKQKAYRQAQQAURARQAJRsUD7xABRAARQARCQgAJJiQgUQwigAggAoiAigASjIoH3iECiAAigAiEhAASTEhAohhEABFABBABFQEkGBUPvEMEEAFEABEICQEkmJCARDGIACKACCACKgJIMCoeeIcIIAKIACIQEgJIMCEBiWIQAUQAEUAEVASQYFQ88A4RQAQQAUQgJASQYEICEsUgAogAIoAIqAggwah44B0igAggAohASAggwYQEJIpBBBABRAARUBFAglHxwDtEABFABBCBkBD4f6gTaUxJM5HHAAAAAElFTkSuQmCC;" vertex="1" parent="1">
          <mxGeometry x="760" y="380.56" width="178.36" height="20" as="geometry" />
        </mxCell>
        <mxCell id="urtNTClgw5RGaUremrSD-23" value="" style="shape=image;verticalLabelPosition=bottom;labelBackgroundColor=default;verticalAlign=top;aspect=fixed;imageAspect=0;image=data:image/png,iVBORw0KGgoAAAANSUhEUgAAAYEAAABrCAIAAAAek6kjAAAgAElEQVR4Ae1dXWxbyXXOKx/1JvQlRBdIo3YfKqBF1BYI1D4EUAOkRgsURtokStME5QoRWGENya2rcGs4VXa3EeMailxhK0N1aqtBtzdw3BJusowTR6tE3UZxtxDMH5OUSYmhfimJpi2YuMXcO+fembkzl/+8IvcshOXwcubMmW/mfDNz5sz1h3T8DxFABBAB7xD4kHdVY82IACKACOjIQTgIEAFEwEsEkIO8RB/rRgQQAeQgHAOIACLgJQLIQV6ij3UjAogAchCOAUQAEfASAeQgL9HHuhEBRAA5CMcAIoAIeIkAcpCX6GPdiAAicDY46PRkfSUXmEn4J2K+APwF4/5LqdHlrWj6WdnRUZE5yGblFxJzO0aho/B0tZxsQVrKUV8HHuxuDRNN4sGHlQ7UZldRKYYvE4gGb+45cbaz0VQl+lac9NGVrTx5Utm4kyRfp7OrTx158QEiUAMCXnNQpbSqpfxjVWhi6M6x0Jbe46D8XcOYg5vRzlKQvpYB3s9EBJSdXyu7wSDprOG7J8aPO6PA4KNrztz4BBGojoCnHFQsBC7Y7NN/OT2l5bWVgvGXDy+lRy4ZU24gNqgdCU2hHDSZnqf5zVLM/x+ZRvJ842fMQzPzTcPaA/HRu46faCmhtg58PQhdJFAMLB90oDKuinrWQeUHaUJYY+nbdNXzgVkHPStGtMzIZA00zYGLX6oj4B0HFfLnYeflv7a1XlTM/qcn0bvp0bsKDprOpaq30ZGDzvyJcM7xk1cPHm72kQVFcn7XKw1qqfdk/gohyr63zrSWtbSk3jwpLWGsFpGD6kWuen6POKiyF6QEFB+5V6yupiMHXQf1CAc9v33VWA9eLdTgkXFg0bEHj7MDhCgToccdq/KsVIQc1L6e8ISDKuu3zFklNqQ1QkC6rvcUBz3NnzO8KqNrisVg+/q/Hsnrt4ytcWO8X09FZzAvclD7OsULDtrdHjGd0E2M5l7iIM+80XUNK9EbXVfhrs+MHNS+LhQ56M53/+Ozn//i4G/81su//pt/9MefvrF0s+V1Q3fGzj943rDwHuIgN290eXd/cZn45vvg6LDvQvLcciF16kQOohDM8IJKaT26aTn1fcH40GxW237hLKbrfEFZDl3XHd5omg96U3CU8DJPjyJaegjOH/ouJEfv7h1yaz7YjQZS4O126kGBgrAAO0N5eyc8l7QCO/ouJEaW8lIPI6/ti9RabvQyYBuMD81trQp+SfvQ0D48cTtGLB4sLqeHJkFmIEaV2ZUir3P6nB5pC8n+caOime3vLZt7hXjwfbulQorOXl2+O+Y46NXJv/rwSx8V/j79mc8fH4tH4wIW9XwtLc4YKI9lItworEdGL+3F1N7o9bfpjhUGPWMGE5mI2CeM2R/vh4yQH2fB4TvOzS9TUNkJSm80Z0V2cUYmf/ppq/RaboMZAJTjArGReyVbDJui3ighQ3l12TzlZMAxwwXG4oEVUZStbaWkXaenrrZK5MgvGX7CqFUHB5Xdo0yGl/cP2eYYaVufpzvsGbFvOpfK5QaNhqhPAABkGqvlkN4lD2wO+urMGwL7WF+/8KVXWtcciCiZ2TaC3BoU3CvroAptyGze6Y02f/JfyYSjexsHpfxBKZ/eCb0JliM6sGFEzuXCr8V8Y/Hhpa1o2ii1va8tW0FY8dE1oSqroBnVKesRag/xUEL81bYi7heQeS1LYg7GE4GI2YSj9ZXsCJyHcoEIsNfzKQbG6g2j4XZYAFmcRYBH/G9mtUdHBKKDo/Xo5jBdcyVCCYZQdGvdkQ4ZHsnBBQpR6lEh9DoAezG7YbXl9Jkhs7RKPZjp22ZHkP+zobO2Jr4LySna2FJ+e1/T0oPm0iYg8X4CeungjbhvIhV+eEL65llxcXk7pVPe96lCxoCUm9lPWA31MEE5KJvNWYwjTXz/nR+0RsvtrSFzmmouIpmarilK8n9ha8DrfnbO5p8WzhubLOkwinw7I9s9lW/PmnN+apGLJQKzHyOT+cxjx+L/SW7I3NBNbK5yhgkF1T2yYe4LWOMERMGKBMBBZiDmcy7ZjgujRqCjYF2UZaQBCsBQ7KKg/F6mn3R9/Px9cU2on+5PGfFWwsYNtCWlHFxc1q6ZNCQJVYeCQjMpCuW1jBFaEeu/ms9z2BoZjvdDr5ldJh4pgtiYb5xffxnlrLWh9LCCHhGoGAo66Ox/Ug66+a1bUuqxHv71dKg1jYEVpk8x4u1e4ZhF7Pve4KAGvdGwQQi8x/aJbfbn7gsrHZoN3AcxfkxDQUWP6GD/EBvNVmqtLIQOApmKqyfUfgL8wgomdklFdMfK2jB1D/Xf2OMUgi9gwMnwNjyy10GKEKdE1m+MOv+tfbuMkYJhKTTTzAWOKpHcGRkw7FkO1avqA8jLjGXPDFgXBDJVdk2SctDX3vi6RTfSxOgXvtSaNkFnyGAlNUBnC9t7se8pBynjpPfdNnpnZR3k5o12Qxsw5K9HgNm7TIwQBMDbGBRUcJDKG21qCP0ldBDInMyuS1sCNCpvgujgAI81+5yCwLMYW5cMJdBWVQocBQ4ooKDQTKM+qEhCnbY+z+nqNbi5aj+0RrvK8Qy387gdqFFeQsqM3K5KUg6am1+QUo/1cPwvX21Nu8AMfNcKUoHlJ7twXYNcpJgyAnN9AbHvKQc1drrfFAeBdXHLNIMx61Xm/dpio0+f5dN72ko+vJQJzCb9zJmL3IBlriWAujhzyVCVszFoEfcQSuj0DEE13yqME2QqelkHu+WboMNKjQ9hhx0rZ+Qrxq0RZy84nrCXDUHbtObcMZEWg9oOKKCgOA5JIapJYuaJBZokARK4HbT0IVcY1ob8bh3ciCwpc8W66QvloJ+u/bdFN9LEzW/dalGz6BrSp5oh+WpgzyX2ffdzEExxChcsgaG4F55VH40FYrwBK+2HQVSaR/oQClm3+RUnxGBFQge5ytR1FQfpMEWx7ury/RQ5uuLXAlCvsF6WfGUvG0IpQVtobEMcBDJdogoM+bKZD8qq9NF1yzPNHkEAKfPEZLWiyxKUg3Rd/8zon0vZ58MvffS3P/57L17IJ476mwvr6tqCGs4eB9XfYmmJqsPIciGTGJPkuYXNcLSgvbefOigdPqanth3gIBdvtNkshRU1ykE6DA/b/y0PC4B6U/M54+zPPq4Svx4+s4culFLZvFJtl4Lwk2ptBd3fIAdZa0Ob46SkDNV036fNQelM5uO/+wknDf3yR37thz960MKWgbNQ4Rfka+pVDqrmjYZz2Yn0ojOwUL6RUdoPgyj1d/Rxflx1QfCJcpsgRhzjvxOsWi3TLC5vgvGb4OmgCzHWG02y5e8Zi6NAlR0Qr6zlfxG0tXIp1QaikRSsUROQYFOJGj1LHyMB0xVETslJmS/TTd9sDtJ1vVDYmXh1kqWhz37+iz9/+L8tbpB9YTUxw8aDyarpUQ6q5o2GCAa58VNHkmIv5uKWgnOfc/fZCHWl4bl7o83uAtMSjFMpk3ayCwcB8ZmOcyrfXhbBKAEQwDLhueunQlurjFJtt4KAqryzqGzwSfMuCDexllI6v21XkLKdvdtSHAeZyh8cHq68u/rDH/04l9tqU3MO18zIjphvIn27YC+VndX1JgdRRyPveWUb72Ki1ohU+YMCYmAeCLbiXzi3qNoRC9sih4MWBJJPhRUpjZmWdWugTjeAxFwpWUvMG6jKdzG77jaCWGVV2lp5lGormmkWBBeniybQXtbPpUbP0gcSzPEF1aQnvNFm8yQcBO1u6ycTVzqWCDwolqXDqFJafN30MgrTbFffm4dpzWUYwTrIeRpl07eSg2K+i5tRMWqvkr+fNiL6Yo6AGoXhWd5o13fLKoxTIdMaU2CTvEsLfqYcHQ/dNzxfvDcaMtlvX+ifK/C3z8wsL1IPMjNcCFXzHCQ/1IftWLUYxWBa4/tFgR400f6kXDxyb8d8152ElO3MXZbyioNIoH30BnPoE0yMXMvaL0WMZAOzcH+PnLYqOEgZH1TQVnY3VG84lnkHO9dvsL13PdQAGw7EBq7n17fNixp78wsEscFrafMmEW/AUGQ6SeKh7esRJXIRwbrh4YxaVhwGVfVGm4gprAiUUa2h3DkIDoMGp0l7nURMO6uyNwX3YH2T6dAKcdiTqxXkhkRmZJLMXjxEjXOQDls/38WMRm7AHEW1bSbSpxyZg6seyrsazsjsqvrYo5I6EC8myCuc5KRsZ+6ulIccRN6Inl/JDJlh+46wDvsm4WSa3qNhoIU9muQsFgqqdzqechCdM10iCc1mMudi0CLSWDLnP6lyLna4lpG/ovtCRhPuhZO6pHxB9xdV59v2cJDlciaXKpyX1OyBcLw75fJvFown5/lXZSq0teRJoTB/PSK38LhRys+LlWPtOjOncjnJVYzQI0nwejV9LMV0/WB7BGQqSZnJ3kVJbznIAKryfOPhVmg26bfmNHLJKO4nr5curBdY76kNbNdyED3UEPwCdsPYVHFvfi7pB47uv5SaenBEBrJ8EcHZj/k6C/oiiLGY/1JqKnog27AoOMg8nKphvlVYEacM2yaaljeByQirRZ/TG83kMpL0FRy0scbgGZzJhFck7VVoa0l0Vfv0SFtKDZjdMRYbmNlyhoAT2BdSg9ZIHifDOBTdz0vetUIqraaPpZiuW1ELtQW1sCXPePoMcNAZR6i16oE3ug2vQ3W1n/paAd5oNi6uPgmYu+UIwF3l6qTc8qrbKxA5qL348tJr8EbzBer51joOqs0bXY9umLdpBODSRtXdcdM1dVoAclAHEYf9has3umF9WsZBNXqjG1YUC9aPAKxMa9gd1y/c4xLIQZ3rABryV9Ub3aBGreIgdUhOg4phsaYRSJj/oklswPFSkaZFey8AOcj7PmiRBq3ioBapg2KaRaBSLpbyB8VoJDNAXz6XiajCTZqty8vyyEFeot/SupGDWgqn58Lg6JAGBEykFqtdbPJc5cYU6CgHfe0/9/CvbQhs/cGrRgBL6EnbqsDu6yAC/5r+yCtGh345/qt/tzn1Xbeqr73Dvda3MS7wqlRHOehjVzJ8lJcQ9IVfEQFEoBEEkINqJVDkIKRgRKAdCCAH1cpBn/xGFv8QAUSg5QggB9XKQZgPEUAEEAEBgY76g4S68SsigAggAshBOAYQAUTASwSQg7xEH+tGBBAB5CAcA4gAIuAlAshBXqKPdSMCiAByEI4BRAAR8BIB5CAv0ce6EQFEADkIxwAigAh4iQBykJfoY92IACKAHIRjABFABLxEADnIS/SxbkQAEUAOwjGACCACXiKAHOQl+lg3IoAIIAfhGEAEEAEvEUAO8hJ9rBsRQASQg3AMIAKIgJcIIAd5iT7WjQggAshBOAYQAUTASwSQg7xEH+tGBBAB5CAcA4gAIuAlAshBXqKPdSMCiAByEI4BRAARaByBlJYw/sW0RDjXoJCzwUGnJ+srucBMwj/B/COTwbj/Ump0eSuaflZ2tC4yx+QMyNJzO0Yh+FfYpXmcD2kpR30deLC7NUz0iQcfVjpQm11FpRi+TAAcvLnnxNnORlOV6FtxMuaubOXJk8rGnST5Op1dferIiw/OBgL5u0YfBTej6pF1uJbxj8V8F1KLdVJJ93NQpbSqpUjjnXTAPBm6cyz0Zu9xUC0DRQChNV/XrH+AOxOpKrGyGwySzhq+e2Lk3RmFbhpdq1oYM3iCwMn8FdJlfW/tqqu3p+pB7UidTfJLl3NQsRC4YLNP/+X0lJbXVgrGXz68lB65ZEy5gZgTF8pBk+l5mt8sxfz/kWkkzzd+xjw0M980poVAfPSu4ydaSoJ1mx8dhC4SKAaWD9pckUN8Peug8oM0mS3G0rfpqucDsw56VoxomZHJGmjaAbDHDx5nB8g8kQg9dlPkA7kOKuTPw87Lf21rvahYJp6eRO+mR++K3Ew5aDqXcgNW8Rud+RvfwSrkNvH44WYfGSjJeZe5qgnxLSpay4zaoqrOmBiY7buOg4S9c+thBWQatyaP/EGVvSAloPjIvWIDwPQWBz2/fdVYD14t1OCRaQCtFhWpbUZtUWVnSwxYWrdx0NPCecPRcf7B8zYBCsh0GQdV1m+ZvvTYkNYIAem63lMc9DR/zvCqjK4pFoNtGj51il2/ZWyNG1t71lnXWcsOltZlHFS+nzL2zplI20YWINNdHLS7PWI6oZsYzb3EQZ55o+sydNEbXVfhrs8MltZdHNSJvTMg0zoOehSLz7zx93/6uT87/yef+5uv/O1Pftr60w5QOtbM+rCHOMjNG13e3V9cJr75Pjg67LuQPLdcSJ06rRqONszwgkppPbppOfV9wfjQbFbbfuEsput8QVkOXdcd3miaD3pTME5e5ulRREsPwflD34Xk6N29Q25mht1oIAXebqceFCgIC7AzlLd3wnNJK7Cj70JiZCkv9TDy2r5IreVGLwO2wfjQ3Naq4Je0Dw3twxM4wxWabOhTPFhcTg9NgsxAjCqzK0Ve5/Q5PdIWkv3jRkUz299bNvcK8eD7dkuFFJ29VP5m+d65HFkgkv0LO4esuCpOUoJVYCZB1RuL+S+nw2tHZd1qQos4aO6b//jhlz4q/F36ymusqk2nS4szBspjTa0Pe4eD1N7o9bfpjhUGPWMGE5mIGK7AmP3xfsgI+XEWHL7j3PwyBZW9q5xROSuyizMy+dNPW6XXchsMDVGOC8RG7pVsMWyKWpSQoby6bJ5yMuCY4QJj8cCKKMrWtlLSrtNTV1slcuSXDD9h1KqDg8ruUSbDy/uczRtNs/V5usOeEfumc6lcbtBoiPpMHUCmsVosWCR0i4/kgl+3t4ZMfALJ8DY81HXdhYPUw8l/fWe1hTGK/3RjSWAf6+t06DKjbJNJiCiZ2TaC3BqU1iscVKENmc07vdHmT/4rmXB0b+OglD8o5dM7oTfBckQHNozIuVz4tZhvLD68tBVNG6W297VlKwgrPromVGUVNKM6ZT1C7SEeSoi/2lbE/QIyr2VJzMF4IhAxm3C0vpIdgfNQLhAB9no+xcBYvWE03A4LIIuzCPCI/82s9uiIQHRwtB7dHKZrrkQowRCKPWmnQ4ZHcnCBQpR6VAi9DsBezG5YbTl9ZsgsrVIPZvq22RHk/2zorK2J70Jyija2lN/e17T0oLm0CUi8n4BeOngj7ptIhR+ekL55Vlxc3k7plPd9qthCIGX5fqKyM2qsnc/d573R9XJQpUiGk0Fb/iub8w+LFOSV3Og0eT5w0cSt6XXQycnJwMuDFuk4E//zs3WrX5pKWBA0F5FMTZcyumMODMjWyZbeLpRv5elMwvXYIvLtjGz3VL49a7Y3tcjFEoHZj5HJfOaxY/H/JDdkbugmNlc5w4SC6h7ZMPcFrHECPmBFAuAgMxDzOZdsx4VRI9BRsC7KMtIABWAodlFQfi/TTwZA/Px9cU2on+5PGfFWwsYNtCWlHFxc1q6Z5iQJVYeCQjMpCuW1jBFaEeu/ms9z2BoZjvdD1IzFIB0QG/ON8+svo5y1NpQeVtAjAgVDqfbOhLjr2YtZGg69fSDMXXqlpM0BcQea5qB/+/fvOHmHffLVmTdg1DX3CStMn2LEW23mVsgOTukNDmrQGw0bhMB7bF/YZn/uvjhazHzgPojxYxoKKnpEB/uH2Gi2UssdIBgnyFRcPaH2E+AXVjCxSyqiO1bWhql7qP/GHqcQfAED5nYc1uhiuQxK6Hoi6zcn/Fv79kMjBQWFZpq5wFElkjsjA4a9UC+IVQQxA/IyY9kzA9YFgVClcu8MGRyf0okZFlO+2bxzI0lEWBo2z0Fvfv0bLOM401/4YsChdUMPoDNksBKBVq/UxEHKOOl9t42eFO6GWtNcITdvtJtkwJC/HgFmr5gYiUAIAvBzNgYFFRyknlGJSOgvwThB5mRWvn4GGpU3QXRwgMeafU5B4FmMRU2GEmirKgWOAgcUUFBoplEfVCShTluf53T1GtxctR9a6Kkcz+DT4XagRnkJKTNy5d5oJoMzKTUK+lCyMLQEwOq16XXQN/5hzsk77JO/GBu3am0qAWbgu1aQyik/2YXrGuQixZRx1cWnWgc1drovhVuqjeQhWJdzG1ivMu/XFht9+iyf3tNW8uGlTGA26WfOXOQGLHMtQTuKM5eMfRxnY9Ai7iGU0OkZgmK+taxIME6QqehlHeyWb4IOKzV+QMOOlTPyFePWiLMXHE/Yy4ZAJWnNuWMiLQa1HVBAQaGZBkpUk8TMEws0SQIkcDto6UOuMKwNeacPuBFZUmaKUV5Q/MpkZJIyo9igpyIquEhxaALfZYzgqkkaJ/1O9D7LOM70N+cXqsqqLQNdQ/pUMyQvBfZcYt/T5/WavSlcBjdfrcs3GKaOsU7OMlzKiT/BFKdwwZLsxb3wrPpoLBDjDRgUc9gPU7M0j/QhFLJu8ytOiGEICh3kKlPXVRxkrdRYdzUE2lmX1IhuUK/TFSg+YS8bQilBW2hsQxwEMl2iCgz5slEHZVX66LrlmWaPIICUeWKCVsD+SHnCCBm5T5l61Mr4tRtXyu6IpjlI1/VP/P6nnNRjPnnpV17O/+IXQt2NfoV1tSqogZd79jiI16/hb+7DSNd1y4VMYkyS5xY2w9GC9t5+6qB0+Jie2naAg1y80WbTFVbUKAfpMDxs/7fctQH1puZzxtmffVwlfj18Zq95oJTK5pVquxSEn9wWCwQrmZFDWZU+pBysDW2Ok5KyNRLd985WNjEhU49a36WcfVAoFrMmg1Zw0I9X3lVx0LduLTuqbvwBOAsVfjhecK9yUDVvNJzLTqQXnYGF8o2M0n4YRKm/o4/z46oLwozKbYIYccx6RLAitUyzuLwJxm+Cp4MuxFhvNMmWv2fcQghU2QHxyloGI2hr5VKq7UIWNWoCEmwqUaNn6WMkYLqCdY2clKGM+6+Qy/kp5aDr5qJSBReRAvu1VnCQruvvrv7kk5/6Q5aJhn5n+G3tO06Fm3piX1hNzLDxYDKhPcpB1bzREMEgN37qSFLsxVy2hHDuw8eMKA2vlhkVTEsYpkqZtJNdOAiIz3ScU/n2sghGCYAAlgnPXT8V2lpllGq7FQRU5Z1FZYNPmndBuIm1lLKiDc1tu4KUafYGvNFmSRkHpcwX1AnHl7Ziuq5Du5o/F2PFrry7uvDW4jevL/zX999hn7cwfbhmRnbEfBPp2wV7qeysojc5CAaK8vWXLiZqjUiVPyggBuYBqlb8C+cWVTtiYVvk5mBSrSyUxkyVcWugTjeAxFwpWUvMG6jKdzG77jaCoPXGZzWbV6rtWhBcnC6aQHtZP1et6yBd15njC6qJwt9MoXOZhzg8mC8yDtLBI646kdCfULeAr7UcxOjVviQTVzqWCDwolqXDqFJafF2+GqTc1ADWip15+5rqkAzeaMUwIvlhHeTse5u+lRwU813cjIpRe5X8/bQR0RdzBNQoDM/yRru+W1ZhnAqZFhZgk7xLC36mQz8eum8McefJNMlov32hf67A3z4z5bxIPcjMcCFUKsaEeqv7pOWH+rAdqxajGExrfL8o0LP0sRKUi0fu7ZjvupOQMhOtI/+VCqsrRhF8AoH4qOPii368GzQDQcn5TIv2YlaLO5IoR28whz7BxMi1rP1SxEg2MAv390gLhaU+vLtDGR9U0FZ2N1RvOJZSfkfaTCqB7b38UIOqATYciA1cz69vmxc19uaNCNfBa2nzJhFvwFBkOknioe3rESVyEcG64eGMWlYYXlVvtKmpwopAGdUayp2D4DBocJqMECcRU5Aqe1NwD9Y3mQ6tEIc9uUlAbkhkRibJ7MVD1DgHwUok5ruY0cgNmKOots1E+pQjVsSw8q6GMzK7qj60obZn+mKCvBRRTsrKe8W2FGZ689V4X4w5Gxmcy0XM2z8HxYh5B2UsFbppWnFXchDh7fxKZsgM23cedVtPJtP0Hg2DJezRxINYJrJRDYqnHETnTJdIQrOZTN8zjYqROR8WwLyB2WZP38tpAWglLmQ04V44qcsuyABM9xeuMyrJ3h4OslzO5FKF85Karefx7pRxa4mFyE6PJ+f5N7QrtLXkSaEwfz2yrk2BfH5erBxr15k51cLcTIwnQ48kwevV9LEU0/WD7RGQqSDlKpFcVBYssWvlIF0/fLg5AK9tgLYbdjeeDD9+AU1QmxvTCGnSo/cosrpUnm883ArNJv3WnEYuGcX95PXShfUCf+MOCnYtB9HFreAXgGbxn8W9+bmkHzi6/1Jq6gF5W4IiuIazH/N1FvabFi6lpqIHsg2LgoPMwynFfMtqCUOQN0g5rzHlqqyD7NWiz+mNZsQYSfoKDtpYY/AMzmTCK5L2KrS1JHIYWk9p4vRIW0oNmN0xFhuY2XKGgBPYF1KD1kgeJ8M4FN3PS961QqRW04dVAdxzqqAWd1+1LamuvRgUKx4sLqUG4bKx8UIS+gIZaEJXcxA08wPxCd5o9xeMNwSFq/3UJxGGOxsXV58EzN1yBOCusoKUa9w7t1yt5gWegXVQ843oGgk1eKMbb0vrOKg2b3TjmmLJBhCAIyr57hhOCeW/NlBdB4sgB3UQ7Jq80Q3r0zIO6t4ZtWHsznxBWJkqdse1RHKd2TYiB3Wua+hAqeqNblCjVnGQOiSnQcWwWNMIJMx/Iyw2wL3wwBJLGUrhq7ayndEEctAZ7Zj61WoVB9VfM5ZoCwKVcrGUPyhGIxl6LDWRiajCTdqiQIeEIgd1COj2V4Mc1H6MO1kDHB3S4/CJ1GK1i02d1K6FdXWUg+793wn+tQ2BnVemjKiNr221rQrsvg4i8GBz8BUzDCf+sau5f/55B6tuzk7rpaeOctDHrmS4GCeIucKHiAAi0BsIfPlf6n7JD3KQS6Q1/oQIIAL1IdAFHPRLrybxDxFABHoVgbPOQfVuFDE/IoAI9DwCHd2L9Tya2EBEABGoFwHkoHoRw/yIACLQSgSQg1qJJspCBBCBehFADqoXMcyPCCACrUQAOaiVaKIsRAARqJLbCC4AAAAgSURBVBcB5KB6EcP8iAAi0EoEkINaiSbKQgQQgXoR+H9xmLyQt9XRigAAAABJRU5ErkJggg==;" vertex="1" parent="1">
          <mxGeometry x="764.66" y="248.32999999999998" width="160" height="44.47" as="geometry" />
        </mxCell>
        <mxCell id="urtNTClgw5RGaUremrSD-24" value="" style="shape=image;verticalLabelPosition=bottom;labelBackgroundColor=default;verticalAlign=top;aspect=fixed;imageAspect=0;image=data:image/png,iVBORw0KGgoAAAANSUhEUgAAAXMAAAAnCAIAAABysD+QAAAQgElEQVR4Ae1db2gjxxXvV330N3+LIFBi6Bd/CHFbSk0LATdQTP8eKQVBS0G4NcLBtc0dRtfjittLa5G6xtdL4sMEYlPabLleEflQcXAYgwk1hxNj/TmtfJIl5L+yT6c7Y7FldubNn92ZXa0kR3Kyxlij3Xlv3ryd95s3b96sv2J0+ic+nwyEJb+9E+mhO4V48bwBAc9L26XoXLZ/IsVYjaX6Z3Kx9Uqt3gCD+out9cLkbCY4xiTpGU8NzOYXH1eB/iQ2ze6yhmTCo7vze0D4uX/u7w4iqVKRR410vn3i1SuxG0hF/R8c1Ny51hPvmc/r5m4JVa5v3csgvU3n1565E/s1ulwDX+m4fCpkoabbd7tcUhpI/XizMDzuaPCj6fDqqUM3j7edOeTihPjSIEvpvmmikZ2EUm8O+mjh1noOnhpVmppbfT8SQQ9u8P5Ts9JeCDA6tK6m8u9cEg10DbJM6AurZQ1+l7Wd4RvMAemd3zuWKLS2tmKaEB6RkfTQXB6YlGJL+oA5cPFY77u7L+NgHK/nemFA91zXJ7USkSGeD82ke0aSgTA1khdb/2MSkmofYAFSofu2W9vYYCRyX/Clo+gUsti+laMLbsjG3ovPUnuoo0czoi8TD+VL47M8r8S13NAEHVc2NX4hLnQNskwXsjaF1h7vDpHlid2xr29pACsjqSsJ6arnvPQoPzhKPJoBrWJt4dleCKPPSCa6SVc9XK2zE+1OIcFdsBbJLJ2OFax3Ovb90U4PwsrMwn7HRGig4acLN9Fz6Xmvq6VsoCOeq2S1tDnb+cjiWXXeCMhqSIYsiBGxk2TgnbKwdN/cIb7GSGbmsWMsplIOUXjaFJYHtQdZ7NGAQ+5NclS765DlxfI7JpJa1OW9ZxdL8Tjfh+AvHX18se10IXcfWT6nh+KCLMZhdMI0lcjOGpOIhjxSoXUBcFgVvpTG4zgZIMFCcg+ecQseR7chy7PSsLm4C60LGMoroxvKGx+aS13VdNINIl6YDDDqvvQ+Sz5f0HM7F6Znww1ZXizP4uUM9ySoIzNbkkZPbNLCTB5ORdPsJjzjVGSTXfRW6jJk6Vjs1pPWrLFbT8SXvjKMOm48X/o+STrgFGe59afYq1//1ksvv/LSy6/0fa1/6up0udz+ndQmkGXtLg7uCjAh6Rx/CcAo+OEhu0xwIdkzV24MoRgpKXUXsjjFbmv7h4sr+tC1lBmWNmMc45nhlXL2zNYpA1xCvHFer24kdoauQUA9gjbjNXk2gEhoZ2xescVuST2FyYk8z07imj4Au4E945nQ/YNjwT+js0gWYsN2OYiiLD6sYRi14l5sniUf9Iynh5ZKGxWhAcxOlPY8u14I3QDdRlID87trFioYbHgBLv6VoUzlaHFFH5gAnuEkEWZfvvYX5EHxwUwvjjDOFP6CF8jh7KIypg8ZACygbleatytyZHn69OmPfvozjCn834FvDn762Za3FtxquyELrIauFaDhysw1+/rIrZl6mWxqzhTN7Amzfv0gAgkswbmSzMbc2HYVsqhjtxv/xFFD7P2Jf8dyceumPGfMp4dRM0VFtATEYfCeLSJugSS58pSxW8E2GC0nTKUcBkwR5Lle2OJsnyBXODn0sSwqbxgGifJYKohbjbBjiBoaSYVXrayYtPWqdhtgV6DKxJ5wYnlAltqalg2ifUn57+DKoX0iZPI82xO0NF3IQtPKeGJ9L2Q218aAuhxZfhN5iwcUvvzG93/AHno7Si7IApHanrsH0BokPsyWGgixABEd9EK8xjCeFAboI4xkwg+le0yUia3QRchSJ5qUqQXfCt7MxRIHW0fV0lG1pO9F3wZ7sIZ7qTEXYteRXQ0u7SZ0k6p4qK3QQW8PclFCtW9bKPQjg5H4m8w2BDUDz7k82k0fTYfjuAsnG6t52DoUt9hhtRXgZxGOJ/F5hfm5Fgd0CL6d17ZPkIqOTjYSO4MEy9LRNAcThgHS6tEPEWr33yEqym6Xo38ExU7lYTo0jLPnJs/qmlk/ENaX8YNAf59zI5lJEhjPTJLOVkvFQ03T+9UbnVSeyN1UYCwbe/QU8XxeWVwpZqlCxDgjVQlgcTsD6hJk2fz0Mx5K7OV/fPQvKlPrBSdkYds6XJCVDE2vSa6nyEjQmLZ5nuXSFX4mHM9MPjzhnrRjF7sHWZ6Vr5gQeeXhC7vE8b/nZOuXGsSwLH4yGPNIMiDdeqNwPLazJpgbEKrzj7dWTO+JNzkQF2zD8oCAZzgZsLtXp2WSNyCmBcJ6Wbb1DmbGz8+1T3BaU+rKA6v/ZpwdTpr5QZalE0iLUNK2jVDT5jC42LMlKCRZukm0UFvPmUkDyd53SpIE0dPDKBnGVhRg8oyKvpLJmKg9zNkRqN0wIJSpwB1W0UtJgizvvn/Xjib8lbd+O+WlCZe6MmQ5Pz6qxFUI3SSyQKjYjiwos7xq9T/HszFphoulN12DLE3GbsFPDn/Cd4wZ8/ADOcaS5sJJcRMKCFXIAlYtdcvBNiwmBzwVhxXINpPFCYL1jqQhsmbkLZOEXXqZX8xrw4ApPRMrsusgrSIlJ50PmmsZIa5nUgOhpZuYMwSArJDN2jVg/PPIaDAfSiEPOfCR7NdOOF5m8ag4ZIoq0ZW1qofvEmT5w60/8zhiL4d+8SsPLbhVJchi9k26sLSuKkGzHg/mVBdnFD4LlfDsRFvK8OtbVeYupeiafBan2C2T1l4CZYoJ9WDMoiMgUMP2tmg5QKhAFlXsFnNWmBzwnMhvCBLAFwBHeRes8zDEd/nrRAmSBRppQ6YlkFZFBWt2myqAUIYs0JCjkYOLIa7rga1qo5OEtwI2b5FMEsLaEHTbwqcEWd6/u2RHE/7K+MTVFlq0kjogS+8NmQ8PYzogCyhYubPvMEBZJJjdE0oors7inYqDBUDRks8CItlR1Wuix2Zjebdnz0v6gbZaii3lwrOZILfvIDdLJw1DHF2wHOiRcBF0ZRBwt0y29DbYhsXkgOdcmdYUCmCNYhcM8KpE/x/WjILprprnDOxPwXZl4B5bK4G0uiasB6loILZNFUBo6aZJSCRJzzyhfCQF4CCsYaUXeWLwvHhnzTAg/qh6KDwHT2UJsmwnUzyO2Mv3/v0fT204VybIIpwb2tsoVo/PVHQH+CRbQDWJSeno3pCTtTBK/mBBaF0SuSBVuwJZYMtQEbBEolYOYrMMLu2+oWiWSqtgCoIRKXqOjoT0BLYiewhsw2JyjjwNg64OxC4YBsxA/PkpknUtzs/QrnwjhtcVv5QAKou0VENKsR0I4ZbDfrnJXzbqgFYlj2HAUpRXCGyTWeCG9qL5ggRZDMMYn7xqBxR85Yc/ebP51mSUsjiLrB67Bt6gp9xwyGfhpx3GUlqimbsOFit7xlJmF3gR5mFp7Ba1SwOuKCciM3xnJ5Yoa58cZo+qx4/xTk1SNEulVXC9kNaRXiREDrFbXENhG048EaHCZ0GBSZzHwfx/+YY3tJtdKJj7X2zLxvr1+DnzT4BKZclKsR0I4ZbKDwL1y0Yd0KrkQdFE8toKbkomUSqmImii5U85stTr9Z+HfmkHl+++/kY2q7fcqMDAO7LQiJoiWCWwx19gkHk7pwcOvzToixnLnrGk/Yu85Ba7hQX2mL5oT2+Tm6XSKrh+kDgClw3AXGvRkTGJYMIUliEcOy4GabENN2HkXTBZW4K1xGmyzs+lj/HxMZc1iCisyxYPXWXYVeEAAQ1KAhwE1wYuWrQnSk0C2xCLaeChiPQevsmRBTNY+Nu733n9exhfXvvGt38/c6v6rP3v5GkCWQyW4WbNMpB3HZJirMca5bXpVRjTXY0sbrHb4u6AGS+QmzQJ0Ch8FodwD+x9DD/gl4qgMVtwwTl2izWusA0lT/KcHJAFLAeHmQl/+/wMSlBm1tERwRUU0tIaSrGdCEGr8odFeIPPzrkealym8uACeG14Fwwjr7g2tBA0/dUJWTDTSqVyeKTMCm66YUrYDLIYxvGqjrf9A2P6cpn5qJQtKzwpknyqkYy3dx3AuAw4GFjHfRY4NKzsmoPhUfcYbR4zhbH5NqwCbpqvIQQRGaEVWcBntF7nG1V5AUoTJcROHTTIEgwZIYFgidHSBz2V33AcSry4TgCB6inFdiSEGKKDJNBfIVzCdp0dfRbDIG4R2vUjqZVtj91iLbkjC6/Niyg3hyyGUYvPQ6bjaDosz207zz7M9ZEUW3s6kxH/IBtVvc6yXtWAPx+3s2qgw8gCK2d+D9UiIvgs9gHEv/VKgSzJwNROgu2HYNb10gMdv8LClgCiMCcau3V8e6bC5BQ8aTfB0sQuwG3w/6MPzIiSfH6ub5C82GTvfFk8hYT5oIE0I6T8qHAQ2nVHFvl2NSyI3DLlIromPheF9qg8UCBRuVRkHadWSnL5oGpLn5cXWVB6m3BeYywzvFRYJm+l243OZfvYO+VSQx/bD7lA7txIMnhDD6/swhvtxPfRiWdSrMruLLK4xm6RuGCZ4WTf7dJGEaf2HyyYO+v9c7qZa6/wWaYz6OgDS6ivotR1eibAnhFL2xJ9E9fYLdaqwjZAfpEnexDOyGIQ/79/Gm2N2eGV8KkfTNI87Ak9uorC2ygZH+XU54bM93hYkEshLZVLLTYsvgJTOQ2dmThJaEXuDSHclKnM7pdMk27yUMHIbBScUiZD06qtFC4zsqB+o8mEHqbgNwhZeUKPbcsTSYm7ZEtboLTBt3e3lJvfpto7iiycZ+s4Bri9Idq1QNicn5+47A0dr+f41EFGPp7TLGd5kQhScyIevmQZIkqtsA0pT47SBVnA/0dPWe4mEF6n+5MOb1AfzSyIrw1USEsFcxD7BA6a0H1ucQlTP9Vuq1MERjNR2Xh2k4cKZhgU2thLiLm7bSpedmQx1VCvbqwWwjNp/s37+NX/2rZ5LkuhrNppJRHP45wxcuQ8nAyMpoITmeGV3cQTPjapYNFJZCGzsWW9LRe0crAwnwmCE9d7LUvORsnNUrAK/GIBop+RZPBadjJxJFsyKJCl4TChwjYEYSS9k3eBqwienT39lKuEi+RlCGww4P8AsSrpr0JaytJRbJTtDT71SLJvZteeXozUfifbTz2p0VTwhh5NHJYUU52bPFQww4CQE/cSYv5ue8qdR5b29ONLyAVitxfwwkdHq/CmaojdWo9Te+Pi126nBuqH+B3sHrdKvYngI4s3fXVN7QZit83L2j5kaSx227ykPqV3DUCa/0XFbrFEPrJ4fzLdQAEevjLvtiUh24YsDcZuWxLWJ/amAThObc/r8cbHpbaPLC4K6s7bZNpxOIvcktztQhZ1CklL4vnEzWvgGP5fher9GM2zFil9ZBH14X9DGmgXsvja7BINnB/jHfSVLPlfOtd37f/eq72y+sjSXn1+Mbj5yPLFeI7QC7KDCZvckuxHqNm+z44hy5t3dv3fbtXAzqt4f3pS71YJ/cHjRQO3IDvm16mv/k7/saPp/fW/7TnK0zFkee0m/e/iAKXqjDWWoOXX8TXga+AiNeAji49HvgZ8DbRfA5ceWa5+tO//+hrwNdBtGrj0yNK+UJHPydeAr4Gu00DH4ixdpwlfIF8DvgbapwEfWdqnS5+TrwFfA6ABH1lAE/6nrwFfA+3TgI8s7dOlz8nXgK8B0ICPLKAJ/9PXgK+B9mng/0XKY9Sr/v6CAAAAAElFTkSuQmCC;" vertex="1" parent="1">
          <mxGeometry x="760" y="640" width="114.38" height="12.02" as="geometry" />
        </mxCell>
        <mxCell id="urtNTClgw5RGaUremrSD-25" value="" style="shape=image;verticalLabelPosition=bottom;labelBackgroundColor=default;verticalAlign=top;aspect=fixed;imageAspect=0;image=data:image/png,iVBORw0KGgoAAAANSUhEUgAAAf8AAAA+CAIAAACqUIVMAAATRElEQVR4Ae1dTWgcyRXOdU6Jb76EDCSH6LZiD9HRh4VEhIAhITE5KSRsmEzQakWE7GCMNkYgwoIG4wgZsWhjFmxlw6aJ15thCQgTryIQywrFifD8aGZk/Qyj35Esj208dKiuevXXVT2/VkuaZ4SnurvqVdVXVV+9fvWq+msu/kMEEAFEABHoPAS+1nlVxhojAogAIoAIuMj+2AkQAUQAEehEBJD9O7HVsc6IACKACCD7Yx9ABBABRKATEUD278RWxzojAogAIoDsj30AEUAEEIFORADZvxNbHeuMCCACiACyP/YBRAARQAQ6EQFk/05sdawzIoAIIALI/tgHEAFEABHoRASQ/Tux1bHOiAAigAgg+2MfQAQQAUSgExFA9u/EVsc6IwKIACKA7I99ABFABBCBTkQA2b8TWx3rjAiceQRyTiYSS0VimcT6ma9rkxUMmf2TEymvhXz/96ejw9mLU2uTS+VKNbBu6+vdpI0D/rTm3+rzInc7B4Fy6UMWOUB+30K9MWUhcu5WEHilJrbqKOpri7K9cYGUJD2wFNwS7S5AtZy4Tpq1+6OdSm3Z1dkP0gTh0Y0iiVxdvpcll9fW5p/VTowxQkGgeN9ro4HVWXvP2l8oROOpyFBuukESR/av2aYnlf058cVSkf7MJWdn39Y/kP1rNnJrEeoZoq3lYEm9UID5spC0RBG3q9sDA2SquHD/qXdTTNswPYu4GDoZCDydHCVNdu6DbXt5DhLXmGInK0z2+OIJsr/AwhI6Gew/nJ+cKznS311ntW8sc76fNTxhgaH83ZJpBgD2v/CRIkGStr2saH/N6P7RmxuSQCWjRdZ1ny5K5aeRJ2962mgse9n3aPbJC94iTPf3gSByfEwZjac4zsDeyBXSCl0ze8eZK8mrEd2/8jBPOkk8f5e1dcfo/s/LSafQO1zHBHnc7Vcrv5W1LqLkZUZWgmKi7h+ETmvPTgb7X1vPGatRfbG8sHZxCOaAwULy0BcP2L9uFa8Z9m9U76ClBO2jxshk7G8DwVfjY72xtHqODNHsZIB+dqwFMmZWjxZpTHjqb9bZx05ePTVLXfsLCMhoht/2Z3R6JZ5s9qe4vtwbew8mgPHivgY2sr8GSDsvX9y94SF/o1SH5b2dGTcmqz4tsjGZpyQ2cFwNDePE1eZZ6VKcdK1LD8VLcHsLCcgg+1txPQ3s77ru4VbfIJ0A0gOPVPsPsr+1cVt+8Kx40VuA6VtQMW9ZcHsFLN7xLGwn8+WpvVX1SQOOO2XsX3mQ8yx1heRr61mADLK/r9PAjSD2z2ZX7n362d+cvy/95xHEb/Nv/UYPZtiNpSKaAwyyf5vbRIgLbb1XFKGOkL7eW0eSMxQFOO50sf9xWOoAGWR/a3c3s38qnen75dvf+vZ3+d+PLv7kwb8eWsU0+6B+9ndhkEcGVufl7JD9ZTTaGQ5a761s707P5Huvps957+/Ec2Moe3GmlHtpKAGMQ8pQ1f2V4mW+pB9PRa/nRx4emCxL4O+hzfdqDr71XvZYzZSnUWW+PEg6+R5YWDo3lO27r3mXge0rloP1ZC6KBxhQ4GzK77sulT9MF/9TkYF099jq9MqRFAOCzMGJUpUKUT9J5Wy+gqjer3CIAqOocJMzzQTlvemZfM+w3F6Z3tvFxW1VLOShoPfywJnKMheMsc1/zlA/+vSAXSdkeoNtRddsqaskp4jk6NSWYt1VkIHyid9XuYX1mNqdEgukO0EVkP0FWFrIwP6P/vu/N97s4bwvBz797B9a+hYvG2B/t+rcpB09m9iUskX2l8BoZ9C+3rv4CR3/ft5JRUwr8zAOC0m3Mj/juXgLqgIh1zeWdSOAytTmulm1SClTOaUks1yKAe+Da6lXmPfW5ZLwl87ez02s7bou47KUFmH/8doF2WlNqnL0Vkn3YBYc92rZMUKU7luQpsgG2L8y7+SIy7xUADl8YWZXYVsPLYHesy0FpWvrORhxdk9NAJntvZDxJ75c6s4MeLq50cNKqA5wgQzE5L+HuyPejhC5OjQcvbU1j7u9OFCWgIH9f/zTn8uML4ffeLPn6dN2eh82wv58MleVDuiL6PNjaeLmbldZ04wXJcphouij6GghMbuzvHdU3Dsq5rdG3gcN17dEzKkk4e3Aio6uTi6VSaq9g8U54dN1fkJV+lwgkQDdn7V+eiSjV5Nnqu4VAJk314gna38mlqRVICXpZWtLqnsrf+kc2/T2kekZzX/oVVw4m5IIzE+ReCrnRuZ2cx5KucfFy6MMpa47u4og4LjLd4hBPPr+mvP4wAN2Z/IWzLVyFi+fewAezd+hT/N3aUOQ/59LTVZJ3oJ2GcpeZpU9Km7uOk6+GyanHqesFEYozvmBD9ORwVxi6SmR+bw8PbOZc9mMG7Ht0oLp0LyiW93q86aiiw/U9d5G2b9aToAziNqj1vu8LQJdV2jFUffX2lZc6uz/xdy/Zbr3hz+Y/rNI3XKoKfZPKUQP7O+f/+kdn7NmMx6fNuH6IoQKiIWA1Eiuy0CwqGaRmOlFXpfR7utAl4zkxwXdEEHyr9wdpwpmblrdGwA4pCLxVM8nexI3ecUWw1hb0gemtrP/MrVCXFlb9gEAmWrogcyY6TXlsNTnbRnTeI3xu9HtFeYGRRF+thXzJpLzN4pF/YXm1fxHlK9VJ1pJl/dxcXUZXrZgL5uoraWaLEJloeA57KZMJXHdw90RRqC60z2ITUX6s4kneh34+5DRHYAtwlvmBpulznUbs/zwEpp61JEzAXMenvQgOose0tn/5sSkn/HlO/H+d3UZLVwj+7snkv2bXO8FCot9qfQJPlAjfoddGpEdJqEt6QNT29gfmNfPia7QXm3sbz64gjFXTH2ZAGXWkBGzjynsyeakwdV5nTa92sLM2nNP2r0C0BkWD1zXBeeriO9VDLDVqklhhQUJW0lc1wXlSZm9BHqWjbiAvEn72aGbrjWB0CGsljqI4PuFtyLluB54gbD2KF5CZH8fovyGzv5/fH9c5np/+Be/+jVP3HqgOfZXyAW6r22vr7yr1itwM7q/da9v4C7cwJEpwGMgWPf67hoNDiJ9+0NB671BuUFbKC9ngkrMhOsJfMHeG4bXFkUGNdjfrkUSERbwQaaSkcjSBRZWqwCpdEM2rAkr91nkqGbbEZmANHlWg3x1ewhLBUl8Xq2WanrJoDkMk5YoDCCvOlOAWNXKKlKB7V42RtGnpulQpDOv94rnhpCR/dnNgB7lwhsbWn4MoNJbOvvf/ctf/Ywv3xn5w6hVWOMPGmJ/c3NCF1eHa0BRmmF/n/koQL54BEPIqJeJaA2BIJL5QpCdf32vwQHwqL79vS+fF/M7zlwxcbsQG89GJX8SrS2gYAFuMy4YN2SsgPJklhS1PpoeIzW16Ji12P9mSUiSQ5buxJ1YFA0UtHiFXqsleoyg1VrITXzvbYgt7sBxY0/k0oiwrZMAtjJukGrOO/0ilrHJpPFAgmKvM94Eud4vvA+pxn1YLlKmQ5GODWHLUxFPDgEyMvLQW/KO8e3KSw5VaLDzy1mf9bDO/ltb2zLX+8MPv5hrIya2Pm3KArggrnZ0y3A1SaD3kP3t2JAnoNZZFjlJlPJOYhyWIjmXSQEL+6sNp5YCxqocB1rcyP785FGL36FJoOvWXEm2dSewvcjnHcGWJX64kFclkFCb/WVF3sRxMkK2kWKpJkkKj4ImXRLPlDWklZtDLo7r8rVfeZEfpkN1SoCEYI3RnKPgseXXVDyGhvq+oqWHKiD7a8CIS539XddN3PiTn/TpnXfeHRJJ2xGy9WmDbG4alnubZLjUGMcggd06s+xvr3IjT4IHsOu6T9Z7wH2Q+PhPrSZmS86XxK1lf4Wdtq21BYzDACrhVCXHCWL/gPVeWltLpkEySULgbq0KrgtGHrHCbDFhg4Te+57TjnDF8Zyj5Muy5PRi4ji52WwjxVJNkhQeBSnIJJ4pa0grN4dcHBKG9yExu5inQ0gXbKmDWL5fU/EYGlfX/av9PD1UAdmfQ6IHDOzvuu710TH/BBCLv6Onbvna1qd9gqtg9vFZ+mCw+YarTwa7gexvQ4bcr7XeC95+g/lpbf+RnTphHAZRCesJijZnZ2rQIhWTi1otS6Z2mTR5QHfSLNpMHVHWe4mMvc1e7zWo+xPdjVItoHpl4jg5hm2kWKpJkhY/905TqNvyI29nCxArSgWKAujylumQJQh+KqTqIRMyyVvUvBnUo8A6hOyvI8qvzezvuu7DL+YGfzf81vd/eOGtH7wd++29Tz/jadoYsPVpLYv9hcJ5aljwmyMChqsmhV0i+5tx8e7WWu8Fp2wz7bIFA9UlVyihAeNwd2TYG8+KT4uVqevRIi38ZZXJQAnoTjDl0OVcJl+8CnBUmdNLxN9XeRR/wMRxcizbSLFU00uaWYt6o8bcWEw6rPqqy+BBYkWxVCOhbTqk8ZtY76UJTcjk6Kd7NNcsUTCXvKsx/+OAXqck6MALK/sfDxa2Pi3nvv94jZka4gbXY/uruixDDiP7y2ioYRii8gqbEiOAHPmCQczG/il9ixOI3p/LU7d00CLpAxtTgxHGuB4AMi38ZZMJyYIq6DJzEyFKNk2aiBU4MZYZydgXJSFD9mviODmKbaRYqkmTwjx0ZW3RVhCor7yeIVmNgpRrkofkIMBKYlnRZdDJSx1y9QLCRmRgzdm25u8+4Z/8Q/a3gnuy2f952fGO/iALaPF0TN7pzmsE3RctPxySZgNAW5YBTMSC7u8fdeL9zM7+kXhmYEnf7OWWipfoJlvdLd3C1Hy9N/BLkxZatMjkkAV3J0Y66ZEHHrn4/R2pnAz9bgnZUOaUDbxb2SzFPla/1mnkOF4qvinEx55QTXWDAiQE40+t3V4DeUfae9AA+8Ms2Pv5Fv0KkGk6dPkhXeanrLQN7fYCC2Qs3TfnO4HjcHvA+ySRt/CO7A+9wfd7Mthfd3UvJm7ne0X7kQ2HI499rEErA8PV5u9PvpCleOUz3d/qwj9XkrYI1I7sfFW2lIwvu9VQoJhap4Mgf0FM+zyZrxnbcgPMuGaHDZYFsGcs1XWruLhJj3nYmfQm6e6befqNZW0mBobK9Hg7S7unNmbzXsLNXWeGH0GjnmNDsoO8VB2/5novLSlkqoFvlinwg+6kVQEiMNLpvkZcnvxTIESrzt+Gvab9mUszJQYUOdmCHElGWEmtlHHpFaSRX5vuD9p3KnKl4BBUD2adTekYxEqS73q1nvTgR77erisWiq5kyIe6LNNhPZY6rlhEYvWd8yN5H3RPrCdpj9orJ+kJFvHcCNtTjewv9yMlfDLYX3IW1P3k4qmeKfPJkaweMFz1hLJMZaQxQg+IL3n3144c8aljHGALAfHnLMAGtlxgPXwcPZjpiZYN+qLQ0qiTMTw/UdqH122NOgUOh+qRYbya8XTMr8GZ2Z9ZMwK1SFJYkakounVGEVGgO2lV4BG4Nh0JMjqTcy9mbwc5xV64f8BlkkCzuj+ZI+G4G2gOdcKrHjr8pCAOOA9Y9CoLekqR2QWsctunwxo7M5gceK2sl/1dd39ptQvcz6Du3upRfzax8gqqcBxjx4TLKbh3Qtn/3FC6Z3w1MbdbfG54cVZwheGqND/v3DSA7K9AZrxgWq1m/zVGdcs7kxPZKD0SJ5Y6fzV3mR7RDG2hUSeMQ4+V6KHHcJ7auSHvnGGTecSs+1PHG4uOKZdWyVQ8aFH3d114Q4oY1ntFNjRU2dxKTGSjUNlIfzp6NRdzSov++jbP/uQcaed2ros2RzzVNbYh7ZdmRSIlmcp18zNN+9PkYO3Z3aLpRG773KlX0LuGZRjbec7Bq8FCZEOWH0hW3pu+nesGhL3uxJRF6ADI/oCV7zdk9veVB2+EhACs9wZ/Yru5wsE4VHXSZmQB0Wh7PpoRhWnahQCc7meZDuu01LWrNCinfgSQ/evH6gzHrGO9t4Xat43961vvbaGkmLRxBMD9xmyLAzdZ89PGc8MUbUQA2b+NYJ5aUWDNCFzvbb527WJ/1CKbb4PXlRLexiy2uLrWe19X2VBuDQSQ/WsA1AmP2RCtud7bLBZtYv8AF/tmS4bpWkQAfFstOznY3GB3jmoxe0zeEgLI/i3Bh4nrQaBN7F9PVhjnGBCoVspHxb3ybLLAXG4GC8lnx5AvZtFmBJD92wwoivMjgOzvx+QU3wHPLuZlN5ib9n386xTXrpOKHg77f2+08J3fr+BfhyAQfZeeyZX+Jjb6GUBgOP116kj9m9Q33slEr5yOgfyzWxudROx11TU09g9yz9e89fESEUAEEIHWEED2908IyP5ULcX/EQFE4CwjgOx/Utjf+eoQ/xABRAAROE4E/PTX4XfC0f07HHSsPiKACCACoSOA7B96E2ABEAFEABEIAQFk/xBAxywRAUQAEQgdAWT/0JsAC4AIIAKIQAgIIPuHADpmiQggAohA6Agg+4feBFgARAARQARCQADZPwTQMUtEABFABEJHANk/9CbAAiACiAAiEAICyP4hgI5ZIgKIACIQOgLI/qE3ARYAEUAEEIEQEED2DwF0zBIRQAQQgdARQPYPvQmwAIgAIoAIhIAAsn8IoGOWiAAigAiEjsD/Aebut8VnCTD4AAAAAElFTkSuQmCC;" vertex="1" parent="1">
          <mxGeometry x="760" y="657.77" width="183.22" height="22.23" as="geometry" />
        </mxCell>
        <mxCell id="urtNTClgw5RGaUremrSD-26" value="" style="shape=image;verticalLabelPosition=bottom;labelBackgroundColor=default;verticalAlign=top;aspect=fixed;imageAspect=0;image=data:image/png,iVBORw0KGgoAAAANSUhEUgAAAZwAAAA4CAIAAABG2dkiAAARaklEQVR4Ae1dX2gcxxnP6z36TW8VlJa6Dyl6KBV5CGofCnrTo/MmKAQ2F1xV4MoGYc4Ig+ok1cU4QkZ1bEyopKaYo26K4jQIQzACYTDGRPju5LuTddJxJ0t3kuWLUx1TZme+3ZnZmd37K53WnxG+2b359/1m5rffN983e28R/IcIIAKIQIgQeCtEsqAoiAAigAgQJDWcBIgAIhAqBJDUQjWcKAwigAggqeEcQAQQgVAhgKQWquFEYRABRABJDecAIoAIhAoBJLVQDScKgwggAkhqOAcQAUQgVAggqYVqOFEYRAARQFLDOYAIIAKhQgBJLVTDicIgAogAkhrOAUQAEWg7Anvxi8mIlYxczGfaXndQhd1CaovTNgSW+n/PWHpwNr+4dagTpDTM8k+XdN+K97w54Y6nRToSnr++xJ5Y3VGmC1+t0f6MrC/VjrJZQvZL1rlkJJoa+rYO2WvbIyMUt4GvXtJe1irxCXrZ98WL6tH2GlurG4Ha0o0UnVqXNwvGMrXVu/b0u7ix/MqYSfcFkhohJlJz+OX09WJBXdVATGEmtZczlyk7nLqxrZs6HbyXSaQ5+PU8bB+vn6JPgrUZ1s2VHAxcbrGDfcSqW0BAeQ7pa4IlZiWHV/Q5DHeR1BxSG8vOPCgm4G8+sT40YT9MbNWpZ7pUliAExJshtZePoBWnuZlrrK21856vlp6/llo+sotnG6ep7OnYsyNrEhpqQFN7PX/VVm+vFrle9sZoatXtnZsL2f7JzaM3smCcmvysfpelD55odt5PBUNNrUl4aTGuqemUguqzzcFRe81YqZHHorbWCqlp+gq6SfcoF/UYCBpBjvrW9uYAZV5ldI66F8fSns+8PZb+1N1opy0A1NR8SY2OE7dukhFHF6B3w05qr4pnopTNz3x3THpifUtkdcE2VC9srNaXP0y5TiqpddwCQFILJDWyExuzlbWR9WV3TYSc1Kr3M7aBkFsU1VNX/C5J8aE5Rl/KMQJxQknt0Zy906IzjNoEJpJaMKm9np9iFqhoG4ab1DptILRp9iougjbVelKqOZGkVpeLoMUR6HpSu/vv/0xe+Xji8uTcwpflcqVFcbXFgybHm0dqfgbCYeFpIXYt03eOEX0yEk32TmRj3+3p4ic49XNN6se9xUS23yk4mh6c3VyuaFVBuaB22IjHRcCzwZxWfThynZXdm7czfXzDNNkznjmviAAGeGSqoBPNbowDBdEkbj9r5WeF85PpXjvWJGIle8bWhhOlzI9uDiclb6ceZlbywxOpU7btHxlJ9U+rEEF+wN92ZPk4i6tbpfhspm9M8HrZnVn9QYu8hF51q2iBu2zg3i73yViZm7tO95UEbMUanAB6F0GtEp+kE2ngrrTAQVJRmRCao9MpNzgOclGsWAAWiNBBZVDohpwMiFNb/Pqbd9793U9++gvn7+e//NXnt27LlbThKojUwPwczwsbNyHW1GBeamKIdidZWKO4kCDtcRC7O4+U1IqFMw6dQRHbwk1ZK17SkAlIO8hGFwHMaTOpVZ/lB85qSEEWAUjTvIb5jp6SobY/z33ZnibOrsWfqWGP7tKtHSSuwxKVIFqLP3cJCPJ7KveGm9b2E7MQHCNWyNLR1Jn7+x5oXfSqD3O9jFvt/HQQIVyGhwR6CpNaadguYggDMlgADyEKJyrxF0gq3WRtlp9uaEcwEk1ZKztdGnz79b1vHC5TEtdnb3jBbOVOAKk9We+xB/XUrRdCK+ElNZiXQ/e9LgJb6mhqYDY//7hS2D0o7B6srmwMAVt5vArATXOb1mgycjY9nCg+2qKlCtkXM856i0qL1gYZCpoDj/mMH9t4JIyKnXSXpfwN1PnFxlA0GTmXiT3YyVARKkuLudOweiURwEc0eO9AropdvWBBv5IHCQJKaPTv7OZS1hZ2t7KYyPYxGo1m5mUmgaWbjc1RAnJKZZ4WY1eA40RPyA+szgOuN41vLNsDQVGtCEMm9CRyMRvnwtrI314DtkoNq08UQO/a+shosudKfmn7kJBa9Xkh9u0eAePRFDTLFTFTGFA+30eXUiqWluFslNSe5/vZeEVTA7cB5K2dBAM5mj7NNsG7TVN797e/V7hMvMzm1mVUWrryI7VKcZhbKOl4XmyFr5CIqg6IeVi6rpwwszUPJW+NHb2jNxB4k6XJ60WNDbVfoDRhJSOTW3KAOMgeTUZGcwmPpVleybEHhqmg2QOwG7tAWzy94DWEYFmqQwOdsZKRS/lVV/WxZXvO1psS4w60pVFaHbe4FE2SYUHw0bXYU4/6WeEoKVoMDD1d7R6KqSa40ie1wkbDb94S4lTbP7cjh1japYuFM2xiq3YioBfVoUQIKKfKcmA9go0aLVxOWZGgWbnGzE+nh2uTHrWXuAu2y45JfX3vvyKFedPxq58xNNryv25yHJbFp6uV7E9I1n54QzoMBkIA0DWOoWw+uChZ6VhaYRE+nflxGUtZJJyAjKTm5yKASW8kNTh7IAkFC9LKiBGhsIa9RcBIF5cobMMN3rMPbEn10wtem4ySwz4K2fHS6Y1e21DondtR6tPNW8gCPfE8LSADIdWVnH0SQ9kQBPRMoX/c6k9qhmZ3a9Duqt44BS1P/63bLzcFyMhPejCBh+57HhusKOjX3XX2c+rTa14iE++8b33oit5yik8Oezz4hqucHljwPuvgsa+uHG9v6sqpHz9vZZ2+4+ci8Gvb0H+Q3fDopjXCopWtXX9Sg90uKXLQ6R4sS3VooDOGjX8QQaZXbjEpK58QYA1pifL1JtGi0y2a4BmkJqBdj1HGS0K3VXH8gsahIY1+J/QHNosl/RrQkwKYhEKEP/YiIpvb3/OTwqrqx8v6WgBi/W4akBFJDR6ffueRQb/uKvPzk6lPRQrzpv/w/geu6C2nfEitZyKXaP+Bdk2PdeOnyWa4BfNe5mJK0J6VYKiB316+ZW/i+HCQnbG6f7D6uJhYyp+fzQ1NpHphTy1iifPPdRR4tQy3G7UiezWA/OT3JTWuEZhWLCxLVXao846idENfdIxDnDUsrxDYPJI0uNU75l15eWish9CoaydmE1pdlpjE8SM16ImpTt46n/kSf0FzEtO5vSWEgOzK+TleUK9vkoObk3S7wPCtVL9zoVsUlclxe6PjWtHJ5kmACPKQebJ15IbR+/mvu195iUy8c+XjqTb2iA+tdPaz9GjroKxzwEO7wCPqyoHv3c+6curGz60iKAVNyCunYVIDA8GwL07fgFF+kj/DdmG9bdE7elKTCUuRBrhG8glob/KCzrtDhFhosU6Y0+rQ+NVJy+tJjfA4ZGnzG2xVWVX0eToqFoB4Qjto6E3i+JEaTGmvF0UEytl3E0fN2JxbEuaJtKHpr+M7ruonbjWBKR0yfBBlr51SE4jQVaT2v8PDvl+/I7KYkv7+eyG4QpGo8Us+AxqDAFR3vycG60rQWrJz6cavcUlaKxFkINRWE/arYOhRZBqbZt3Ozz8oLj7dK+z+sMrfqyEuD1dTayup+bgImPwwp9tEao6l6a5hZ4lKx4GBZUbXFx13pCEhPi+Dht4kDjSnm7d8SktBSJrJoWva2JxQHvYTBdczPyfgsUlZKb6ZaPhWqFlK6roHq8mkbtMKQAQdMlIDHbgwamqEkC//eUchMufyLx/9tb2daYrUuDodEcZV3ytwq8l7Rmpe3fipeTp8HeQigB3inqsFrwPU0H+YgpIWJssBm1ayemgu6OciYDXDnG4XqRFYw7AmuaoIl4483Hi3Aow+Jz9LGKBzcpnE8SO1OnuiU+iMzTkdogmul6VGmOYFupu0w+gU8P/WyeZJ6JApWczPrg6uWBhM1G4jNULIF3+f/9nptx0uY4mPPomL3W9LuilSI/zRJFklmu7wBaB699ScuvFT83T22t98IIQHKzivLZN7A6tIr6n5bO2Bcadsk5tIzd9FwPpkWpamOkESg/lJv+ZMyjrJ63cVN6igcM8+MGvBUof7/p9BQ28Sx4/UHFTlV8soHQFrQ/KcGJuTC8MjkAVvMnza5yJgbemQ2Y9fsvfUfJSJV4UhtjfShaRGCNne3v7b57dGRv/84R9H41c/S6aUoD0Z52avmiM1x20XmSpo4oBYZ/aLw+ygTNDWu278mpWnqXLcQDDPA78ewqPYtKcW8USc8j7WKvyIgrRXbbZbwec4vKLfVLerNS3LFkiNcJuXejw4+0suAi4OKLN+U8IzOn7A0swmcfxIjUB0hU9PnJAOKd7Y3JzScc7g1AvJPZIGJwA8h/x0K6VufqlFBoJsTG6iGjhJuixOTS9ix+42SWrkJXPoRKxk7/Vi2bvKKi9i7KlipayHQqi3ThDt+OkyduYesJLefLDbBE3NO5mqi9MQ+G5wFNDDj1e21HhXUl2e45t0nsAuPQE5LgLf14ubWEBfpwuoj6bmhJiNbcyz3UPZRQCVVOHdB8n+O7uaMKrawXJi/aYUxa3drYf66KdJHCA1ObAOStZAd04GBN9eVOKQjc1BzfDJHzCpkRX2lirvxLBzGvYfoRb7s6HgW+fJoQ3nfrzuHA7prjg1SeDOXzRLaoQ4xzUsegZocJZunNsvs92MTa3xM8mU8pS35mpEOl5SC3IR2B2Gza9ING0tsQNGB6uPNy16GjQ9fI1FM+jNz95La/TkgHsyySlomxLe+H54XZ3sYQh0ETBgTcuyJVIjfC2l+6i8hgVMjYutQThVeupSbgYOk9FjYQvZfqq2S0FqxA3pUKBzJolJHALWrn2YiR4+qyTuFt234NYq3FKjZ0INx6Q0B9SMzTkdggTfauy9YA+9Z4eRZavLRdDYMSnBYUUP3pVWmTcmW4pP2z2Z2jiPP7zSPKkRQp5vOScfFbc9u9QF7sKsED6PldTqjCESJpMUz5EafnAQ5P2s8B/RkArajDaRX9WEzugI6In8WwQCenLStCx1dYolfTU1ApFWdFh9NnQCp8S53KL8DuugoTeJQ8irEj1RK0Kq7B7s78Sd06NiNpY+l50veu0Lc3MiVizNR4T2waDj8zhYw7dQY2OkRkPllm4ZQgLpdAIRFDSgtY5++nk/O9qwUnlLpEaDt16vruQt4T0zNOJhPDO8UHjkOe2oNO1cBs1sJ2MHEqCD1PFbBLXyk033xThnU32T6yw42dB/kUf423i4Ans21TuRja9oX1ik3VMDF6Te7hNhgTmtbuKInRHzQzqA1JygU+2BU6iEfdYOHi2tD47DG4Ss5Klzqf6pjZnHGnkN0DkVmsSxM1RezEyv9TDd8Gyq/0ZJPntrhxY+K8Sm1nod+htJ9U3m4iuVqpfQaJW+zTmd4gmuOxt/bcDXgeBW1pD5yYvx6cRlt1ccvDwKRHiTSc0F941M1WUgNIlMEI/UXy24CORd7frLY84OIFDbYa8VkN5T4rYDLoLg55Bb5qSnukVTO+k4ttT/OlwELdTfNlKrz0XQQk+xaOMIwHkpww5jPS6Cxhvt8hJIasc/QHW5CJrvZrtIrU4XQfMdxZKNIwC2ZysugsZb7fISSGrHPkDcQDBEGLXevTaRmk9oWOt9xBqaQqDMfprHShpeAcQpL8BF0FTT3VwISa2bR6ctfWsTqbWlL1hJGxA4LO8eFLZ2EgsZ/nbPSyfvp5TbAIO5CiQ1MzYh+QZJLSQDycXgDmKII7mwviS/mjxc0jYjzTGTWnHvEP86jEDxPTsk6u1/lDvcEA7lkSDwIMvD4v609t6dUrp8JI22Y502w09NlTlmUvvNZfgNG29cIt5BBBCBsCBw+4HhtaBN0ZZ/ISQ1UOPDMnuk6HYUChHoDgSQ1JBoEAFEIFQIvEGklt3+Ef8QAUTgTUDA32Zs47fHbH62URKsChFABBABQgiSGk4DRAARCBUCSGqhGk4UBhFABJDUcA4gAohAqBBAUgvVcKIwiAAigKSGcwARQARChQCSWqiGE4VBBBABJDWcA4gAIhAqBJDUQjWcKAwigAj8H/TvXT5OnTU0AAAAAElFTkSuQmCC;" vertex="1" parent="1">
          <mxGeometry x="760" y="681.12" width="134.78" height="18.32" as="geometry" />
        </mxCell>
        <mxCell id="urtNTClgw5RGaUremrSD-27" value="" style="shape=image;verticalLabelPosition=bottom;labelBackgroundColor=default;verticalAlign=top;aspect=fixed;imageAspect=0;image=data:image/png,iVBORw0KGgoAAAANSUhEUgAAA1AAAAEPCAIAAADDPrJtAAAgAElEQVR4Aey9XXBcy3Ye5tepygve8JCqi8p1JZdJbAd6kFCJXcU8KDESxUaUxKGTigNHsVyjkZExHBg4Cc2AhinD1JGIe0XDoKEjUMiJSehKRyMdUR6fRJliQkGUUcyFIaYgzgw4M/gd438AgiBxObWT3rtX7+7eq/cfZoAZYJ1iHfTs3T9rfb26+9v9s/pPWPQfIUAIEAKEACFACBAChMCVRuBPXGntSDlCgBAgBAgBQoAQIAQIAYsIHxkBIUAIEAKEACFACBACVxwBInxXvIJJPUKAECAECAFCgBAgBIjwkQ1cSQR2+pP5RDLfnTmKot7RxB2WKjG5EyUVxSUEzokAGN6djdI5c2rd5NdBx6ai38IALlRYt5nM9y80FQHK/LwItCrhO3u3OL+RHC92DdoDsG1MiXSh63apf24zV/5w6lE8OynFdOJr/+ejODQb7a3p5yWO/bubN5lUhfRS3aNuMx/UaxNjDMzuL/e8OHsKrue+KLDWfm+z6nkX+8HhQqUrlU8MlWY24uXRUMJ3vJMcyidShb7fi0Qf40nupqo+W2HApldzF1v/rgRNCl2WYTdJHTfbeFZnWRZ0SuEIX3sahkHHaL2Ni3XIUHtihSpnALBxvVMpU7R5WyWLlu/zkAifDzit9Kr1CF/95GWmxAZ7EwOzn/d8fazBePUI36V1VdB6E8kQLb++m06zyrr57J1WI+f4CV1b5Ck6UWa8oRfKVVk+9IP5RLjxWAhxvsC7qXsM2I4vds+XT8ulvjTDbjoS8awuKuFrU8OAxqU1oki9TeQabFOsUD1xABvYO0FWIbp9TUCoRJrh04BptZ8tRvhq22wqBahe51h5JFPNzG/b/6oTs+Xe2/ZkEsYDOOEbLk/x+E4q6f9vHEbycfkH0kMn8pf2VEqy0P/M84qnuviKOxj9jEFxY+7gosuO8s19+qLM6itVfvq+kWJevRm+0939mblyz/hm2DW7t+s3WEMojr5tJLAtkNflGXbTlb8QwteuhoHzFStKbxO5AtsVK1RRA4A0w4eiRQ8xBFqJ8G1Xb8ECbtfDzcWaYR3r7F3uWbn/mb64xgmf9vmI6Yw84x8oxYmYC4hIlud9tLTawcb7lamWnt9p2Q/oeEMvdKnqDN95q9JOH9E+m7JQ3hBFzptJexh2PC3jWV2kGb72NQxoXPG66DgV0r5Yodo2HUCa4UNxv0oPW4bw1ffSnO0Ver+pxYA44oCqltByhO/j0+/ZM53f2w6xi07V5SJ/te4HdLyhF7rUSyd877dv2bsabr34eJH12fyy2sSwYwIRz+qiEL42NgxoXBdG+NoYK9T+mg4gET4U96v0sEUIX33xibNdNN+TicP2LMu6UoTvfbXPXtfuXzBMc7aGDS4+sVfYL6wHj6B1vKEXutTLJnynz0v2Qnkl29L1H6E+eNQ2Mezoijkp4lldBMLXzoYBjeuiuot2xgo1wKYDSIQPxf0qPWwNwre71euc0jhHX3CVCF977GpvynGNRjWueEMvdKmXTPhadqH8vLXTHoYdX8t4Vhee8LW1YUDjOkcnH6Vm2horVNGmA0iED8X9Kj0MJnx//CY/fv/z//qv/NX/8r/6K7fv3H35h/+84fqDneXPs4B1hQif3652Z+9/7+1CBxxk7hha6ZvbLp15qwU6CIe+1E8Wc6vi1EsiXeh5sJ7Z+uRN5jqJ8OU9nuMasGMmWcIOcMDbFDZrBRM/vd+ccHl8FtmZIut9YzICxd7pjZyy2VEdes+OMrOlbtgh2nm7NJI7OEQmz1TEXGjU3NznlmV9Ki0w/0GdA3DYaJAB+3SNL8UK2xZHkdyAaeTDF8pBNlMqy0dI63RrZ2LaRSAxUOgaK48+r6EbBljkyRXhEaljqNg7W0X31IJ29rG+s6PM9ArHYXwLO5uCGzY7oDOQTwxXstLJe8jZuK3Wr73XDtj5GHH8K5Xvul1KZnZRt0HhlbVkm2TOBMo37PPpzG8ONwm/KmBRzo6ymYrSBic3sqwNBlauXQBuGJYimG2Q/WP8cFvH0Eoyd3AoLLZ+8vKZhMzgSn9mB+s63ASHb6sj48UuR9NkvnM4KElkHUF3rLeJ0t0JmX2wOs1Os6WkrukdFxOr3QH0s7pIAEKjM53SrR++rY4+WHGNQXSkvGmQHz7VCFvvVwDh+4f/6NG3vv0d7d//9HdGG6rIycy4PViiVCB0SX4DQGAmclceGLnZEcy72he/4gvfLmmAE82JQWW8tGWUetLj/VHbtZ434c2vvWvoUkKjstgHtNvsvWRqz/HewtwKvvZkyhNKJ1RMNbK21ScGcqE7X/6Ws5U6wbXNm4KNyUnGNpd1MU2KS7nJhRzvjjiOmuVs7bBw+Ax9KNBBOSZO3YAZ634NQTY8lWUZCd9pbtZgNkhWpy/nnBPrHoFTheQ80HEAAbSrZN/brgqFdkjOloUb9vHEXV6W7GsJco5K+OrL35icOnmHsWjKSrzqaEppTSJng53YcB2+WcftMFVILuxzj98obhxtk2HIfOU0+4hTPbmld07a/OZ4N20f/JdfsfDdDU9DsIusHz99iOTGkgysTLxFvhVj6QiG7SF8Ebs7MEr214DV1mYPN9GViS0pvtvbtCOARquLCiA0OmHPEkQ+xjC2uTxPjpclrFo46Ef4vpj5VY3qiZ9/53/5u41TittrYnwL/QQPWdBVIXx1rsiDqnf2xXnVda8ykdtbPjipHpxUyzujn0OnrJ/wED3pBhtTU4Wbs5u5sp1qaz8zJ8bFQv+CVpRIaL5wYmOjm3WdhdGiVD+wS7rj8Z701A4W17uADXQ92dfevnxsqyCPdm4XLMUVJ3sGisksILC1n82u993NJxUn79AJfrnRn2YOnEfn90sMsVouW+kG/tf7jeY70KQ45Kbc2/EOPlQKfXPbi1s2sAe1XI5N+N0UMT84z0/4KZzb6y+dijs4qdawAxn1nX577rbvufYWZJNRkrAxEb7qN/Z2wGS+6/P1zJsjZjMHJ8tL1YnpUteYdq+DO9pJkY8Wc6s3OckujhYVjgwjRDn9uJAYLE0svWOW9KE2M+ed4TMZdkMJ3+vVTsfM7lSmlmqOsqU3O1Nz5Z60NoxFVlYQvvTjUiJVTL6ondYt6+xd7skmOKpF7cSupLWNHmdKXmuGmTKzxlTxxrDNeo2Va1lGw3AJX/+jFeYefG7H7hyOFufXe2FWu+/5gWOuNx5VHVtdXtpMAv+74WmSwlsKc8A+Df3GQS3rCMw8MZWeSjOyTMmYOoJhewhfxO5OagwmrIIIX3sCaLS6qABCc9ZaimVZp9lJGGXulCd4X3qyvLQ5co89v/EZ/6QkP3ySFbZi0Ej4jo+Pv/Nv/zuC4XkDr/6fHzRGIdEIPQ0+Uv6cJwGr0L9i/X0Io/QiUvGNigycCV3dzn6/gi3Cnj594MyRlGYUn33Qk6byidTKuPeLXHTQg6svlXEcEpprZHnObuGfrS8rin/kknjGLed4R89de/ZIf7s/ao92isdBrEb4LuxkYeSNIq4tQt1SnvFOkE9gaOvdaw5b9TpSNimOdalAYftyGl12xFGkCX+oyLNQLvAF2XT0RARMSItjm7hfVdawnER1RcjTVxWbLRVuPddGcss62x9xyIE67wgjhD3ls6bkJsTiAbNhN25JF8xvWLNnW4RzKwuEj307eb6RHC3RKpC26KHNsLbdD7TMx7O32TAE4WMfYLpgx9U+TjRZF6EfiRNfUOnVl2qFlb62m2pqZfSNx7xrPE/VJTjYZ2QdIaGnt4nY3bkKmLHyX9JtUwBNVmdFBRCas074Thcqto+wfOfktmcnzKflr9w1ASJ8rhW2ZMhI+H7jN3/LS/LkJ/f+/v3GaMTniowXmIIV8nUfYHK6UV4NwhdzVzunR/nkK7lOoCdN5vuee3ptOyIvjt2BKI/WkNDTBfPczcc1YD5Jo57O5q3i6AuHaalv0clCjPCBJRiX+STleSdocGQIzEDfbmhSHOtSAfOQfRy3TyNdc2THFsq5ViCbMQdMSFjnDXE7MN9g1+mdnbUF4INoUlkLgxoJvg4kqmFDzsa6xvAMhEgYSBxlXcKnsl6RqWmSVSQ0NUNY7PZ+gYi8fQxDInz6HL+0uJnEM+cH7ZMqzsDOPVPgXB7+vZeSOmFoDtF1hFoz9TYCAxGAstTuTrz2xUrEkgOQYaItAUQbvqyeJwz6agBCo5OqlSWFCvpsfVEeJdxcOeB0l64LSauGjITv539hQqZ33vBP/bVkY5RqLOEz3rSx77dezBuA2us1Rr1IueC72oOzAAxV8gEN1ecyVjgtoS6zQkJDF2z+gLasg61ee5JVWZF0xBteX4QJJ/kt54jaHANaI9BPdc8d4ATWRQoIH7YyblkWn8DQxjnRtemKY10qYN7x0PvV68ohQhhBES8hYNqVz95DpUQjfJAqXc6YPJk7hXN11DV6kIv9BX1lG4MRAtuXKae1Ihs25GxskhiesGqcLCLz2bI8sZQVvM09WiTnycKYnVgglU8ztGCHq6ly/QzDJXz988iADPPieVxsaFNytYKm6OkrW2e9eZ5HRzBRvdHp4Lq/MVN03/pj5caTQgKEtgQQtTpJO2/QACA0OpXwQWSfyzPhO58ObXixbq0nRsL33V+a9JI8+UnyZ/+HxqgCnCPxcBvN8HRtF25XY/eejdgXjHqvecUGADQ/7KHef2FxjM+gw/KuJpu6b1NWr8PdrnH2oVrey8xXJ2YryQcrXcPueVWl1xYUwUB6bClq47ftqVOltwWNlIdCaH7IRl3QEW+RtM7sjsMp+XY9N2c+2abnhtZIfd+5bo7dMHu3MvPmmG2iwv+DTvAr75EUOwGav0DMFc/JHXITO/PYY7GSnk8Ml0cXaofawrEqWBj75ODgE0gArNGoUCGtQ8elH9toX7w1t7N8jOy1Z5LO21fkeW3Y8wQ7WqFO2aqKs18hDVtKCGNPJMJnWUXnPrp8IpXvma4ubmv7IKGAWMoCDfJht2gVQBMz9G+2TAGV62sYgvAVx9dAQfmvYDPKJleIgb1d9jkcptoDTBGdR0fQXW90IGHY7o7HD8AKclX+Qm/QngCiVifpFxpAaHQq4eONxWBdTjmYFUkSULBVEDASvv8z91ymd97w5NR0g5SAr1s2AxT8Hx84PXvywgyoxtyhwce6Wg06LLUrZEvPxrEZFQROlvkcXqntTTwwnLi0S8cJn6knZVKA8Eoc9CHIvLt5k5VlHPZ4r+HO2DkEEeI7ULtvee2ra8ruGKbXSE09GDtQ7J3dXv7g5X1BnSBe4ybFDbmdHUyJEzNsG3u+Z3Izt4szqmD7hIVyfCZG1JTRqAxCWp+Wn4kDOozcd9wtTzmnK6BK2ZRnxs+uYB8FSy4OIEup1BFCytYOhjBsPYmQJyLhs+qHr1bFoRwm9nBpxDldIRURT1kgfEaRDDN8vF6Qk0yuSGB4aOUGGIa5sTj5+w/G2FvoY7VdNMhP6HDOoyPornRBtujRujs7SSBWLuZSCO8NIAIGEbwT4CuTWxcLoKnhW1ZEAKFdKM0ZHvp+1PlD5IJFoUtGwEj4LMv6D//jv+jlec6TP/mdP/Uv/yU+IRddIbhtKdw98dCWFKMMvykeF8+/weNpGv0U9s2gxzVYYeKMRTLPfO9Nr07ktjOv2OHTw7f8FAL0v45s5p7UlR2Ngz7kaQzHNdwcLX6aARYHnUVewfC4mvDWiZwq6677/GrkU3Vpsx98ebBBPVXoe6Yt8po7QUdSPH+T4j651U/XtkfGFbbUPbvr2docfBOM30I5kxlkQzkBi+AjJDs5m5ktMXd34rPkzmpWWuQV3frUBj9W7Bxx9f7/UKLXkEpvjJI1WFagYSux+Q/I2ciu/Ai0fd12D7iOYyoPlaakQ0uQeSmSsuckfN2myWamsV/lBhmG4BwGrPwHY+wtx3ZwNStOlBsCMKsNthdHR9BdI3yRuzuGYzBWmLEF1CwGkZsN9vZiAQTwlfWHGOOF+MpSmjM0lnLG+1ktUMBAEC8p0DoI+BG++T94aSJ8/+TprzVQB95Kk8Fbv11i10IzfI1BImhXO2yMHSzPeL0lwzaL6ISPdxbq9IOhC2ZbwHcdd3o++zks2KjnTAU5W4ikFVu+huusDPLexLvozHsQwxhmQ356XMu6zmXy6gZzQyco6grP36R4UG7MF8nxYs51+OI9+uBHUJhUgTvN4aBJPMLnKF7/WH1TTQrfgdLpbNiF47twI9CDAAwGyggBL/nfIMPWovOfsPPMaABBeDKf2Iey06JUaQZcc8dTNoAWMMFRO9lJOudkNUKj6A1LokjlBhpG4wkfXxVN+o7xivzn0RFtdDG6uzCNSBHa/YH3BvDen81gby8WQNTq4gCINmfDdmcAx/kLeyTUAUiNQ79aAAE/wmdZ1ss//Of/Sd9/LtO+nj978zczv91gyYV3gGRx3N+5g7gz96oRvqBd7eC8BmdafI+UsqzgP23Aa1D4FlG8vqFdMEsR8gOa93dsbZpP38ortny4ZSSPbwdEFjH9u2DZ/oRXC2VLANoJSsnw/E2KB+UmMj47GOdTj/qG9wCCEmKnOc9BzJWKQp0A+JqRl1y1KPDT9aTgnp4BE0LqApJ5/6IjhBotyLDV2O4vXkGwE8B94YR8GJIWtX4477ibybsnk2IpG5fwgaNBxT5VIcU+Zi/hC2EYAYJhjMQtHnsLhNgEvpsaQufREWt0cbo7ywqDFUis/MV7A4iCQQTvBNtW+t6LBRDrnWIBiDfnV9ypsttXuMrzEJz1VkDwxKIHl49AAOFzBPyDl3/4y188nvrHv/x//B7cIdRoyQ8XeKecGCw/3faZO4alsStG+KCr0resCZzxOTznNeyRYt5VRAJpnSip+8uFSKcZ7klf25+BdcEsDSy++81V2HnzOxVKT49tN8LaHSqOLqlK9rjax1YYpQs2QLKAMUxEswPQ3cjzTFgnKKfCu3iT4kG5STmbpqb8CR9fKPeO91LOoGZx9K30lAfri0/4snIIwmdZwDDcyDB3mzA6X/AWiq8BKfECDVuJLf2ATxHFO6N4Lw5n+CIG0cEZobDbWMqGsEncTnjlJgvpJbRnq7uHJDzqhDGMAMGi8xWL79PNJx5g7hsBVvnvOXTEGl2c7s4KhZUstAjjvQG8bnUAMauLBSBO+GBLRgI/TGZZx9vMuT2yiRwApL8tg0Aownch0rqO710v9t6C6ycz9x3bkkd3Fs9/QPXmpDzxb/BK1Gb8AMZmalGWZcEXm7Q2yiVxubKR8OUTn63mdGe69erzsnMtgWf9EeuCLQuGAdO4JSEDnu6T0/bXoe7dyhmAC+lZ+61nkGMZYTVSelYZfa3f7uXSUGXqC+sEJQHR/N05UcEMeBIst1frt3JHXu8wMPJpHBrsU/f8ZxcA/AOfvhVicxqdZ45gxEM7cPoWLnJQD1VY1s7IwypyWSrnYbKrDpcyYu5V7VuDX1TGFUePgYQvhGFbFup4WWweSKTLGc103WlU7VzU0dT0+ktpYyIHCUYsad9CHGUNNiPXBGYnbsPJJwYrXuc4h0urN5w1X+8xr5CGgTUWV6wYfEU6gd7zlbY71s6YXSW8OrPhFgKdQ3Qdxf5FudHF6O5CYeXveNmwf6DVAcSsLgaA7sktbWyFVpzMI8ZQr83ch0s49AFIMg8KtgYCrUP42IJh7rG0+T1d7H24PjXPXLGwf9n15AO4mp19TGhGCQOq0Q/fdmZ+d/m9AXX/HtOQqGGPYUAyHtdgJQEJS+bF5UjV8t6UfRd498OyfdGZYYbvzgq71km6jqz0Ztu9kM3/El5JSU5l9Ns1pBhukG846xxkfYF3LcBZ8+1I29fyzCnXg/A8sBpxPkC77q1O2UdV2HkCQIDdIvD1kVs+vptKeo/l74Isjz0sEdalOjncKbvX3EkX1nU+2tG4IKzy5Dvvb+TYPWy1zNfbJVuikAvlluSVpvM+3JMGhXZOVuzpUuUULZd8oNifqfJb9Q7YjVv8PuLBSlZuEfW9EXFP8XAZLqM7qW7tZzKVXvs2FHUKOYjwhTJsWA1kNSgzO5eTJQbFzXgg/GCl3/nwU74W7DZi312WdS+R2+R7FlMryvR5dGXjEz6rvpyB2whYXThXn7F7EScm7R7vwTq/lFlRJ+wOigDBuKlrnQO0BdPb3a1eOOLTcde9p461OHZPXT6h+7CMqaOh0UXu7kI1IqBBCdV/eJsDiPVOccYLc3M+3hGXwXTdW53hjUtculgcfcKdOmn9AxgZ/W0VBFqK8LFDAdX5inK8ThwqlAPDZX5rpwQjn+GTo+lhwwecYT5Jyru5QU4F/Pyy2gJIx9bcs5ZJ+7ob2L+ltjfoNCd32CSKmEWQYRlCphwMXTD3nxIwCwVQwcpmPoHOacFklX4bLyRHu2BYcZCOmoIuNx7vqpNeaCcocsdnEA2K+xI+EECpkftbyG3073eS4gYtJxUf3f39Gkoys5PamzdhGJZLTNxdf3mMqswfKpGd0gdLM979sseq1xtNu4GVKXlSxzglwGUOZ9gmwmfJ17kq8tv3fWEz+mDwmtjsHHcxvaQxcMuKqCxqk2r1oFXgRFG/ZmUJxzaWz0ByhfCFNgz86wVEM1E6573P27Ut/mEgSyvCQ+rXAsstho7Sp6z2lRWtuwuH1UUSPtZaLwZAg9VFA5DVH3Sw+mQKe7e2Je5lVhtjITl/Ak3D8FHhWBr9vwUQaDXCZ0NS/7i8tDn6YKVLzDck84nBQtdYeSSzbXKm2raEjx+nwvcqaSZS25uaXOmCDROdt0sjL+xVRXzHBowidk96urUzMQlTpKl81+3SSO7A6z3ELlBJyEVwKJrXf4omofgJV24kULeCsOabUNZhRWIDITt7t5hb7xsrdALp6Rgq9k5vZNe8/nUNnaAoAR8jMcVZEiy3+sflhY3keFFUR2Kw0PNgfebNOw+zgFLt6uPCDxR6vthht7/w/VLozjxIKP+tHczMlrqBO3YMrfQ/27PrERPSqp+u7UxMl7pFUxpg7Wg0t181uon+VFrY6JdATgwWuscrE/OItfiNEHDuONCw8SVdR+X6yWJutfc2rBmlCz2Tm86iLUb4rNPd/Zm5cs8wxLftPJnZwTw1OgVEUBZGNfN3I2onbt3VD99WR8aL3ACcNui0XzEfIxO+8IaBGzMU7EPp3G9dw1AN+HfA52LHEDPyqSVkM4NdXkQdWRpTo2Nu5MJ2d2GxurAlXQD/IgBEG74tQHgA7ei+zdmyzo6ymXKP6EkG3cYITcNgRQAG/b10BFqS8F06KhcpAOxqx3bin1MOc08aOWM4rqHvxoucESXQEIiyUK4lbe2fTTTs1la8QdJdWcNoED5yNoSVjAaFCQETAkT4TMhczHPYD+tzXCO+II0jfPwDOsRxjfjSXsuUoXaatyMyTTXsdgQkosxX1jAi4hAmOmEVBiWKQwhYFhG+S7WCULvaY0vYMMJHH9Cx68A/Yaid5v5ZtObb5hp2a+rcSKmurGE0EiSeF2HVBFApy6uJABG+y6xX3lUFHteIKWOjCB/3nRvyuEZMYa9jMr5Q7nW10+5gNNmw2x2eQPmvrGEEah49AmEVHTNKcV0RIMJ3hWu+UYTvCkNEqhEChAAhQAgQAtcCASJ8V7iaifBd4col1QgBQoAQIAQIgQgIXDLhy/7RO/rXcASg/hHC1/CyKENCgBAgBAgBQkBGAMYg+ttaCFwy4fuxe/xiZsWXo/DtSYFYCPiYGOFMCBAChAAhQAg0D4HOwaLPGESvLhEBInzItQ3NawkXk7OPPV2MAFQKIUAIEAKEwPVEgAifzxB8ua8un/D9q0Mr9K+xCPiYVGMLotwIAUKAECAECAENAZ8xiF5dIgKXTPguUXMqmhAgBAgBQoAQIAQIgWuCABG+a1LRpCYhQAgQAoQAIUAIXF8EiPBd37onzQkBQoAQIAQIAULgmiBAhO+aVDSpSQgQAoQAIUAIEALXFwEifNe37klzQoAQIAQIAUKAELgmCBDhuyYVTWoSAoQAIUAIEAKEwPVFgAjf9a170pwQIAQIAUKAECAErgkCRPiuSUWTmoQAIUAIEAKEACFwfREgwnd96540JwQIAUKAECAECIFrggARvmtS0aQmIUAIEAKEACFACFxfBIjwXd+6J80JAUKAECAECAFC4JogQITvmlQ0qUkIEAKEACFACBAC1xcBInzXt+5Jc0KAECAECAFCgBC4JggQ4bsmFU1qEgKEACFACBAChMD1RYAI3/Wte9KcECAECAFCgBAgBK4JAkT4rklFk5qEACFACBAChAAhcH0RIMJ3feueNCcECAFCgBAgBAiBa4IAEb5rUtGkJiFACBAChAAhQAhcXwSI8F3fuifNCQFCgBAgBAgBQuCaIECE75pUNKlJCBAChAAhQAgQAtcXASJ817fuSXNCgBAgBAgBQoAQuCYIEOG7JhVNahIChAAhQAgQAoTA9UWACN/1rXvS3IzATn8yn0jmuzNH5jjeN0cTd1iqxOSO9x09IQSahgAY3p2NUtPKuOyMr4OOTcW4hQFcqLBuM5nvX2gqApS51SqELztpj5R2rTt17/y/c7jYO72R3foUoq4+Vd9URx+WuocLbg6Dhe7xysRC7bQeIoP6x+WFjZEHK12DrjAdQ4WeB+szb08gPTQbj6huofKrSxz7dzdvMkkK6aUwyoN+5/9br02MMQC7v9w7Dc6tnvvCrq97m9XgyGFjHC5UulL5xFBpZiNsEjVeQwnf8U5yKJ9IFfp+LxJ9VCWK/qv6bIXZZHo1d7H1H13SiCkuy7Ajihk9ejyrsywLOqVwhK89DcOgY7TeJnKdtCdWqJoGABvXO5UyRXsQrGTR8n0eEuHzAaehr1qd8AkWdePRdtU4btUPX2/0DbksTaRyAwPF5PyxD3SHb/xzEEYMzUZmdT7hyyN8l9ZVQetNJAVoZuDru+k0q7ibz96ZI0V949ZRxGpO1Z0AACAASURBVCk6UVC8oRfKVSsd+sF8Itx4LIQ4X+Dd1D0GbMcXu+fLp+VSX5phNx2JeFYXlfC1qWFA49IaUaTeJnINtilWqJ44gA3snSCrEN2+JiBUIs3wacA0/GeLEb7h8tT8dgb+Pc2s9o2503WdkzuHCACnL+fsmQyHdaWLvQ/XIZPqxGy5x+YTDvO78XgXy8E6XKh0AmnruFseyVS5DNn1/vFiRyovcZePyz9wJeTRvnQEKPQ/87x600AegyhvfnQw+hkb72/MHZjjNOdNlG/u0xdlVjWp8tP3jRTm6s3wne7uz8yVe8Y3w67ZvV2/wUy6OPq2kcC2QF6XZ9hNV/5CCF+7GgbOV6wovU3kCmxXrFBFDQDSDB+K1hV92GKET/t6s0E/fbvZy9dYvauT9eUMsL1U4VYOXbr9VF1avznA5/96MjW9Kt/v9DukMLUy+los3Uqxzo4y0xs56YEe5B8oxYmYC4h6fg34vbTawcb7lamWnt9p2Q/oeEMvdKnqDF8DatOy+J4HrIFg+TdloRwr6MKftYdhx4MlntVFmuFrX8OAxhW2CcSrAjlV+2IlayHCTQeQZvgE1i0baAPCx7DjvXw+8b1tZVvY61U+M5daGX/ru8+vtt0vWONrZW349HnJmf+Lv6rYcoTv49Pv2QRXg6vVzLB1P6DjDb3QpV464Xu/fYtNS+dvvfjYanV+PnnaxLBjKhnP6qIQvjY2DGhcF0b42hgr1P6aDiARPhT3lnrYJoTP2h8dthlMevWlix9YcLLQv6DwQDeKHCo6i1z5hHo+AMz0HPNzrUb43lf77BXq/gWF2spgtEJ48Ym9Xn9hPXgEneMNvWCQl034+DdMqpJt6fqPUB88apsYdnTFnBTxrC4C4Wtnw4DGdVHdRTtjhRpg0wGEkZT28KH4t8TDdiF8H58+cNZkJWMS034PqujOPA/AMD2QLIwW3ZdgpoX0a/dhtFCLEb722NXelOMa0erNHDve0Atd6iUTvpZdKDfjHe5Nexh2OF2wWPGsLjzha2vDgMZ1QYSvrbHCjCviUW40C/+HMJJKY7R/AvGWD6DklkUg0qxAKML3W7/9Oz83/vN3/97P/ZOnv7Z/0JRDAEFblBDC9/Kxc55DYW8BOAFH7Hqy78YEa+t4uB2OOLpJeai1CJ/frnZn73/v7YJ9EoVx6I6hlb657dKZRynRQTj0pX6ymFvtvQ1naNLMW00Gd5cDXbMv7/Ec14AdM8kSdoAD3qKzVjDx0/sNbMH0qRGmyHrfmIwAc/2TUzY7qkPv2VFmttQNzno6b5dGcgeHyOSZSXE1NwXpT6WFjeR4sRP2mCYGGbBP1/hSLPShzteO+n/TyIcvlINsplSWj5DW6dbOxLSLQGKg0DVWHn1ew+bV64dvqyPjxS44LNU5vNKf2cEMzALt7BGC7ZRd4TiMb2FnU3DDZgd0BvKJ4UpWOoUPORun7f06nNoBOx8jTv2n8l23S8nMLuo2iCEz6Tpy6hgq9s5WF2uIcViyTdZPXmbKNxyI0quwP9ivCpjVnB1lMxWlDU46LqsCK9e2OdwwLEUwixlkPxyV6xhaSeYO3F6xfvLymYTMoLFmwcYjGANPEllH0B3rbaJ0dyCy8xfH6jQ7zTyPdE2rxwflmm0/AH2sDjydyW1hrDz64ghr+GpzVuG0fzFjGH2w4vYMoiPlABLhQ1Br7KMAwve7//Sf9fzZm9/69nfEvz/5nT/1xa88bqwQVvCedFjSvb2xzMuujd+2xz9lkTdIrvq241A3Mb7ldt/1vTSM5V0Pq+jIFJCv0uAD4jb9tXlX++JXjp8klTc4x5MHlfHSFlLqSY/3R23Xeq6bGydVMn/za88hGI0p4gpjH9Bus/eOl3uO9xbmVtA7EcsTSidUTDWytmVy36N6BJA6wbVNceJHUX9sc1kXU0JM0VrKTX5+vDviOGoGMEX+wpsMEBesynDqBsxY3bcQwlWbQUjrNDdrMBuvAPXjpw/hk0BTamBlwrPLFrSrZN/brgpFEm/O7kZeqZYZmMcTdzk4PV+7jA9yjkr46svflJgHRyGJG/DOW6j+AdyYzOdich6+PUSNuzZ5NKW0JpGzqQpYFodv3JNninipQnJhn3v8RnHjApgMQyZ8p9lHSPVx9wjHu2n74L9SejKfuLvhaQh2kRGNIa6OpkZnRezuRD1ZlmXAamuzh9fyysSWFN+t2XYE0GR1B+OG3imRzKMeM6DRCXuWIPIxhrHN5XlyvCxh1cygH+HL/rP/XfA8LfCPHk03Viq/D27LsuBwRsfjPSiXm2niQRX92oBo2l/oHTSauLbRI3r59EryBXraV8tK+uk2eOnh5QTrHEkMFudV173KRG5v+eCkenBSLe+Mfg5dvH7CA7Ca3GBjaqpwc3YzV7ZTbe1n5sS46N1AKRKaL5zY2OhmXac6Owu7pKVaBhCL610woCqzs/Z7Ptcrj3ZojQhmP1BMZgGBrf1sdr3vbj6pOHmHTvDLDXaCe6g0Or9fYojVctlKN8zG9X6j+dwxKQ65Kfd2vJsZt4lFqtA3t724ZQN7UMvl2ITfTRHzg/P8hJ/Cub3+0qm4g5NqDTuQUd/pty2577n2FmSTUQJ07b+okFb1G36kqevz9cybI2YzByfLS9WJ6VLXmHqvAzjIYD63p8FUDmrZTJkjlio9dSkZKxNGiHL6cSExWJpYesfa8ofazJx3hs9k2A0lfNDPJO5UppZqjrKlNztTc+WetDaMuUO7hMzRYm71Jp8OKY4W1Q8CsMn041IiVeSdzNm73JNNcFSLVwFDSnRQWjN0sE0VbzhbnI2Va1lGw3AJX/+jFeYefG7H7hyOFufXwT1Cvu/5gWOuNx5VHVtdXtpMAv+7IS+YOEYV3Rji6giG7Znhi9jdOXLb/zdhFUT42hNAk9XZz1OFm9MbT6EtLC+siw9m74EwaM5aS7Es6zQ7CaPMnfIE70tPlpc2R+6x5zc+45+U6le3VCMUbBACfoTvz938cY3nyT9L5UqDZGDZ+BE+94Ct9L3OGUPUa6zE8OAxyu3qLTFxncwnhlZGDBPXiNbQlV++WxbgTN7WyED+fgVbhD2F/ZGlGWW5HnrSVD6BHoIWg9Dg6ktlaIOEni5YQLc8Z7fwz9ZhvtZ5Awv3nnHLOd7Rc9d2waO/5bO/isdBrEbgOHZh5I0irl123VKe8U6QTWbc3VjW1rvXHLbqdaRsUhzrUoHC9uWwD5a6Ik1AAxGwWpZnoVy8A9l09EQETEhxWOo+tk1WFbL0tV07qZXRNx6NatU+m4ZqXqBhhMgnBlYm1nSVhWQsYDbsxi3pgvkNa/ZsC6Iqe/rK8dxZuPVc5bBs4XV/xGFC2iQrt0n27WQ4ZIZWgbRFD22GbvfoNUgXQrNhCMLHPsB0wY55xSXs6tN9WokvKO372bKiGwPYZ2QdIaGnt4nY3YXByn9Jt00BNFndzvgjbKuPMAl5lcwGD5qzPraeLlRsH2H5zsltz06YT8tfgWM1ulrNtcFmhYyEz2d6z6F9E9/7hw0UCiN8nw7l6YFkXuluYhI+YJboJRBsY42YuLJnX4ZKE6hnPk1zjF5oUS7mZ8xd7TAUJV/JYkJPmsz3PfcM4XZEXhxrqPJoDQk9XTDP3XxcA+aTNOrpbN4qjr5wmJb6Fp0sxGoE+iPps0FWVwnzTtDgyBCYgb7d0KQ41qUC5iE/arEGokhs/8AWynkskC0a4QMcTFUpRABC5pn15DE4xU8pgwHUSPB1IFENG3I21jWGZyBEQlu+m7DTXXAQr1iAs6skuvCnewmQUmJ2YrmEzNQMXa9Vxsr1MQw3f93pFZMMFjeTOJvkB+2TKs4xjAGaQ3QdodYCTVQADWWp3Z147YuViCUHIMP2BNBgdbKCShjm2tW2LE3YK23c3Uzy2fqiPEq4eXLA6S5dF5KmhYyE78F3f0mez/OGfzr5sw2Uive/sGynbxNJ5m/O7bt7hy3Likn4Tvg6Gkr4HH3YDv0VeR+P6X4OV33e4NVez319YSF8V3tw8QCmSj6gJ/W5jBVOS6jLrJDQ0AX7TTYcbPXaNqCsSDriDa8vwoST/JZzRG2OAa0R6Je75w5wAusiBUQHWxlnXZszm6WNc8bNi1iXCpizo0J4P+hKE3aGD99p7uQDlWLkBJiQQqN0OYMeRBAycmzRAzd2JKxGgJZh+zJFziwQ2bAhZ2OTxAgfjGTJYoBTT1536oYEWWCoXKVBgfm5R4vkJCyMVgFI5dMMLdjhaqpcP8NwCV//PGKIMC+ex8UGpTBNwxvDeXQEwzb0NjrG0tihyCzi+WMloskBAUJbAohanayeHobGpRE7sUNDfQ5twcfNLXzn06ENHeqG/zYSvl948F0vyZOf/NRP/0wDpfEhfJ1j2EIkUI2Ye/jcwx8GJdiZQXevOrpH1U2JDWbu24AQdFhesmvqvk0Zvg53u8bZh2p5LzNfnZitJB+sdA2751XVHhAEM5AeWwo4OqP0tpBQeSiE5pxbW92D10haZ3bH4ZR8u56bM59s03NDa6S+71w3x84m363MvDk+RQY4RxDoBL/yHkmxI6D5C3rkiqfmJnbmscdiJT2fGC6PLtQOtYVjJyn8HyMo8A7+cnC0lUT+FoA1GhWorAhpHYJb8sRA8dbczvIx7t582ec8kGrY8rQKjBzqlC2o4/4NadhuAjH2RCJ8liVcdabyPdPVxW1tHyQUMG/fB6jq5f1GTSTz8jkSOAzrw27RKoAm9nAbivf+DahcX8MQhK84vubNWbw1DMaC60hbYKMbw3l0BN31Rge6hO3uePwArCBX5S/0Bu0JIGp1rn6nxyfLS9uZ3MbIdKVvrNDlbnxSiZ27JVd9zhuLwbqccjArciWgUOMQMBK+r3/nd2V65w3//C9MNE4MWGlV7tLdWdw6MY+C8FHLJn5C/ydO6fqRGDc3+Va3/gVD7++uuRhHFzdHJAQdlnf8MI7NSC7u4otna4Ubu7Y38cBlsd4hCid8pp6U5QvCK3HQhyDF7uZNpqlx2OMkwJ2xcwgixHe6BvctNwN1TVmMUp4aqakHYweKvbPbyx+8vC+gE4TBW8vfpLght7ODKXFihl0onO+Z3Mzt4owqmPDBQjk+EyNqymhUBiGtT8vPlH0OHXfLU87pCqhSdwLSa8OeJ7KNAeFTRwgpWzsIq4o+hq0niUv4rPrhq1VxKIc1kOHSiOcIF4iNHuZVHorT1kxAoAXmnb5oFfCHyEkmV2swPLRyAwwjSDD/wRh76/P1rvU5YAzn0RF0V7ogG5po3Z2dJBArF3Mp5F+zGERuYuztxQKIWh1bzT98vXHLOQzkacV2PerNFtqF8hwe+n7UYSC4EFGocQgYCd+nT/Uf+dF/z8vzxJPl5T9unBhA+NAOCy9G7KOKcj08+OFTvrzx/OGp+Oj3GW/8Gzzk1Ny/sG8GPa7BihZnLBzfe9OrE7ntzCt2+PTwLT+FAP2vI6m5J3U1QeOgD3kaw3ENN0eLn2aA9TJnkVcwPK4mvHUip8q66z6/GvlUXdrsB18erOdKFfqeaYu8pk4Q5MTzNynuk1v9dG17ZFxh4d2zu95F3kDC57dQzqQG2YxNzEdIdnI2M1ti7u5E139nNSst8nLxBlez4hCxISB/wsFgoIwQADH8DTRsiCj/hZw1Ru5G8cPz7F3uWbkH/AgylYdKU5JPGci8NLXBz1A753m9/z+UvyVwm3FFMizpQr2YJptZBn6VG2QYTSN8EYzhPDqC7hrhi9zdMRyDsZKrS4T9a5a/jTBFGr01nQdASKtM7cuX1Oe7xsrJ2Y2n89tZdk7/w3LG6a/0ZgvtQnkOD8sZ72e1DqABIhGNAudGwEj4LMv69d/4TUHvtMD9zx+cu2glA7/+V4no/uCNMxm84xvSiJs2NFde8B7/C8sNPtv+/Bs8nm2DnwbtaoeNsYPlGa+3ZNhmEZ3w8c5CnX4wdMHso3HXcafns5/Dgo16zuyIs4VIWrHlRN+h7Lw38c7XhqiR0+Na1nUuk1dPG6CdoFRleP4mxYNyY75IjhdzrsMX72mAoAYSuNMcPpDiET5H9frH6ptqUnjnkk5n84WwpG+3LuHnBGEwUEYILVaQYWvR+U/YeRaL8PE8Ph3KTotSpRlwzQ1bjnxXqbxy4TYjx0PtZCfpeIzSCI2czoI+CqncQMNoPOGLbgzn0RFtdDG6O8uyQmClwA4//GuWvzWwGeztxQKIWR1fh8l3fg9xTGtqtuhzw3ZngM75C3sk1AFIjUO/GoGAH+GzLOt/ezL3r/+bf0Zje5//YiMXcx0tgsYzTFfhFCDpcXmFRRfO/LCzVGgC5yF0KC1N+IJ2tYMHKZxp8T1SWpcEiiOjCMAlfIsoXt8goWeICvkBzfs7NqXKObq8YsuHW0by+HZAZBHTvwsG8dlf4dVC2RuAdYJyKjx/k+JBuYmczw7G+dSjvuE9oIGE2GnOcxBzpaJQJwC+ZpRVSC0O/+l6UhCnZ4ADwco7nlB/io4QaqQgw1Zju794BZnk8WFIbh52qH4473hgybsnk6C9IIanpZZ/4jYjx0DtBDxJKfYpp7IssaHZ21RDGEbAWjMXW+scQADsbXRjOI+OWKOL091ZVhisQG/lr3/NYhC5ybG3FwsgYnXA0vCZEeCj+nca3pxfcafKoq9wdYcQnPU22BhEo7/nRyCA8FmWtbe398Wv/Orf/Ft/+2+k/9Z3f2myUJSuoT1/+ZBDwHgG0bS/h/Nlx8FPYrD8dNtnytiy1ra4E9HUinkPjZa9/RMmpRLezlRE92/wIlrzAtBVGVXD5/AcgWCPlO4GCXpSI58+zfBrFbT9GZBQJ3www6o/9+DCV95LT49tN8LadWqOLqlK9rjax1YYsV4pSo1AdyP3X0gnqEiJ529SPCg3KWvT1JR/A+EL5T4malmgJroFor74hC8rhyB8LsNwI8OUQCLsxdZMZ3yEkNAQY7DRsOXIchg+RRTvjCKC2KfhixhEh2t+hN2KPsHoaQKSyn9xm5Fj4HbCKzdZSC+hXVzdPSThUSeMYTSc8FnRjeEcOmKNLk53Z4XCSq4uEfavWf7WwGbQtxcKIGJ1fg1TGL9nBgRPBVsyEvhhMss63mbO7e29IjTDJ2yqSYFgwtekgrVs/cczLbL0U3LhPVBM4q6SP5VeVG44yyJez6KWlf2yNLpguFqjfpIBF+Hu2CYVz4P+Dd4bv8FPgLGZWpRlWfDJK62NciEOF/gEhscNEvSkyXzis9Wc7l+2Xn1e7rRbqWf9ERKKAdIpivdipnFLAgU83Sen7a9D/QoQZwAupGftt55BjmWE1UjpWWUU8aoINFSZ+kI6QUk+PH93K5WmOOpu49X6rRxyJSWMfBqHhk2uuuc/WyjogvHpWyE3bGD13hl9+ta9aUa1850R9LJB/oEhu+pwDx33fKVtiHSEPHmZWZ3ZENKwAD5CuFFCGLZloY6XxeaBRLqc0UzXnUbVfMsdTU2vv5Q2JnJBYMSS9i24/BjzJWtZFutzxhWvliabcbU17OGzXP40WPE6xzlcWoXOTVMn5A6KIMFQRiKkxt9GNwZBcaLqKPYvyo0uRncXqhH5O1427B/AIQIE8bcXCSDS18EMn7evlgbckIRPcuWI9Az12sx9uIRDn3EAiOhv4xBod8JnWfWTjHz/4+BKn729NDO/nZnfHH1Y4jeUM2pS6P0G8bLBuWbK3po6t2kn3La9lkgbt033RTo1wRutocE3rrbwnGBAMh7XYMmAhCXz4nKkanlvynY90/2wbF90pn2DQpI7K+zeOek6stKbbfdCNv9LeCWJOZXRb9eQYrhBvuGsc5D1Bd61AGdNoSNtX8szp1wPwvPAasShF133Vqfsoypsiz0gYHvQOHLLRyma9BollC7I8tjDUiFdKs/hTtm95k66sK7z0Y7mKRBWefKd9zdy7B62Wubr7ZItUsiFckvyStN5H+5Jg0I7Jyv2dGleI3zs7umBYn+mym/VO2A3bvHrlQYr2fcSKLtbvXCqo+OuezUZA5ldTZZP6G4LgwhfKMOG1UDNB4rlcrLEoLgZD4QfrPTftycVlK8F2+Dtu8vszenOJXKbfM+itjJQ3xsR/imGy3Dz3kl1az+TqfTaZxv16QrMJiX4DHbCYkg76FldOFefsXsRJybtedkH6/xSZkWd0EcQ/AXjb7XOAQQ3vY1sDDF1NDQ66LtCd3ehGhHwyATuUtvQ/5sgciA0vb04ALHeCaZI2R2AOedWSXYTmt0Wiv0PIxzaYFoe7/SL2+rvrc7wGxrFPYTF0Sfcz5HeZMDK6G+jEGh/wseQYN/TijMFe+bJPVHI3CuUJ7w3PtkocsLnTQJPuj7f1C/X0uDnjdbQ4LXIjf7JqYCfX1a7SOnYmowMm6KA/Vtqe4NOc3KHTaLwKVLpnCY7vYhMORi6YO4/JWAWCsCBlc18Ap3Tgskq/TZeSI4SMphPUlWwa9njWxvrBEXmhhlEg+KGgRw6erkunHDn/S3kNvr3O0noNHkSPrr7+zWUhbastc2bwMmUcu+uvzxGVeYPlchOuxgszXgvQ1vbEldtIkmGVIIYNMMXzrBNhM+ypOtcFWHsy9+wJQUweGj4bqpUMb2kMXDLOlZd/GipBlam1OlM1CbV6kGrwIlymnvM19xdqZwSxzaWz0ByhfCFNgz/7gsMVe0cQHCftxGNwbJi6Ch9ympfWdG6u3BYXSThY34VorWmuACiVifxb8WwC/3zJ5FO6XJDEVuqlNyYh4Tk/Ak0DcNHBdga/T0/AleD8Nk41E8W59nF813SuNg5XOyd3si8sS9lN6B1elzLZdcdF8SdYjgcKHQNr/TNbebWzO73RIb+PaaI1pQAP1mG71XSSqztTU2udMGGic7bJX5fMHzPqX06jCJ2T3q6tTMxucLxSeW7bpdGcgde7yF2gUpCLoJD0bz+UzQJxU+4ciOBesOBNd+Esg4rEhtWqc7eLebW+8YKopY7hph5ZJEqRjvBoPzFNKo29qAzfPWPywu2uUJ1JAYLPQ/WZ3xs1a4+LvxAoeeLnaol1vvQnXmSwCJYO5iZLXVDG+kYWul/tmfXI6py/XRtZ2K61C1mswYKXWPl0dx+1eQmun6ymFvtve168+4YYnpNLSHr10DB5d2TQtCwho0v6TrZgDCcJKULPZObzqItRvis0939mblyzzCsMdl2nszsYJ4anQI+lRY2+iWLSgwWuscrE/NY0wjuJdAqEIDUD99WR8aLShvkm1igxcmEjy+ShjAMf8F8KJ375WMYqgH/Dvhc9DEGW8+IOrI0oLve6CwrfHcXFqsLW9KFSr8IAE1WVz98vdk/Bg15oNA9vupcxW5qtqbnXJmzo2ym3CN6kkG3MRLhg/pu+t9WIXxNV/SqFgDHNUbfNlxDc08auSjYJ6fvxoucESXQEIiyUK4lbe2fTTTs1la8QdJdWcNoED5yNoSVjAaFrzACRPjaunJD7WqPq2HjCF/44xpxZb2m6ULtNG9HbJpq2O0ISESZr6xhRMQhTHTCKgxKFOdKIECEr52rMdSu9tgKNozw0Qd07DrwTxhqp7l/Fq35trmG3Zo6N1KqK2sYjQSJ50VYNQFUyrJFESDC16IVE0Ys3lUFHtcIkxcSp1GEj/vODXlcAxGEHuEI8IVyr6sdPHr7PG2yYbcPEDElvbKGERMPv2SElR869O6KIUCE74pVaAPVaRTha6BIlBUhQAgQAoQAIUAIxEGACF8c1K5HGiJ816OeSUtCgBAgBAiBa4DAJRO+au2H9K/VEACzRwhfq4lK8hAChAAhQAhcMQRgDKK/DUbgkgnfj93jNyvr3kQ194z08wIR8DExqiZCgBAgBAgBQqB5CHxreMVnDKJX50GACB9y70LzTLktcvaxp7aQn4QkBAgBQoAQaFMEiPD5DMHnfEWEjwifjoCPSbVpD0JiEwKEACFACLQFAkT4fIbgc766ZMK3uvdD+tdqCPiYVKuJSvIQAoQAIUAIXDEEfMYgenUeBC6Z8J1HdEpLCBAChAAhQAgQAoQAIRAGASJ8YVCiOIQAIUAIEAKEACFACLQxAkT42rjySHRCgBAgBAgBQoAQIATCIECELwxKFIcQIAQIAUKAECAECIE2RoAIXxtXHolOCBAChAAhQAgQAoRAGASI8IVBieIQAoQAIUAIEAKEACHQxggQ4WvjyiPRCQFCgBAgBAgBQoAQCIMAEb4wKFEcQoAQIAQIAUKAECAE2hgBInxtXHkkOiFACBAChAAhQAgQAmEQIMIXBiWKQwgQAoQAIUAIEAKEQBsjQISvjSuPRCcECAFCgBAgBAgBQiAMAkT4wqBEcQgBQoAQIAQIAUKAEGhjBIjwtXHlkeiEACFACBAChAAhQAiEQYAIXxiUKA4hQAgQAoQAIUAIEAJtjAARvjauPBKdECAECAFCgBAgBAiBMAgQ4QuDEsUhBAgBQoAQIAQIAUKgjREgwtfGlUeiEwKEACFACBAChAAhEAYBInxhUKI4hAAhQAgQAoQAIUAItDECRPjauPJIdEKAECAECAFCgBAgBMIgQIQvDEoUhxAgBAgBQoAQIAQIgTZGgAhfG1ceiU4IEAKEACFACBAChEAYBIjwhUGJ4hAChAAhQAgQAoQAIdDGCBDha+PKI9HNCOz0J/OJZL47c2SO431zNHGHpUpM7njf0RNCoGkIgOHd2Sg1rQzKmBAgBK45Aq1K+M7eLc5vJMeLXYP2AGwP3ol0oet2qX9uM1f+cOqpt+ykFNOJr/2fj+LQt2pvTT8vcezf3bzJpCqkl+oedZv5oF6bGLPZ0pd7Xpw9BddzXxQYSbq3WfW8i/3gcKHSlconhkozG/HyaCjhO95JDuUTqULf70Wij/Ekd1NVn60wYNOruYutf1eCJoUuy7CbpI6bbTyrsywLOiUifC6YFCIECIEGI9B6hK9+8jJTYoO9iYHZz3u+PtaQuHqE79LG+4UK1kVbgQAAIABJREFUgF/Jaih7f9Z302lWWTefvfO+jPsExr/IU3SiwHhDL5SrsvxSpsgBudDx+N3UPQZsxxe7QqurEbg0w246fPGsjghf0yuGCiAECAHLslqM8NW22VQKUL3OsfJIppqZ37b/VSdmy7237ckkjAdwwjdcnuLxnVTS/984jOTj8g+kh07kL+2plGSh/5nnFU918dZyMPoZg+LG3MFFlx1lhu/0RZnVV6r89H0jxbx6M3ynu/szc+We8c2wa3Zv12+whlAcfdtIYFsgr8sz7KYrT4Sv6RBTAYQAIRAbgVYifNvVW7CA2/Vwc7FmWMc6e5d7Vu5/pi+uccIXbw6Gz2kVJ2IuIMbG35xwabWDjfcrUy09v9Oys1Dxhl58hs9cSRHeRLTPpiyURxC3eVHbw7Dj6R/P6miGLx7alIoQIASiIdAyhK++l+Zsr9D7TS2aEnbsiAOqWkLLEb6PT79nz3R+bzvELjpVl4v81bqzUPGG3pYhfO+3b9m7Gm69+HiR9dn8strEsGMCEc/qiPDFhJuSEQKEQCQEWoTw1Ref8G1SPZk4bM+yrCtF+N5X++x17f4FwzRnpEpuWuTFJ/YKe7xZ1aZJZWccb+htFcJ3+rxkL5RXsi1d/9GrsE0MO7piTop4VkeELy7elI4QIASiIBCK8BWKxd/67d/5jd/8rcV/sRQl89Bxd7d6nVMa56AOV4nwtceu9qYc1whtMwER4w29LUL4WnahPAD0wNftYdiBahgjxLM6InxGQOkFIUAINBCBAML3x2/y/+1/99Pf+vZ3xL+f+Iv/2fP/6/9uoASWZYlTkOdZwLpChM9vV7uz97/3dqEDDjJ3DK30zW2Xzrx1otKX+sliblWcekmkCz0P1jNbn7zJXCcR6mFVLabnuAZsO0uWsAMc8DaFzVrBxE/vNye8FJ9FdqbIet+YjECxd3ojp2x2VIfes6PMbKkbdoh23i6N5A4OkckzFTFXYTU397llWZ9KC8x/UOcAHDYaZMA+XeNLscK2xVEkN2D6vMEXykE2UyrLR0jrdGtnYtpFIDFQ6Borjz6voRsGWOTJFeERqWOo2DtbRffUgnb2ae6zo8z0CsdhfAs7m4IbNjugM5BPDFey0sl7yNm4rdavvdcO2PkYcfwrle+6XUpmdlG3QeGVtWSbZM4Eyjfs8+nMbw43Cb8qYFHOjrKZitIGJzeyrA0GVq5ic/SDECAECIEYCPgRvj96/f/+6R/5UUH15MDXz343RmGGJCcz4/ZgiVIBQxrvY78BwBtbeyJ35dqri/9p3tW++BX4B4GDzC57GFTGS1tqGEUmd6zj/VHbtZ4bH3K4+bV3DV1KaFQfm4XiMOaxleg9x3sLcyv42pMpTyidUDHVyNpWnxjIQQVHqf4FOVtp6F3bvCnYmJxkbHNZ53wmxaXc5EKOd0ccR81ytnZYOHwG4gJ0UI6JUzdgxrpfQ5ANT2VZRsJ3mps1mA2S1enLOefEukfgVCE5D3QcQADtKtn3tqtCoR2Ss2Xhhn08cZeXJftagpyjEr768jcmp05eH0PRlJUI39GU0ppEzgY7seE6fLOO22GqkFzY5x6/UdwAbfpLCBAChMB5EPAjfD/5X/xlmeTJ4T/zIz92fCx9j59HBBioEuNb6Cd4yLyvCuGrc0UeVL2zL86rrnuVidze8sFJ9eCkWt4Z/Zy7qknoJzyAIkxusDE1Vbg5u5kr26m29jNzYlws9C9oRYmE5gsnNja62eheGC1K9QNHDToe70lP7WBxvQvYQNeTfe3ty8eevYAo4RMnewaKySwgsLWfza733c0nUcL35UZ/mjlwHp3fLzHEarlspRv4X+83mu9Ak+LoQP4OPlQKfXPbi1s2sAe1XI5N+N0UN3x8cJ6f8FM4t9dfOhV3cFKtYQcy6jv99txt33PtLchm5ASokFb1G3s7YDLf9fl65s0Rs5mDk+Wl6sR0qWtMu9fhNPuI25IU+Wgxt3qTk+ziaFHhyEDLyunHhcRgaWLpHbOkD7WZOe8Mn8mwG0r4Xq92OmZ2pzK1VHOULb3ZmZor96QFLXOsL7KygvClH5cSqWLyRe20blln73JPNsFdJV4FrLy1jR5nSl5rhpkys8ZU8cawzXqNlau1GPpJCBAChEBkBIyE78Xvz8sMzxv+4ld+NXJpaIKtzR6nj/ZdQESTyg85TwJW4ZnK0rp7OakluvLLd8sCnAld3c5+v4Itwp4+feDMkZRmFJ99QBFS+URqZfytZ/VWDEKDqy+VcRwSmmtkec6eNPpsfVkB8iOXxDNuOcc7eu7as0f62/1Re7RTPA5ihI8fZUgWRt4o4toi1C3lGR96mRnc3VjW1rvXHLaaT+iSmBTHBnKgsH05jS474ijShD9U5FkoF/iCbLrMIgImpMWxTdyvHoqIIlBXhDx9VbHZUuHWc8+33Nn+iO0VUrtPBQhfPjGwMrGm5CYK4QGzYTduSRfMb1izZ1uEcysLvQT7dvJ8IzlaolUgbdFDm2Ftux82G3gMUkeRfhMChAAhEBsBI+F7ODnlJXnyk9TA34xdqpKQzxUZLzB1BxWFzOkE7moQvpi72jk9yidfydACRUjm+55jpMSyeHFJbREWEpoIn/m4BswnadTT2bxVHH3hMC31LTpZiBE+sATjMp+kvCB80jKx+xqYgb7d0KQ4NpAD5upSsluGFuL2aaRrTnRsoZxnBLIZc8CEFNPnpqp0peQb7Dq9s7N2HM5EkysTW24aqJHg60CiGjbkbKxrDM9AiITkcZR1CZ++2i6yRatAfE8amyEsdnu/QETOFCAECAFC4LwIGAnf/c8fyPTOG/6r//1fP2/hTvrGEj7jTRv7fuvFGL1ojHbRcsF3tQfnARiq5APGP5/LWOG0hLrMCgkNLME8C2VZB1u9Ni9XViQd8YbXF2HCSX7LOWJ69aWsJ1ojwLG65w5wAuvmAIQPWxln54S+dnaqaXzCpDg2kAPmHQ+3sfMfrihOCCMoehwLP67hRAPZohE+SJUuZ0yezJ3suTrqGr0sIOgr2xjQMmxfppzWimzYkLNWQW6mGJ6wapwsIvPZblLLiqWsIHzu0SI5TxbG7MQCqXyaoQU7XI2Vq5dEvwkBQoAQiIqAkfA9/bVf95I8+cno370XtTA8PnCOxMNtNMLp2i7crsbuPRuxLxhNJA0zfPF6TJReoNIgD2FMVSYgY+3IeR3udo2zD9XyXma+OjFbST5Y6Rp2z6vKg7F79M9AemxVauO3bVEVbgcaKQ+F5vyQjeGOVyStM7vjcEq+Xc/NmU+26bmhNVLfd66bYzfM3q3MvDlmm6jw/2Do/cp7JMVOgOYvDku64jm5Q25iZx57LFbS84nh8uhC7VBbOFYFwwiKGsOyODj4BBIAa7RwVEjr0HHpl8wnBoq35naWjz0r+44U8/YVeV4b9jzBjlaoU7a6WpYV0rClhLEIn2UVnfvo8olUvme6urit7YOEAmIpC4TPh92iVQBNzNC/2TIFVi5ITn8JAUKAEIiLgJHw7ezsyvTOG/79+T+IW6iWDr5u2QxQ8H984LyChA+OZ/ocXqntTTwwnLi0B2ac8On0RQYZRholDvoQUu1u3mRlGYc9PlS7M3YOQYT4DtNy3/La1w/24oTMsmrqwdiBYu/s9vIHL+9Dh15QwRKrbNoEkklxQ25nB1PixAy7UDjfM7mZ28UZVTDhg4VywwQSyBaR8FnWp+Vn4oAOI/cdd8tTzukKCQ8gWM5mUL//iwPIkkMl/etLytiyrBCGrSaQctYqyI1nwLN++GpVHMphOziHSyPO6Qo3qesHyrPTV1dcVhYIn1EkwwwfNx7kJJMrUmDlulEpRAgQAoRAPASMhM+yrO/+0qSX5zlP0oN/O155WCq4bSncPfGtR/gwnWI8M+9q55mJMxbJPPO9N706kdvOvGKHTw/f8lMIF0D4DMc1JIX5aQZYHHQWeQXD42rCWydyqqy77jMRPlbOp+rSZj/48mBjdqrQ90xb5DVQNCEmnj+Muwr9NS3VOXnVT9e2R8YVFt49u+td5DUQFCGQ5bdQzmKBbJEJn13Eh1pmtsTc3YkZuzurWWmRFwhfaWqDHyt2jrh6/38o0WtI5Uv4Ag3bxcANQc5GduWHp33ddo/jJM/Rd6g0JR1agsyjKXtOwtdtmmwOVbkuMhQiBAgBQiAeAn6Ez7Ksv/dz/8DL+X7mZ9PxCjOlgv3gwVu/3dOOLTTDZ1Ir2vOgXe18O39isDzj9ZaM7a9yKYJOX2TB0OkH4BbehDALdfOZ5tBEzpOfDHVmR5yjtdKKLV/DdVYG+dDrXXTGCZlcinV6XMu6zmXyqo+VCyN8INKH48Wc6/DFe/TBj6CwPHyOazhFwEGTeITPyaP+sfqmmhS+A6XT2XDapji+BhqF+AvMyY/wBRk2XgycyI5F+HiWnw5lp0Wp0gy45o6nbGzCl3Qcsnhbk6s6LPsaK9eNSiFCgBAgBOIhEED4LMv6/fk/GBwa+fE//xP//o/3/vWf+RsNdbkMMgv/asniuL9zB3Fn7lUjfEG72sF5Dc60+B6pPD7D5zOKCN8iitc3I+ELmoXiFcr3orG1aT59K6/Y8uGWkTy+HRBZxAxB+HhhwquFsiXgwgmfI83ZwTifetSvGwkgfH7HNbiiPAcxV8ofwx/wNaOsQsJL9e+n5a+4d2X39AyYEFIXamL5VwjCF2TYcnZymBsA7ASQX7FweIZUP5x33M3k3ZNJsZSNS/jA0aBin6o+Yh+zT1NVU9AvQoAQIASiIhBM+KLmGC/+4QLvlBOD5afb3i1Zbq582LtihA/Ge6MjQHwOz4EF9kgx7youUO4MX1L3lwuRTjMPHUe72qZ7E+GDxXe/uQo7b36nQunpse1GWLtDxdElVckeV/vYihvmOSU84bMsx8mfeo7nkgifZZmmpvwJH18o9x3vQc3i6FuoQPdvffEJX1YOQfgsCxiGGxnmbhOfrS/6tT+3SGmnnXmGL9CwlfykH/AponhnFO/F4QxfxCA6OCMUdhtL2biEz+KVmyykl1Bk68viBp1Q6oBa9JcQIAQIgSgItArhsyzX8b3rxd6rSf1k5r6zD0kfY/wHVG9OypMo9EJJ2JgfwNjw45l2GTDDJ62N8rJdrmwkfPnEZ6s53Zluvfq87FxL4Fl/NBA+cVwDH7ckLOC6iOR0hW0a068AcQbgQnrWfosOcliNlJ5VRl/rt3tZMImYUKa+mk/4Xq3fyh15vcPA6K5xaAs+VPSZP4Ya8A98+lbgyml0njmCEQ/twOlbuMghmXc5HHu1M/KwityzzHlYXprPcylj5yTqaOZT6UVlXHH0KE4/6I0RpAth2JaFOl4WmCTS5Yxmuu40qua47mhqev2ltDGRiwGbCKVjE3GUjU34LN5w8onBitc5zuHS6g24F5scL4Pl0F9CgBBoPAKtQ/iYn4vcY2nze7rY+3B9ap65YmH/suvJB3A1O5sW0scYPqAa/fBtZ+Z3l98bEMTohSFqEx7DgITergHlAQlL5m88qvKLvMp7U9MMse6HZfuiM8MM350Vdq2TdB1Z6c22eyGb/yW8ULxlwUSFfruGFMMN8g1nnYNsBtFdN4QIzppvR5q9xadwsBpxFhC77q1O2UdV2HkCQCCRzPd8fQTZ+x+zsGNh+btzomIqiOeI0Ucnhztl95o76cK6zkc7GheEfWP5zvsbOXYPWy3z9XbJzj/kQrkleaXpvA/3pEGhnZMVe7pUJ3z9tkOW/kyV36p3cLQ4v87vIx6sZOUWUd8bEfcUD5fhMrqT6tZ+JlPptW9DUaeQgwhfKMOGFU9WgzKzczlZYlDcjAfCD1b6nQ8/5WvBbiP23WVZ9xK5Tb5nMbWiTJ9HVzY+4bPqyxm4oXig2J/ZEfciTkzaPd6DdX4ps6KOZM4UJAQIAULg3Ai0FOFjcx3V+YpyvE4cKpQDw2V+a6ekP8ygSOcQ5SQsbNwAHqIrl0pqdJBTAT+/rHaR0ild96xlMs/mY2D/ljoeA0ec3GGTKGIWQYZlCJlyMPAe7j8lYBYKwIGVzXxCv83CjgGTVfptvJAcrRHYMYZU8Y3Hu+qkF0bRROYNccvCKSMiTOf9rWXv2t37naS4QcupAj66+/s1lIW2rLXNm/JJW1GVd9dfHqMq84eywfDwYGnGu1/2WPV6I/J3AgMrUxuKPFAj+teXEymcYZsIn2XVaxNjCLyJ1Mrom1NsRh8MXhObneMuppc0Bm5ZEZVFbVKBA3e87ERRv2ZlCcc2ls9AciJ8KqD0ixAgBBqIQKsRPlu1+sflpc3RBytdYr4hmU8MFrrGyiOZbZMz1bYlfPx4Jj7RpVV1bW9qcqUL/E103i6NvLBXFfEdfjCK2PNVp1s7E5MwRZrKd90ujeQOvN5D7AKVhFwEh6J5/adoEoqfcOVGAnUrCGu+6jqsSGzwk3f2bjG33jdW6ATS0zFU7J3eyK55/eui7Ccof+H6JMwMX/3j8sJGcrwoqiMxWOh5sD7z5p2HWUC5dvVx4QcKPV/ssNtf+HofujMPEsp/awczs6Vu4I4dQyv9z/bsekRVrp+u7UxMl7pFUxpg7Wg0t181uon+VFrY6JdATgwWuscrE/OItfgSvrCGjS/pOirXTxZzq723nZ2m+US60DO56SzaYoTPOt3dn5kr9wxDfNvOk5kdzFOjU0AEZc9H+NjX7OHb6sh4kRuA0wad9isMjwifbOoUJgQIgYYi0JKEr6EatnpmsKsd24l/Ttkx3hYzSziuoe/Gi5kdJRMIBPs1FFHbK9BEw24vIEhaQoAQIARaAgEifJdbDaF2tccVsXGEL/xxjbiyXtN0IY9rtB86TTXs9oODJCYECAFC4NIRIMJ3qVUQald7bAkbRviu7CxUbGgblDDscY0GFXdx2TTXsC9ODyqJECAECIErgwARvsusSj7eBx7XiCljowgf950b8rhGTGGvYzK+UO51tdPuYDTZsNsdHpKfECAECIFLQIAI3yWAflFFNorwXZS8VA4hQAgQAoQAIUAINAcBInzNwbUlciXC1xLVQEIQAoQAIUAIEAKXjsAlE74fu1f510be0r/GIgBWhRC+xhZEuREChEAzEBj5jR1oxfSXECAECIHGIHD5hA9xCSt7JaVwdAR8TIPQJgQIgdZHgAifTydGrwgBQiAeAkT4MFf+0TlWSw0hPqbQUnKSMIQAIYAiQITPpxOjV4QAIRAPgUsmfL+9eEz/Go6Ajyk0vCzKkBAgBJqBgE8rpleEACFACMRA4JIJXwyJKQkhQAgQAoQAIUAIEAKEQCQEiPBFgosiEwKEACFACBAChAAh0H4IEOFrvzojiQkBQoAQIAQIAUKAEIiEABG+SHBRZEKAECAECAFCgBAgBNoPASJ87VdnJDEhQAgQAoQAIUAIEAKRECDCFwkuikwIEAKEACFACBAChED7IUCEr/3qjCQmBAgBQoAQIAQIAUIgEgJE+CLBRZEJAUKAECAECAFCgBBoPwSI8LVfnZHEhAAhQAgQAoQAIUAIREKACF8kuCgyIUAIEAKEACFACBAC7YcAEb72qzOSmBAgBAgBQoAQIAQIgUgIEOGLBBdFJgQIAUKAECAECAFCoP0QIMLXfnVGEhMChAAhQAgQAoQAIRAJASJ8keCiyIQAIUAIEAKEACFACLQfAkT42q/OSGJCgBAgBAgBQoAQIAQiIUCELxJcFJkQIAQIAUKAECAECIH2Q4AIX/vVGUlMCBAChAAhQAgQAoRAJASI8EWCiyITAoQAIUAIEAKEACHQfggQ4Wu/OiOJCQFCgBAgBAgBQoAQiIQAEb5IcFFkQoAQIAQIAUKAECAE2g8BInztV2ckMSFACBAChAAhQAgQApEQIMIXCS6KTAgQAoQAIUAIEAKEQPshQISv/eqMJG5DBI4m7uQTyXxicieK8PFSRSmB4hICGAKlTJGZa7I4sYG9pmcmBBYqNm75/gVTjIt63jqSXJTGVE4gAq1C+LKT9nDIuhj130Cha3ilb3p9aql2WvdVZ2OjW0ur/9Q6r51+O0J35sg3X+clj6yLJxUBLTw4ppyJXLoRBFFKNLoQQq1IUXY3bzJJCukl/5qIlGmIyPXaxBiziu4v906Do9dzXxQYwvc2q8GRw8Y4XKh0pfKJodJMzPEvHnUzpIoGSFgdg+NdlgEES3a+GPXddJoZ2M1n786XUcul5l3KnY1SRNEiEb7qsxXW4tKruYvtGCLqdCHRI9GsMA3qeCc5lE+kCn2/F2acknSMJImUjoJXGIGWJ3yC6yTziYHirczeoalPIcLXZDu9tG4deq5EspIN1LEpgzcQr2ReJuiBskgRIIdolN2QKhIgkhDnDF6aAZxT7sDkS6sdrJ9ZmdoNjNpmES6E8L2busfocscXVw6+GLUNbRO+//2yCNOggHnnE1FZexRJ/KSkd1cIgRYjfMPlqfntjPTvaWa1f7zYOSBN+w2Vn25jpA8I380vlRyk3HaX38tVF2eGr+vhppShUtAi7+7eLUryO5GnHtpzTsmVEc+r3NpHIRPvnT0guCW+ucQZiIPRz1gt3Jg7EAJfUCDKhNbpizKbbEiVnyp1fV5Jr94M3+nu/sxcuWd8M/Tcz+UZwHlrzz/9x6ffs7uX722HmD/2z6rl3l4E4Xu7foPR5eLo25ZT/xIEikCzwjUomuG7hFq8skW2GOEzfcTUPy4vrPcNAe0brGSPPVUChC/Mp5WdOA7hizfBA19pARNUsXtnDxZNeNAesyAtO9lgmKsLqKh4qQIydV5HNrb2MIBQuiuRwiyrKQna6UfkWgbloMvStsHAa/dvU3ZQuNm3XSg84Wt2gwovSduBTALHRaBNCJ+j3tnB+F3gfA+qh5rORPg0QBr5s01mQVp3siEedYuXKlTFR6QCbWIAoVRXIi3P2acTPltfVh5fkR8Ra9nVOizhe799K8X65Fsv3JUKN5drGApLs5rfoMJKcg0r6fqq3FaEz7Ks453+QYfzFdKv1YVdInzNM+P31T57M2X/gop580qMlfPiE3vp3DRPHCvPBiWKR93ipQolcjQq0CYGEEpzJdL+6DDrT+LN3Cs5teSPaLUsqRCS8J0+L9k7KCrZlu4YJMWaHQxJsy6gQYWUpNmAUP6thEBYwrey8vZNvvDDH/6wScKH75j4Ji2vhwsifE2qG8sKs7m4aYWHzrgpxzVClx4QMR51i5cqQBTndfgWZ7WLAYTSW43U7GU1tbSL/xWplmXxwhG+lt1BIatyseFwNOsietRwklwsOlTaJSMQQPh++MNP9/7+/T/9Iz/6rW9/51vf/s63/41/a3BoZH09pmsKH10jdEwwrifSqy/lHInwyWg0Muy3udjZ+997u9Bhr+yww3pDK31z26UzRAIYRZy9jPXDt9URcSInle8aK4++OMI2zofiPZ7jGrC7KFnCDnDA2xQ2OQHf373fnHA1eO+JbWmqnyzm1vvGZASKvdMbOeXMoqpC/eTls3IP7EntGFrpz+xgiKmpXERNz1mM062dielSN58IzycGCgzY5zUHWKgC2Bohn4I3zoziBgBZYZjYovo0an8hXUXtEIs8udIFGnUMFXtnq4s1ZE4JRLIN7OwoM73Cz3uNb2FnUwzLamubN9P5RHplYk0qImj4VIrWFKgdsPMxUN2JVL7rdimZ2cXdBp0dZTPlnmHnmFc+kS50j6/OvAU7lHOWbbJ+8jJTvmE7l2HuUSCaTxXYUT6VFjaSahucWGBtENQxVi5LbtxBIW+Prh++3rhln/dKpPLpH4Bkzt/wyop0Z++c5uae5Bss9DxYfyqdfhNxLQf5YbVtzlYXdz+5caQQaB1oP6zvGn2w0uUAnsx33i6N5A6YB4kgO7FLwxsUOxk2kE8MazvUZTAlWXnwnJJ4M6QnVxkBP8J3cHD4F37yLzlUT/7/j/zov7v4L5Yai0pQxySXVs88dIarlYkt6TkRPgmMRgbNsyCLXzneWTH2gB2skfrT05dztu8umXA44bHNZWmctRXx4zegKTbZ4Ha+eo6Wtee4XmNuBV9DHuIvTyj56ZAHVxHNsqy1LfcskaqLenhIUsE5dqdGZutiQ1pHb1mWlEou1Pj8NDdrqBEgc1AFWJVBHKUoy7IMBgBZGTmBoVEHCykJYLaTVCE5r9MgEKmSfW97LxMgo6oZjmtkHwE4jyQv2a4tSdJJQbdo6aFl1Ze/KTEPjkISN4Ac4Tp8s35T9kjgRs53PdrWPVK5Nnk0ZTuqhFLcnA1VYIt4vD+qpHKF7Hq08zLY8TJ8MiEOL12OUnJc9IEicqOIpiwTuX74arXbgI9nUf70ZcaEPNP05ty+vgvcpbm+9lM/fsq9LriIceTHNpfnQzhexhvU8QTsUO/5Wj6T6IKpWBbD49yS6DnS7yuOgB/h+5mfTcs8Tw7/B//RX2gsMH4dk6ck6FvVoZoInweoRjyo86p5UPXOvTmvuu5VJnJ7ywcn1YOTanln9HOYnPD4uYCKq0x8zdhe173VqaUaS3VwtDjvnsLunNxR+2IT75H047VfGC1KD2FHecfjPempHSyud8Eg1PVkX3v78rFnL6A7uEpx63tpZ9ppoJjMAgJb+9nset/dfFJxtQ8qPNwYv8M8SkJ8VXFdTkile+/Dn1e/sTdUJfNdn69n3hzZwJ4sL1UnpktdY+B694NdTQcn3BfJ7fWXTsUdnFRr6L57owFAbUYjfKGE5BifZh9xW5I0OlrMrd7ks2XF0aJC5UGkcvpxITFYmlh6x4z2Q21mDpnh45GH1xelKrUsq5GE7/Vqp2Nmdypg6ielNztTc+WetEvLnPK56x9G/Uuj8/slu15Kb6oj9zgINzRDBZtMPy4lUsXkC9s1/dm73JNN4a7S2K/Wa4JeqM1wo9++EubGZ06hxsq16jv9NpHte+41G+AoX6z2pvI3Hm0vf6hb1qfq0vrEK451ZGVt6szBTBVuzm7mytySHQu/9UywTiQNAAAgAElEQVT2S+xaTmJoZURqm5lMWVDGnkxNrXkxr+ljP6fZSV4diTvlCaim5aVNp5pufMa/uGRqq5ZialBRCd/5JVHlol/XAAEj4Vv6o9cyw/OGv//rXzUQH2PHhJUB3bp6fQ0QPvjM1T+/PJ+A0Cs15KYNfUhW5AaB9S5eiWRZHAQgIh5FApJruTXmJ3Am9BRe9vuVzJZ3ceT06QMH/NKM6rMPcMgnUvmerw50BukOQtqJHJzfyAoazlp+5JJ4Jnic4x09d+1ZRv0t38iveByEwVW+aYrvWE8WRt4otMMWrG4pz0CFZD4xWMloy5HH2/3O2pC+vgypdOtCn3OxE/c9B9jZZIAiDaM1zt02uu4yqHbYbABQm0ZOgBURQcjTVxV7gC/cei5PeNhSne2POKuE6vQSiJRPDKgLsh61LAtfVmMRG7akC+Y3vPpSh99TI+93kvbHQ+f3qlU98qeXXzo0QppyttzVw0Sq0L+gNyZHY6wK2BsBFNYMTzKC05ivVvPsoJAh5l1rIpX3fLzZ0WIouwYXKQ15mo9csh0+XajYnrTzGJiWdbw/yufSdN+BAhaT/bg5T3omXK1Py1+5qxZGwmduUJGWdBsgiQc3enDlETASvn/8y7/iJXnyk8H/cbiB6Jg6JrQI0SyVRkWEDwXrfA9jbi7m9CifhA96RwpRcQmvVx0nBl9l0+6cRfmNpBhs6/RejQXzSRr1dAb74ugLZxRR36KThRjhA3WMjEcSEVQwXEzHzxcn1RlK49It5KYQQRhllYeSCGowZIvzMYBA9bEiwgvJCVmnPuvJ1YDDW8q+DhApxK0P+LKaipH8C0xa6XOkCFC0/FUG1RTIqi2Lf7EMYtTQsixgCcpiH4jkc4sgVgWWmJwzNkNoUOa7dLEdFC4aUMuGy0uiKwu7LVOlpx7y7xbLQ9xyEiYwLcuCwUK7HQQq0WQ/UKGfrS/qpNwpm8OSSKqTEZKIPg1KiiUHOZjqhEUDJJHLoPA1QcBI+P7Bz/+iTO+84f6f+ukGYoR3TIYCRLNU+AS0YdNNG/KdFnbGaEMyFGnxyMabNnzvwACB5cEAKYiDYLxpYx/f5Y3k1KhH5lkQ/xKgLrTREXDwuY1XTIrIC23QuxmojN9kw8FWrz1jqiw8OeKxtTw+4SS/5RxROxKEET6xQbt7zjNbqeMDKngWEHnEV+jWH0ilK44+h4fpsj6DqAvDfodrcX4GALVp5LtYEaGF5CakMWBJE8zGQCR1s4eUCIJAIDy7DiCC5y+wK82kRTwoWm7jsHiXLI6/9U6Ei6TuZk3v7gKIBLjJlgAiuUeLILb4i1WBmBr0aYYW39VgmuEzHtdwSgbCN76FdVlclwjKQitWJt2FkloADMP7+SdFhH5GbeZQiQb7CZEzfGGaCJ9fg5LEk4PYONUASeQiKHxdEDASvplf/V+9JE9+MvzZ7QaChHdMhgLwzgjagKlH9mSGNSRPJHgQKTIkgr/Qj8iDAbyT/kYCQUqnB6E4fVHb/L2u58B/vw53x+jZh2p5LzNfnZitJB+sdEln4rS6AMHQY7O8zGV+EETGChvtXJFPZsaZptrHOrxH0jof2c54w23JHUf5SKDnhhK++r5z3Rwr/W5l5s3xKf7d747oiYfbIJj6F7deRHg7Gf780HGK5tw6PbezfOxHMkIZm68BQG1GInxWWCHn7SvyjNsbXNuWJ71AJHXKVkWa/eIEwo/x6ImAXWkmLaJB0bLdWlbRuXbM3sMwXV3c9m53szOob/eH0JTt8bgrXYXHRTKwEztjtJahiZUzRnMVa7545fJWo66nCygs+DxG9s6y3QXRlQVNlR26UnlKkFtOcXxNeaz9gPpSTAV96CYMk7O/nfg2KLcgJYQNPeeXRCmCflwXBIyEr1AsyvTOG/6d3/2nDQQJ7ZgM+cNol1L7VnzINOTBHmMNyRg9UmQ9F+hHVIH1WCEnXTzJPA+gOHdQhO2AePftycB5AKfw8M90O05tb+KB4VioPYBpoyMI5ocDFgdq3KVlksjirKX3sK0di2fofso7BBGGSaeDdt/y07u6i2nej3sArO2O2JvcOcIDxd5ZZ4u6JCEL+qogrTGpiJlSmZ5/Wn6mnEzsuFuecg4uaOKEmuELMACoKQ8mUJahUYcSEjL32rD+RF7qglR+Bia7FVT8OoHY+F//gdzdFacV7TlYOlwacU5XyMVA3wXtVNfRfS6vDptsUsoZrQL+0LV5KQEEAUmscmHB1zyz6NtbRlcWhFHIGUiq/xWRMWdMUmQMPUirVSJPBW99xfCzk4AGJQknBxEwzy2JnD+FrxECRsJnWdZn//MdL89znvylv/zfNBYktGPCixDbvLTlGOhH1CETz8N+ijQkc+xIkfVsoH3i/YiIHQEEkaZ5Adg2hB7XYMWubfSAvwnme296dSK3nXnFThcevuU7rLW6CIMDFsfEb5gUhuMaEi78QC4sDjqzO2K042rCWydyqqyPFtjwAGV8qi5t9oNLBTY2pwp9z7RFXj8VWD649ZpSmZ7bEn2oZWZLzKGXmDS6s5rVjomEIXxBBgA1hXECWxA/ew4SEjIvTW3ww5jOoWPv/w/ZCVD+H6Tyb2gxltXEMqhpqU5MiWFFn73LPSv3gM82Vi9DpSl5kRdqv/cZP1vtVZM/kU9S+9kkBwStAv7w9obPbXKAJFK5fjsoeLG+vWV0ZUEYvylJMAFREUGRMfSgIKwSXU7vm7MP4QtqUEIFNYCACXLGlUQtgH5dHwT8CN//P6b/1F9Lejnfn/+JvrW19cZihHZMWBF1WM/1LMdAP6KRDCwT5xnSkBoUWc8G2ifej4jYoUEQKZoYCNpcDNuTB8sz3oO6hroIgwMHQRAypqKZ38Bkg+9+Hb5Rz5kKco7WSiu2fA3XWRnkEnp90GDDg4b+6XEtO+dOsPV+806KYFbBiYQjZkplei4VWP9YfVNNitlHzwb2QGMLMgALDikjnMCRI7AIyywk7IUKWJiTFGbBMAZmciuoZaX/BD8+pu4lRNGfDmWnRanSjHDNDXvUur/SHYXoYsi/Q9gkWgXgd8avO4JlX2/l+h/XcOTz7VqjKxvJGEJGhvpStpfAQxyZku1MKmBjDGxF8NpJYIOS61YKI2CeUxIpcwpeLwQCCJ9lWb/yeLb3J/5Th/b9uZs//vkvfvfTJ7+9QfHwQzsmb1aHC46nhnzCu86ID5nePMQTpCGJd55ApMh6av9+RMQOCYKI38xA0CzI1maPPYGEMy2+VUWfDgEcvKOIUAXcdiiUy8hvQkw2sJz5RwKzGb5bX16x5SMEK5FvB0TWqkIMrlyH2ja/7lk5n2FUgafCrdeUyvRcwCgCrqsI+WBKiEMbQQbgugWBxXFRJg/Uxm/bs4zyKqQex/mNCQkmhNQFngl7CgaGD9h2uujHNZzioIIM8ghv8D5FOxnVD+d5JyadWgA34N5uzUmE/j+ETaJdCtAFmNVGMoczDd5DGwHHNZy8/HvL6MqCMeC9jSY/UHPfyKCg0kiD7AdOVmlNSS4fjtvrXZ+fGyA5PRLGwDyXJEgZ9OiaIBBM+BwgPnz4cPL+ffNAQTsmrbjDN+t8DTGFOdmCHtn7aaXlAz+xhgTvPH8jRdZThxiHWJIwIOhZN+k3dOuy2zmlKD+0YauKxzcB4JDXXchC1ofzZceBljqsmvgNDN7o3j7Ik/3lPjhKT49tb7GauztHl1Qle1ztYyxW9Xbm5BNicBUFQqcvj/0mFSARjqcplek55Cb/hWvi5L1uwcYWaAAWO5HgOK/Gz06K8wrBhM+yvELC3G3C6AJDVpKHwcBk5NVosKwmM341huEXSJjQdpI40Y+rfXx7g7loN2P4qnHtVjQZ3ZW0m8gbCmGTeJfCK9d0zont1ujm+wH0bzO+gyKgTv17y+jKRjMGIJQ+lgPNTTPdAPsB4zH6wREONT1dn7iGztijeuuXP8HAPI8kxoLoxdVHICzhazYSeMckSv1Qy0zD4YBUIYl6GYU2TIRPwBY3AD2y8RSeZcEMn7Q2yktzZ2E9vR70p/lEqphe8riK3a7eci6u0NcfDfxGHNdYcndx4SrDrQDJadv7iT5mOwNwIT1rv0UHM2xwLT2rjL7Wb/eyYBJRvevZoIIQF7deUyr0+c7IwypyIS+M7iqHhq8L/4uGfQyAHbfc5dfTpcsZzTva2cG42NSo4BleyPriE97kOxEnt5ZlfSq9qIzjjh6NrCvUshrqeNmCPQzJ4rh8xy7DQfZULBd9NDW9/tKze1I41VMOsQp+7PXLbRvJ6dZ28vvSVW/uDKvOyYRNmWm90KXQ77mezjreTTtOrRnnUzOHGvedPAtxHi66srBQm++8v+W5etGyatsTOdcE3ciIF2vJ8bLHbqGDkitRhhM6xiTuN37mPlzCoXd9kNC3QUVxvAwZRpZEVofC1w6BFiN8ugu66sRsudftfZgD/dE3HqLg1BoMmSY/fJn57YziLY9/ORld681vS677giNnfsDvp/caUVA/wlNw1quDsM0k5/92l5s4zQqCw+ej8bgGiwicI5m/8ai6uOXcq7Y3ZfPy7odlZ4ZAI9+AQ7HHZgPd03A/0tZ+xt395r02AMpyZ0SYBMHHNUAhRsLsyz86B1mP7F2RcdZ8O9LsrfbRz/NACZ993yi7mco+qsK21Zc5Aolkvudr+a4nXAVXQLBeFTFTKvS5baIDxf5MFW6dku5tG6xkVctxB8X7GzlWfbXM19slR6BQBsCYjuBkiUFxGxgUOljpv+9d0o0iZH1vhF+hlk8Ml8VtY9Wt/Uym0jvMMlfhClqS87ldw60Jw9VqluRQJiVuxjtZXtpkGyVTK/0PHXoqcwW7mux7wLLuTXd2fHayZ0Wd7Km/nAW6MFC8NbfN2xS7dXAjOW5nrto/uIFUOZmkiJnwKSeuuic3svyaslrWuXksVRrld3somYfcQRHCAUJ0ZS3pJrH0Sn8G8CnvTc2udKXy6gS2FNl4tZq3nwm0H8s63uEbNuybIWd4tYrr/oqjT7g7IcUyQzWoiFerxZNENQ/6dd0QaDHCx9cRpAOG4kkq3zO9jUxgiBqDIdM9nCjSioDSY3IO5xNf6kSCIyeUmQwhFgsA0ZEHAyWC84MTPiEtElD6XySLRjziVCC9mvOfOJNO6coYsvkYWBJSej0Zh2P1bnuhaaqQ9E45CHKpVB9fuAmabOCIwAmDfAKd0+JrvvmEftcFAGomfLLuInzj8W6064DBelXEUGInsW0FELOJDpZmtEkpdnkDv8tLyCwMOKwBMMpXmxhDWyv7MMOm7SMKeax6vRF24gQGVqY2oILsvwENLZwXNDjTkE88UmfULOmGVkUSdvnbss3+E0m5jUP1KZFtuNAZbus0NwvrGN4kyfxN5bpYcXDYr0/AqoAjdri0egNO2bs2wJw4rky8/QRIypn7O7yUK4LXstR/ym+dcERlmbEdZx4Z8ZHdMbICfCObJg5Aa7kSPZKvbfU6CxFaHTl9F+8olE+RcA0qIuFjfhIiS+JRhh5cLwRanfB1DBV6HqxOzO9XJecLeBXBkKl0XlqbDDlAQiqpwzIPVBBZjJde8UL1I2IPn8gQCcj9r7echjzhyz34RJdWQm1vanKlC/xNdN4ujbw4YhOwUBcqfVGJ79lRNlPuga6zY6jYO1td9K5/sRJh4JSrz6FoXv8pmoTiJ5wNRI77sOGB3wSvrsOKxIbB9ezdYm69b6zQCT5QmBbTG9k1r39dTAUpewNiplTo8/rp2s7EdKlbzIoNFLrGyqO5/eqZXJIUtquPCz9Q6Plix74XIYoBMOhOFnOrvbdhdipd6JncdNYxMbYRXUjrU2lho18COTFY6B6vTMwfHHo+SHwbGqyC6Qv6EiBOEF/Sdd5xYTocqjRQ6B5fda6TRos+3d2fmSv3DAM4qXzX7VIys7Ns7s1Ot3YmJle6oF0kBgp2km2kaWAfIZoyWBVIUWoHM7OlbijLboP8oxrUkTocvoNCv39Wyk4EwxA+FjmCsjxvsB+QOZG2jWHB7nZE+RBg+UdpEaC1L+GzLMvpu0RDG3RtHqZdZcIXtkFFWdIFDaNJAqno73VFoFUI33XFv/X0ht36o28bL1vY/jS4ZDiuETh4B2dFMVQEmmkAakkX+yvUstrFitRWpUXZQdFWijVb2KvaoJqNG+XfBASI8DUB1DbOEmZBfDcXx9avYYQv/HGN2LJe04TNNYBLBDXUcY1LlK/Fiw57XKPF1bh48a5sg7p4KKnE8yNAhO/8GF6hHJo8C9IowkeTDc2yuSYbQLPEDs43hFvB4Eyub4zQxzWuL0S45le2QeHq0tMWR4AIX4tX0IWKx7v1wOMacYVqEOHjg3fI4xpxhb2O6ZptAJeGKV9WwzwsXppMbVQw30Hh9cHURjpciqhXtkFdCppU6LkRIMJ3bggpg9AINIjwhS6PIhIChAAhQAgQAoSAjQARPjKEi0OACN/FYU0lEQKEACFACBACEgKXTPh+cnKD/l15BIS9eQnfldedFCQECAFCoBUQEP0wBa4tApdM+H7snn2ZFeJwDvPmStHaEwGf1uXnNLE9lSWNCAFCgBBoNQT+lVTepx+mV9cEASJ8xCybjoBPW2q1bpHkIQQIAULg6iFAhM9nGLo+ry6Z8I19vUf/rjwCPs3pyutOChIChAAh0AoI+PTD9OqaIPD/tXd+oXEk+R1/nkflSW8nuIScEhLivERvMQkciAQikkAM9xCF/G0GfIpASHv4FhnHQdkcsTiM0J5vo8XZsBYJy4AxDEuOYcEoJsreCWNQNH88M7JmNIz+SytrbTx0qO76VVdVV/f0zM70zEjfxax6urv+faq669tV9ftVjwXfFaGMYoIACIAACIAACIBADwlA8PUQPpIGARAAARAAARAAgTgIQPDFQRlpgAAIgAAIgAAIgEAPCUDw9RA+kgYBEAABEAABEACBOAhA8MVBGWmAAAiAAAiAAAiAQA8JQPD1ED6SBgEQAAEQAAEQAIE4CEDwxUEZaYAACIAACIAACIBADwlA8PUQPpIGARAAARAAARAAgTgIQPDFQRlpgAAIgAAIgAAIgEAPCUDw9RA+kgYBEAABEAABEACBOAhA8MVBGWmAAAiAAAiAAAiAQA8JQPD1ED6SBgEQAAEQAAEQAIE4CEDwxUEZaYAACIAACIAACIBADwlA8PUQPpIGARAAARAAARAAgTgIQPDFQRlpgAAIgAAIgAAIgEAPCUDw9RA+kgYBEAABEAABEACBOAhA8MVBGWmAAAiAAAiAAAiAQA8JQPD1ED6SBgEQAAEQAAEQAIE4CEDwxUEZaYAACIAACIAACIBADwlA8PUQPpIGARAAARAAARAAgTgIQPDFQRlpgAAIgAAIgAAIgEAPCUDw9RA+kgYBEAABEAABEACBOAhA8MVBGWkMGoG9SSubsLLXUqet5Px08X0WKrG010oo3CsTIIbvV4ryaRxHJdDHANfL7OmwspPrUQuD+0AABDpIoF8EX3rJ6Smd14H7UnD/PzybH39QSe++i1Dmd7Wt2vz94rXZnBfDdO7aQnlx/eSiESGCxpvN9crcvcLItJeZoZnc2L2dlZfnFJ7ep76seonKl3rY9+9Xr7Oc5KaeRyk8le+b/22cLN5hAK99cnDRPLZG5iOnvu5Wa81vjnrH8Xp5JJlNzBRXKlGDqPd1VPCd7Vkz2UQyN/GzluSjmqPWf9WeFFibnNrOxFv/redUDkHPlyb4WmtUcoSRjgeTlbFoXQdYTOWdd105bUw/5CQEXwgcXAKB7hPod8EnVNToh/VaYL/VOH5RmZjxVJoI5R3czFtrZyE8j7fCYxBvN3qfyqou5Lh3gq9nfRi91hOWgBYMvrE/NcUq7vqTr4JvavWKV0ctDtGJhDop+KiDzCY0ESNS68rBV8t3Gdihj/a7En23IqW601i11KhaztuAsjKWs+sAqT1HeLq1DFIlYoRPA4OfIBAPgT4TfLOl5bV6iv49Sm1P3PGG64aX9o4NVC6erTojGa7qmsqP39+hSGqLD0tjjp5wld/ox/umGOzj9fIwibah26W5VI3nIb0zuZAfSmYl7fJm8xdeDvltn7gZyE0+8V3a6qCOMRQ++NTR/Husvx9dPQq+pztXWhmMuXhaYlWTLD163cnMXL4Rvov9w5XV0thCNepE58udUdak8/MvOwm2+3EF6JVWGlXLmRxUVsaCdh0gBJ+RO06CQP8T6DPBp33WO/wuXlbH+Ryrf3aysZkitZfM3cgYp27f1Z7vXL/Jx//GUid6rbzem3RFYbIw/0JM3Up3vT1NPahkpBP6If9yzS+2OYGox9eB38+3h1h/X1ju6/Gdvh1Z6eQIXwdq07b5mgfTA2KKvysT5aaEOn4uQK90PB0vwsFl5ZVBOuo6QAg+iTYOQWCQCAyA4GM4uXzJJn5cV5aFvdjmI3PJwsLL0HV+J/VJoRpfKHPDF18U3fG/9mcV+07wvXn0Y0fgarj6rWX278jKgAu+1/UbbFg6e+Ppm36r82b56bpe0TMwwKz0oji/uw4Qgs/IHSdBoP8JDIjgsw/nZx0FM7X9zINKrzYrN7mu6EDvFvko705yZROqfQC9v77B+Fy/Cb7XtQlnhnpyXZG2Mox+ON741JmvjzpqFWeWB1vw8W+YZDnd1/VvrFB6qONqFYPMqjcA6YWJNXxG/jgJAv1LYFAE35tH99w5WektI4b97tWMK/N81Gncy8rN572L9P7KTb3wTrZ21GeCr2fmGi1R64q5Rks5CLl5oAVf306UhwAXl2IWfAPNSkCTD7oOkF6Y0qtYTj/kmL8n4ZYlhBEugUAXCTQXfP/5WerG9/78137jt39l9Df/8I/+5Cc//dduZKfZEiWD4Hv2sWvPoai3JnkjjTjy6aF3J72Ghu7XowlHLyg/6i/BF2au4a79H7+VcyxRmIYemilMrNaLb32FsqnncA2NG+cbme3xW2RDM8W81aTM7nLUgP6InTM+cw1aSmUVTQYcdNU4akUjmuOf0xLMkBphBdmZuCMTYK5/MspiR1XwvT1NPSxeI2c9w7eKc5mjY8PgWVDB1dgUIO+K6xVrIT9Ma0wT0wzso1d8KpY6V/drR/1/0BhY0ES5woSlO0kWUUMzBStz5DX+xvmzJ6UxYfY+XZhM7ZlaiChJ4/hlbW4hP0IGUsOzzYK8PU2nykpzWnK9LxFDvXR03mT23kqrFnl2DsysLtIPmOeRkQeqlRgAOsyoTQYJPtYY5u8VvMYgnhcOEIJPbYT4BQJxEWgi+L4/PfOtb39H+/enf/a9g0NJMHUir80EH03p3qps8uROFm45/Z8yydssK42661A3sbDreX1rHExRXz5yvxbasQXEr/QEAffEdjrYXGPjM9eBlqobXPPk6XJa91ojdbFnh/OOaz3PzY0byspef+wzgtGUorngppEVrz/wi6kD13sLcyvoH4jlASULlaAaebUb5L5HdRUhSbRXVWHxoxT/TnVTz6ZETCm1FJt8/mx/znXUTDBF/MKbDHWupirTJZEbNSljdd0Cu+YxuUh/SMJdSppbwZ/tTzn23SIz/OB2xVdeJ8XG2aP7hthYqJuFRdPK2uMtz4hKSSWZs9YPufNqvXRBbO0WW7VcAQGsdqtjHEthcVe6HwAdGNQmTYIvpDHcqW6uwfGy1JxwCAKxEwgTfLf/4R81qSd+Tv7l33Q2q00EHxlnDH18QOnyTjRxrxZh+R4FElpEk4mvKmPOInfW/UwVrKdGa18Rie/A6wl8l+I+0eAkTVjcSyN3y4uZg82j89rRea20N/8j6q11Cw/RxVYWbzO/wdcfVjMlJ9TuYWq1yDwbs37Rv4BSBAzecKJSueaElefWbVo+L9Uy4cvvjJA0UUZnnet8rFeWCMYaEcr+Zt5KE4Hdw3R6Z+J21lK8/5NE+6TCLLhnivNrh0VG7CSTLl+j0bjxzzWfO0EFp9iUfTu+WllwACZzE6v1jV0H7NFJJsMG/K6LO792z59zK5xbO8/cijs6r52YDDIae5NOvUx84btKTCY/LDAv0Kt7Ths43VjbISv47MQXR26uRj+suVnafF61SP+NyuPibs2QtxTmZ/sBNY+jk3SqxCkli4+0DwnxrGktyg2SzI+6q3Xl2mRpBbHl9suRWzW1KNu2g1g1E3xXHGCw4LtIL9HL5P3SIn9kzjefV+fusvOj7/EPTvXjSqoRHIIACHSTQKDgK29vC3lnPPj8v37WwYyFCT7PwFayq+CKodVtrM6YdmHSwfd5Wq/dEHNYVjYxU5h7ehpVSlJX2nu3LKSZjOaZ6f8omyZhL2h9ZHFF8dlHXWwymzAaQYuee3r7mTLWRQFNs29um9lcdV797+3QeK17mibu9c7eds07xm47Lnj0q3z0V/E4aKoRMsfOzW0p2XXSbtjKOfqcsLKJ25VNbb77latW/Y6UgwpuEnwkYScyplbWUHJjR3bL4psol55RzsSk0c9qE658d/6vuy4SQln7TLLt4mOnRpKF+S1fKU54nKrnZ0JkbFHekx6drd1iq/aABLMKn9K96gCDBN/FetlxBZUdXqr7Fjy82/yM/GdhazWvDeIIBGIlECj4/u2TT406T5z8wQ/nO5hTk+B7dywPFVhZpR9qU/CRPzO/4GNf/OfPUmLgytGFM8VFo2c+reQmeaHdEs/PNs01SApYX8rZpL7Zyk584evOnRt5cuwNLgsUChgk+ILNNWqfuy5yNOnprkrMzz91lZZ61ThYaKoR6qikzwa5uMqxEHzSNLF3AwlTfblhUMFNgo+YRxztMD0gXoboyDRRTtdoStfn24jdQJObll9pscvcntpS0dHXhW+kkyfJZX1S+riiUge1KM8Bky7rg9iK4vkOKC21VYvbQlmJu+QDilB3DsXuuUIA6TmSqpURoAp6b2dDfhl4ADlw7KXrIcERCMRLIFDw/dM//4vQdsaDzs7q8v6Mpu2Ulc4vvjwAAA1VSURBVD3Oyeurh96ictu22xR853wezSj4XPRshX6B5iuZ7Avan8OrKd4TqN2hdzm2ozBzjbBMEExVfNAbPGQzVrKWUKdZKWCA4AseWbHto91xp7qVGUk3e7M7G+SdR77KNaI2+GSsEeqwr60emQWsx4gEn2lm3BYjW5oAEn2eXnCT4CPmzFTI3EF6uYk6wmc2QaB4qPiTa4b0aPgz6xm+UDj2V4SVJ775SaORjROY3yCeC1pvENKibFqs+c0FHxFWWzWVKpwV3aX8FRCuNkCz4CPaId5M6XMORhtKs8IPEIiNQKDgW/7JT406T5z8/t/PdDCXIYJv+I5pIpKkRptr+Dzjj4BCsN01PBOHgF3dKKzesdH5SH9JHvnFrt7nNYvuRbTdNd5+XSsdpNZqiw/L1r3CyKxnr6p2jZSxANHj5IZMZxSJQwGVkyLzXHOrM33iqiGsO47oakq+XM+LmQ+26bEZa6Rx6G43x2yTb5dXts4uDMrHzQlJtM/8JinODcb4WxJ8tphJzyZmS/PrJ8faxLFA4hxEGeHjcPzmGm5UlOeFV2rUytWAzpiHVa5uhtgAqY2Zxtiotdyvm3LgnqMGoDd+Ou9VvRpH1FbNQzVhpcbNfwGgA8Is+NacPRKtvLl1uQRNrchIGidBAAS6QSBQ8H35818IbWc8+PdPVzuYId6fKXvp7m3sngf3gjQSwAZ+Iv8nrHTDRIwXm7yr2+S6bxW8uJF6grbW8FFPpvaRbIxT7/NEesYDmlSSDZC1G08OFu95KtY/jGoWfEFdLIucMq/cYzxJWdmvXmclNRnbOrfw7sQbsXMFIt3vovau8magzimLESkxtkSpn6iGsTfz4w/rm1/7dR8JPmE8QRHwv+YaDyp4QGxvj5aFxQzbUDg7tlTN7Js3jGku+Gii3DxE543S+Zi4RQrvjE1XQz7StKZF7YpzMBjleHiJod746bzS0pxgrbVqJ0hTVl5+pCNzpdMNJkR0TTRIRTEPKECj4KOT6nILr/zOUTgi7Wb8BAEQ6DSBQMFn2/Zf/NXfGqXet779nd/9ve92NifN+zM9PbGOqpXt4ckP39hjzXRQj937LfbnCBFS4T2BF1c3j2hBldFcgyUsbCxc33sPthcz9dSXzPj0+CW3QqCO2c1ncBfrlcN4j/EkDxNgruHFaHNrBnKv6E7yCoXHi0lX3ZuTJd11X1iNvKs9r05y2x2yk32iTfIGSDSRTXP8QQUPia1x8ao+t6Co8GsP9/2TvE0fkLCJcjfb5jxTkfhVRZHQtVC9Mr2dFobDAQf02UYcgsZNWXrEMKLga7lVszSas/JKLh0BoAODtJ2yho9OllL+ryeBMLyNidtwAAIg0B0CYYKvWt39/e/+gV/z/eqv/9baf0s7nHUiZ037M38i/K1tZfXpPP+t/IzYacO4Ej8oGM1DhSz7C+8JgiLu6Plm5hq0Ynq6tOL3lkzrb1oXfMYxG+qz/YMxNLISstDHpoV6ri86d22ZVMVc6LuSnXcz/vHaCDVycXaS9pzLZFXLA5ImXR3hkxvA12cbGc/hy7Dnfojf1OwBiWCCEM4kvDM2XeWzolZoHy+X0d6zXFtgf8PwbqPHLZLga6NV27YdgZWXH+kIAB0YpO1Uwefaa+urWiV6tm3zad+Ajwr1XvwCARDoOIEwwWfb9vHxydwPfjjyy6NC9v313yU3/2+r4/lo1p+ZEhTeIqz8fD7ku5LCkjM/k5Ed3WP4S/KlrwVfM3MNci1mVlp88Z/2IqaC612vxEj4FlG8vlFAX78ecWSFKwk2pMo1ujxjy5d+M5HHlwMaJjHD+2apBLZwBaKsDYhd8LlZenu0wIcedUuIJg9IFBOEcCYmSedxMl2lNfg02+7dHXRETpEU1OrNYm2u3upMjaqdVm3bUVipmeK/ANABYRR89pfcqbJsUKVRJFtv7T2j3YWfIAAC3SLQRPC5yb5+ffHzX2z8z/r/HhwIv8cdzlCT/iwgteO1kuv5KTFdelQP1Xyvdrl32WShtZV2NCgVtqIuvCcIyHwnT1MfFlg08xiemwVa/Kf7x6IuNlBPX6T4Fgvawh0KqAs+GmHVz/tI8Jn34qMzx42wtp2aW5ZkOX1Wm2DLAU3jta3UCPVD8ohFjwSfbZO1rL7SLvwB4RPlukhSwYYz4VcDOmPjVb4cM5uIupm1zfNp5aaeG5/WhmcIopfF1KjaadWUBz1+lZXxFwA6WMyCj5aUJIJshs7qzIe5s1JZnUkwssZJEACBzhOIJPg6n6wvxvD+zHe7OCH5dr+Zt8yukt8Vn5ZH3bkkw7YQdvqT4vx6wNYajfMU+Y4Xu12JtL2D8J7Au69LR6TYgl61tm3TWIg0N8ozc7xeHiZ7EfVFTF2slU28t53RFz02al+U3IC++UcKqAk7Ya5h7uwlOLQFgvXAGTbQtwBxPS3nph46V409t6lGik/K8waviiRDxTJBlpHuC74vd25kDJ69SRJpGlr4j9RH/lhm6ZvEPHwruJqYiItmxyviMg+ryUHP0HjsM20RpBOSObbcXqmIWGxbaMTpcupE13zHz7fpOfVbLJkaVRutOhKrcMfLuhbnxTMjorKbrw4gQNs2Cz7JE6GhMTROVj6gTTj0D0tChL8gAAJdJjDogo95S07JG4NOFyYeVh6t1VPsX3X+fnGUPisTVm78c4OXDa41k9mROyVrteoErDteS0pjImzQRqJu9YR3pV2uQrEjWaC5BssA9ZdWVuyaVSsdLDuuZ67dLzkbnWndOQV5v8D2nZO2Iytu1b0N2cI34ZXK3txcw7uZL9QbnmadhH+SyJ3zHZpy9mtaVbYH4XGYasTtqEbubi87pirOznKcQMLKjj0+9dKPQfC5OXy/5G1zJ21YN/zhnuYpkOZPs8MfVDJsH7aT1ON60clxxIlyknQd1Cu2vb87ThvNDd0uLz8/YVTZln0Hy6vu46Ml19hM0Y4LN/OTKXd7N7bF3+KSY7lyb4fvL6zreGqNylcEnYzcqiOxIh2ZsIL20pVaijg0Szq6HHR10AAyJ5Qp18ZIHhF3inm2Nyk2Jb+7vbJ16jSG043M9nW2iVF+/lPXdYv2niFE+AsCINBlAoMv+BggNoYndjjVXELwn7OlRf/uTw5cLvholMsffORHVX1zLa1WTPJCu6V7P7kUCHNm6yQu2TPKZWT7INFeYeYRvqW94/Wy7InaCz5jGKfxxKXSN3P/KU1GoQgTzWxmE/puFs4dZG2dsMhclwLyv6YaoY6Kzyt5pTD41u7+CB8pADkb7vHwB7ub+uCXbb/es6g35UG4JAr3ayhxMTHxLlN+1DZA10OuvtqdkPck1J6jmXL6NUXC/15kPlaskj0Cdyqbb0nDRRJ8iu25F4/l7O5laNXRWMUp+Jj5/AABZFVIz5FP8DllEfsyy9WRSOastXP65IDg054I/ASBmAhcDsHnwGqcb6yxjedHpH5xeDY//qCS2vpKGy+R6V6cnWTSO64L4mEarkjczI3MFiZWq5lXwe73RCzhXam4rSsH3ORQ2Uk2KKGTg+WlwggNWw7fKvL9gs1roajrdXTbxe7e4lKB80lmR24V5zJHfu8hTspKQJ4XV6L5/acEZZW23EgYveHQnG9CmYeV4jLWyNuvNjI7E3dyopaHZljzSBuquPuCr/Fmc91prlQdienc2L2dlZC26lQfz/zN3NhHezVbTJJGcE5kZCKYhUg6z4dfQFfdON/IbI/f8jx4D82wsiw/N8xZOwk2jl/W5hbySnPi6zGo8UQUfLZtR2/VfEK5KavYpnSJ/qAAdPIbJvhs2357mk6VxsQ3wHRubKn6zJ2+D29jBAN/QQAEukSgXwRfl4p3+aMlc435lx0vK3W9ykBde6nQOjl9NV57sSGUR6CViXIv1NU8AqurWe8oNQiAgEsAgm+gW0IEc432y9c5wRfdXKP93F7JkJFMEK4kGX+hwcrPBGdAAASuEgEIvkGubXKFEGqu0XYBOyb4MLLSdh2EB4xkghAexZW5ClZXpqpRUBAAATMBCD4zl4E4y/uwpuYabRamU4KPO4WOaK7RZmavYjA+Ue53tXMVYTQpM1g1AYTLIAACl54ABN+lr+K2C9gpwdd2BhAQBEAABEAABECgMwQg+DrD8TLGAsF3GWsVZQIBEAABELiSBHos+O48PsC/fiNAD4JB8PVbVpEfEACBwSVArxr8BQEQiINAjwXf79zlW24rXjo13634GS+BkHaHagIBEACBjhD4pZu5kFcNLoEACHScAASfYd+FjrzOBjeSkEY2uIVCzkEABPqKAARfyJsWl0CgGwR6LPj+eKmCf/1GIKSd9VtWkR8QAIHBJRDyqsElEACBjhPoseDreHkQIQiAAAiAAAiAAAiAgEYAgk8Dgp8gAAIgAAIgAAIgcNkIQPBdthpFeUAABEAABEAABEBAIwDBpwHBTxAAARAAARAAARC4bAQg+C5bjaI8IAACIAACIAACIKARgODTgOAnCIAACIAACIAACFw2AhB8l61GUR4QAAEQAAEQAAEQ0AhA8GlA8BMEQAAEQAAEQAAELhuB/weueamwu+3gpwAAAABJRU5ErkJggg==;" vertex="1" parent="1">
          <mxGeometry x="760" y="450" width="236.25" height="75.5" as="geometry" />
        </mxCell>
        <mxCell id="urtNTClgw5RGaUremrSD-29" value="" style="shape=image;verticalLabelPosition=bottom;labelBackgroundColor=default;verticalAlign=top;aspect=fixed;imageAspect=0;image=data:image/png,iVBORw0KGgoAAAANSUhEUgAAAkcAAABkCAIAAAADhgMRAAAgAElEQVR4Ae19XWxcSXaeX/uRb3oIYAI2kBUSA2YeYgaJAeUhCIjACAMEgRLAAAEjBm7oKAQTglQiKy3LspnZWZA7phkKxCxnhcGK3I3HvZHltCdYdwQINNfEZAlGWJr9o+6m2GS7+dvkUJRkNiqoW3Xq71bVvX27KXZrayAMq++tn1NfnTqn6tQ5dX8Ouf8cAg4Bh4BDwCHwoSDwcx9KR1w/HAIOAYeAQ8AhgJxWc0zgEGgLAhfF51sDt7MJD//r+Wi32JZaXSVdh8BqmfDA0GrXkc4IPpm+63Py7B57FCVRTOX9vpfTUXJfWp6O02rpWSoXCGew/18bzw/MV9K7FxGguKhuVpMzxb7xHCueGM31TZanV+vnjQgVNN5urFYmpgq9o5yYnrFc/9T2wsszKA8D70sx3pDpZ5P8Aa204+/+zg1MVW5kPUrn29EiqaNRn76PAez7/OA8vNZG5lN/vB7sVMMzv/ccIX05T88KzOZlE3crWKuFlHrvvSANnu55Y9nEcG7wRydXRIG52cb+yAjmmRtPvzZn6uw3HaDVjlfLvcPZxFhxoRIPKxBuTUotvVZ777Oga7QaUxvXH9aqRuHcOH5RGRzjqoiV4olbeW/51DLUx5v2GtgyBAbepMaU503yh4XCZl9VnxZw90e2Mkbcmq0yWn6Y3gmPgWYu2OHizNqX6pdFwmC9Mztru2fV3f3pR/5ezVrKjMXlvgHRA6r3cltrsvb1rR48cQpz+00W7JzsMOhXt1fjoqkvFW/hAjU0KbWAteT5DoBEkgPtGMdO1WrjpbnlWgr+Laa2Bu/ztfC12b1jTefPV5Z88U3UyUh+YGYbKqlOPyr1+2tAIn2uf7avqwEdr5avgTbquVeaSFUpDentocl8z3BWGJi3Gz/hFNJsnxMCckNPA682r2rteZT0zWLXl440mF3qo2bWaOfPS3hohkuLry+VJlvl5/uHC0ul/skdjfHQ1hcQAWR/JrZgKyXma3faNzZ4k3lPawTr3L3a28VP/CXpJ7UIm/t2g9au+kCIX51Ww3LsA9ur2eZmYOA6VasFBQRC5y93BqhJMGhMa2ykQKUN525mtJbGi+r69o1bdCfXn6qraLzeGyKab7iQfMEsjUKudyep+UpGeKAmKUPnp2Nu/NX62vC7Oxa/X889wOPS8+lVLtGp9VvHe7aBaNSG/JVQ3xcBjrIVu8x3lUqfT9IVCtY43bsqU3kcWs1lOkCrmYmL+AYWam3Zq0Vs05qtqbnZTVoN95rK6GxCWc292KJ7rOHC5Evr2Vu9NsRU4wvJJHf+jNqR4tv0O06rdcni9+X2dSyF88mXVta+5JdNzRxOC6iQuNYeXlPbUkBSd2m1jSXf1+D29kbbgLiKipxWi3Li0OTINDU3u02rocPkuL/ZGtla4bjAysLLDa1GMF3kiQzNJmTHBDAKt7DT6jSt9ro6SNfskv7myHVGau2xb15udpPUbuKbmjm8cVAhTqtxTOKk6NTuIBjj9AIhp9WcVlM4J0yyvF2cIiZE4UCSbeCmqtrTMqUJhGAH4+WSef4StFpu5AV/2Fyqw7TalfmJNIVax/iJhPGeoVdOqxmAae5xd5jKI/TJabUu0mp/tZn9/f/2zX/z60P/6l//+n+5m/yLlR9HGOGms4RJFo1WW/mMOJJIKiqkYVCEvY8PeU5gx56ZWjTtyIvSVGdpNZufCDl9HbiT811g/DOtscLgUq34LtApBFthYmRvnK1ltgbugPPOCA54SOkjLuSCwYr9JyY/EVhkkOXLRXG1MnQfqB3J9c/urNStG9D6EXb9GIciXrZnLD/wqLq2rxqooSGyWpL/z7ePwb7AE383TLyQ4P9suw95jOcTfhSKGENyK9d7v5R8VpdtDhCswvx7h7M42/MTOdseOeEDMqS+CNZIms24K4oMHRlSADDuSOFaYKGpnCyQBgg9Yt/vFL3Uvj4C5N1JOoXHnYIwkuub3BICckiN/v+l2do4flmdmMxfI+fut3ApA1eTGnD+5FShF3zQrt0pTmSOjhux92oQ2eIVdQ5T8Ha4nA5yPZhkBr4EbwCpa0KXcbTJ2Vpme5BNJTIv5isZ6URb5tvG2crTUj/g3zNWGErt6QQFkjmBtSvXxh77ifPdven5Yh+LoZL5HyqUOJmOLJ+bco0ochT2zOzcz//CN5R///m3k2p9Lf8O02pggbxTAeN7ffKO32fJJhlGB5zwJyZ3+dxoHIwAuL0zVe2whdRrYaaQkpfw2rz4XfuCBEvqeGW0nFYDHwSmPD1M+iFoQbl540nQV0IoaOyf0U8EGLqcbpylHoKQElXIcGH6VXCKI4TOV1JF7AMmZhbSN5YOxVULNKTLz2dOsC/wRKgZWoym1er7EyTWNVgDbxchdDRpyuZlZX/g1rVac9CRUQUAY4wUsIXRT6Sx8aVpKAVrDVRzvMndwWAs6LD2PqxhlSP+x2frBfc1k8bCcKLROF2c0TGkl03c39lYjhuFTenJDq0qhCKEDkgYH446DVqSaEEhHIJ3TewwQq92TYFPwqIHIXEhSzxmJVh8SMeCgqJZrXaeeWQQRMD/wFr2uSn3MaJW+3Thu4o+Yz9/+7/+jlpla79DtBp4hfR8dgDtwEyeqsrrVniv/wsiSdGFryr9TBqOFLznWl9KfY34qYmZzCUu7U2DIqmDhbzqfVCezhxsHJ1Vj86qpb3kxzBR1fUyYDVbmb6Ho3dvPNrJlPxSu4epJSZ0giKAFTTfUEDNd5p9NjB0KfkYs37fPG20uFlLfgSkajwLztNMBY4VJtLQwd3DVKrUp/WAfeP35eiMupXf2V4hmBydVetvYYCCfWmc1/2CP90mDod9jw8wkv4/CPYPloL6Xu2CQ2+298HW3Hqdli0dLKbKA1NidIHP4cO5G/OVRci2sbrNxNPN54zIi2NCAJB0M0PpqR6dHfNduGmv1jx0fm/ijhRAgUAajm+v8Wd+CuZ74m6ZQVTc3JtbKvWPqFqNurN7OPo4uXxY9KEoblYnHlBuuS4aZoTZOvEYu4n1fryd2jzx58LB3EOQtppQEyHi/m5pGhraWN8hDV2/TcvKekLpmO7n69pNX/gIwg2y5bd7Qa9I5iX/PTVWgSbAz7SCiK3ab+U9YV6k09uD97JyEAjw7UwFr6h4/pO1Zc5417gQpnQCJyhDA7XJFgse5cmQPzrbWK9Ozxd77/uXGCCEIs1NQAn+hnuLnJ6efuPv/jJTY8HEV//3J1BbG/7atBp3X2RrYYTgVCMhQxZGyikW0JhRlAFAqFa9CXttnGGsMKHaecx1a5nJnP0S38AMEUQeby39g7LOunIOZ5bFBSm2DZhyOJvQupiypcDo1oq0yoSC5qGxuL3BDMG3ogScgM5TdLGsxnicr5b9MN7stU+qmmj908MkHXeNv6WN98TVKwfSTwEH6gx6BgQadbr9Gs55y2A1UqrlP/cmH+osw6fVQbICE+0NpBSQZBCseq0WG7p4I8X7h0ymcjhuGFf4yi/akFgNvd7zfEOLbtwvVj4nmkbYzXDRj+VAIM6nsQH2DMUjmqM0G9j8oYuNLyC+yMsawBf6rSahv6J+8vMQd6r+e37l6ltqvpICUnWCCHy8cxObMnS4iQaSngHfetnEaDmlmPpPaxABpZpDgRMUoQq1SXIArG4f6ZwhlMFFyDo3VRzDtdof/fEPg5pMfPLg9z9Sa23ht476i+Ojetq00IYJ3KRWA5iCWs03PasmrLHitDaCTempjpmULO/nZ0w/EUp/1vtKJBOY0ssOPtPvh2lzeCaLkwMKStws1Gz1E4EZYghig9WrvHSl8jGh6lehUWCYYGycjvdYQXNfoMLoWo0eJZrxZK1aE7AdH1aECF/qGQSrVqvFhy7WSAk9M5rKAXNVjgtlIUmXR6Zxh0Ve/xPBvA7crvhC0yrhsCohWTuApNvbayKnAxkIUYt6Io5WQ7B9UZaVZGjyyeckDFF+S9lPtnboBBEMk7Al4GQrKeim4Zo96rQse9shtudWhSrUJskByoQR5bZ1birERzhX++a3pkUdFkz/xr/11Fpb+E2ph+22YhzHF8TJhyJx92pnC5OGvRoj/t1J6lFBPJ4x3UjCSug3/vz1e0uZFr9hBICAlqUhMKXlzi0QAbKOgYISN3MaTH4iJAdMQnm68tK6WQH0K+trXginYEWsGJ9D1oPmvkCjkbUa8J7GfCpTGvYLIGqHVoNexIAOyGhmpHjXLH4ioLa9fEgQKuykZfbjbUgHRewxaLXBZ8yEy94JZ0uiTo2AEmimGHs1hI52B3zRJ5FEGsXmWbq/Ed/S5hRm1mk1kE7ZvqUj/eKU9x64PWgTJnm+0p8dAicoDAm1SXIAHo6U1L0gJ4On2qzVvv0Hs0FNJj7xfus/8MZbTlm02rX7OrsZyFN5SRVKB2DKvU4MRfB9ImBkVw/nA0W0zBTIZXgAJAU1ujivDIWlxy+iXab37k21dJBark4/KntThV7BXVCv1aRFq9QgQuCzo2Vc6SErSIV7cM9EcsAMKaX0i2KAS6x82b92y8tPvmKtaBJQs7zmfX9ajepjswjW0Ix9YE7PNtZrqUxlYr48eD/Xy+3kihCJtVdrATrAs5mRYl2kcly1JNP3LLR0ONs/X12radUPQsz5Kzh3lCf3hANLmK0mbtFI0igogbLUTyKFHnYRNu2whquJIYRwCz1C4zxPl2jqJIKuSZccNQ7J5Xn4Ep975YXNUzj9ZYPBEkDGTI09khKg3eU+wvlopL0aOoZbLxK38jeX9jZOVedksUXNWIiv5XS4BfLPM89EHRZMz87Ny3W29ItSL90Dube2K551K/WDd5BpWaFkJz/ZNLBJal5SvKxraNUwtbilPsoen1cOKeCkEL6H7Ma/4AQcPG5hReoH01NcVQc3xDKzAmF8LrGKWEKbR/sQijC3t6BPl58FZGVAZNMKNJVDEa1vNLRrHibrzNE0R2uEGR51rwb5uR+2QJouie/svkkuHwjyBn4SgAiakMeR1a2xQLYCHZQNkEEbNEOHEDOVC5cqMDrxYcDxV1vMxwcz6nhxIujDBf0NcrL6RFwgakW/0HiQH6Cn6npIKMQ8NZS9GoAQHEGRJGbE43svsvgD10dCM39LpZ9s+Wc0BASR4nZ7Kz/wqLbxJrhsBGpNUx4AVxgM8FE4wVTbxcZT5muGLWc990pz619r95HBsZAwl3+EazWE0D/9Z/88qMzIk1/8xi/99V8b9LncUsRfTVHv1wkGpabuW4J4NcnObieRLRst2iJsnthbaM9bOELQ+ongJphzBw5VKQzOb01naqmvsM/Y8Uvt/YEmphTp1ebRPqSlLH4iJIdhhrBGNZVDEdOmAcoahsnKe5rmaHUww5vVakPLQWkCFPK/4gWnOEbNe1RZXK6lsbfemw3T56yAJEXoQK0WrRYHOoBdkWXQGpgHdSco0Uzl777OPJVuJ0+MFefEi/GgvwNPfSdG8ERlLqk8wZ1azaIfCA/yA/TUihLlLkWrQaWhf+mBMZhzyV6WqTE6u+EtyRx01DRwuN/4RXV9Z4j6TPmnMMO5waeKTdLM7YR+AFxhMMBH4QRrbW/qqUfFXnBOxquQu1tpxT8lxI6iYhpJqy3/xYpJq31v8ftqla39DnJSaH3s7F3dhhtLgim/uQ9egJEtuDRmDdmYiWW63ARb/Bq+OwOn2aOlhWDotJ5ZrUxJe0MFpeyUbC5o9RMhVRpmCENPUzkcaUS1QCrhrlbe0zRHSQHQomo1ODuJdBsy3dFil85gAKURIiBJETqAnUartQKdkQzanhk6o58IUCr9vTgW40+GiwsscLgpSFmdYbM1yA/FJ8TFMbAHYnUihKiVMq5Wg8Mzwk7EcVGQbHQRT5bjFPmgwSmsa75Bu57mYTnZgS/Fj4qYh4z01MBgBk4Iqw3vyd9WN6sei8sMeP0Ex0KEXElH0moIoR//5eqvDf5LUbf9g1/9x6kfPlGqa/1nU9TT5lgchpdP5iOsf1kQjBqYZScfxqajtVrY4nd3p9+3geidAuiBnDIhoeOyqUQCCzwSxXNs/RG9X8zuJ0JqNswQ1ixQJRpJgAx972hR2NwHTNZW3tM1RyqEGR5Vq7GIWvkaUtYxMQFiVHZJhxxwq46yNI51rtYCdHFGCncBFpfNTcPG8TL9XJRwMAnHEBY7CoDG/4aJfg0/gJeEzOe8SoQQ+Acqk0jKY/9BhxX3hUIkGhjp+gNrMnoyrTFlh3WNE8DCpaTpYOZ2UhJ4Xlk2GTghrDZODQ+NUBDWjAUvpaaiajVSbuXHf/npd777cP7TH/35/1FratPvpqhnbR4vl0iUUmK0tFizKjYW/TpckI5SWV2mBGwv6GeOtdmiM5O2eOsP4fJ7Y9cM7Oi3DAdyqlMyMKVx0cCix5TzBigoKh7cEogz9bnUf8MMYXm0lYN0Mzpec4kvxff4tVp5T9ucXwwgjazVGM7hizAbCIwhg8ssIEkROoCdZq/Gb69oHjobkbhJA3RgKhdFNlBo/wuhTpx/moCUVx02WzX8ADTrgwEQQiyWS51EvNnwFN3CFhdP94ZwkKgcFkYGd7icPiV3l+tWPGFdE2kANSyujQxDxooZGMzACWG1sWoRQuD9p8wmzViIpeR0c1pNLnspv5qiXqBACPi/lff0cdMXxefl6/TqkGBgL0p/XkyuGi4TaZylZukNBQrcAg3hlnopc/t/wNy2bAJgrybYNCgd4hdTZWkITOllE7e3MkLAj1+yUX1WIp8BCtw1AAW59PFLMD+Rddv6wzBDGGr6ysGSFhaFPVJKqR1hIYxaZxN9c5gamOE6xjCU2t8dIHw4WlwIXvrVOEs9qZIvl8JeLegiKDC8WasJuxmGG0JIq9VYsFTT0MUcqfBPtJ/MzW9rbvsE1SKZu9mxdzBq2O/6+W7N+4F8x02Y6NfJIphiXrb/C+UsCqFGfYHdetOKVmv4yszLevO+A726lyVKPTfyyH+rtaDoulZ8WtZ9NhKWmOzoDsNl4FvGRMDzsqBoygdyb0J7KyFdl2eVDSgdC/0lmYwsmvhgtBq+tVO6LXC0MOifq/tfqd5JzhSvwz2kCS838GXw0kIQav69sd7SDnyJW/6O9r3KhkUU65hJhfzyfsNsN/qJ4KaBX73s9YfVtV3/RqXSwZwfvdA3U9J9bRKK3C3g68T49Tln+PIqds+W/QJJodehfiIkbzxZiZAg7o03ZmnWNAgJYv2jSgYjU089qcF3sQEERUPH02pI+Or6cLZ/tkLvajqqZ9JbN8ay3B4A4iMxnPcy9BaojfUd/wQiPzRDHFnFVTYBD/asw3nvOb6Lq7heWfgpGwO9VosNXayRCjOVY2J9zP0b2nzvGMyr0Hd8zY1skGisPIJ71LCneI3y9tHJ2nLFm/SBUsYubLbqtBpCp3vwgUZ81dkCuWTr6GQt4w+cl08+JuEl8S2QLKTy2ijukWKLQwgRE2XPCH4bNDlg5HRdI8OEr2fzXcPo3WAQttT/5ITxB5cSCmIsB7BlK1oN38R9Kz+UqtLr9/BIwXVco+X0a9YYTvDVqmZuSjlRxHsg1UKX+VvPSVFbxLsxyQ846Ec7Xpre1PqOglYLFoEnvR/vbPDL9HQ06ZhJl+9SntGBt8RKk2YFH0jR7/nabO34VYgPJL9qDzChNYwFrtXBbWk1ARW41qMvXDiWrPR72DhNsXv8FDrxRCokDQzAbl3isPCFsLYvfnMww5vYq+FyjeoysxyQCwGE//OwKsEHUupLbmj5zOgDiRBs8nidggAyaTWEYkEXZ6QihVQC5lLHidtefmQ9OIvNt+X6Ndx4Kgpuvej3R5T+zyiL2CmGQhi5/4wKgVa0GoLbrbIJ7e4EXLgTgds9KOk6QQTDxFmC8XngfglA/rK1mgIg+ak1YMCNaIxmvvITx8xPf0B7Nda3xhlZnfXCBfwJL3ttPD8wX0lt6oMhSNHz03omvU3ikekHKbAQzPWOFwaXdjKvzGFqrGkdM7GXl5ygzo36tZvSdv1gblb+iAax2YKAFiSgqpzwlyNmCxSf4Wwv+wCH0gT+qZsbZEIGfZEDxWESBjciJKuucqES+oULFqpMvnCROaza1yU+MuxzJP2f7sEnHczNAWhNajWf1jf1dKrMP+vj4+mpn/loHL/Y4V/hET6SYoXoovh8a+A2FWE9t4tz/DvjZq3mE9UsdFYytGwAdjzVtiaMH6Fk/5B8TojKMsBHF2JFyxL+5HP/Vq4Xf7amthZwFtduaEQKjFoNIUS+d8O4a1T4NFI7tBq7ZET6qAgjDkyUCclsyF4bFPa7r9f8b9Aw4Ya/zTRfSWskm5nbSSPA87KgMK1EtbU1zl/536BhGIbOUOPcFDruJztOq6kEut8REQA/kSQXXhFLhmbTMmVoKW0GMOKHiTNtYffwA0Egkqn8A+mr68b7R8BptfeP+WW0CItfi59I/Gbbp9Wi+YnEp9SV7AYEwkIqu6EPjsYORsBptQ4enOikXe7it21aLaKfSPR+u5xdiEAUP5Eu7JYjuWMQcFqtY4aiBUJoUHOon0jMJtql1ag4C/UTiUmmK9YVCFBTuS7Kqivod0R2PAJOq3X8EF09ge3SalffE0eBQ8Ah8MEj4LTaBz/ErXfQabXWMXQ1OAQcAu8JgU7Raun/97X712kIAA9qtFqnkerocQg4BH4GEQAZJf3tFK32Kw/ox1V5kJ02QM89fI8ISJwi/3DD5BBwCDgErhaBf/GHFVks0V9Oq2ki7a92qDqndS3HkIedQ6SjxCHgEPjZRKALtNrfGiu4fx2FgEWrdRSdjhiHgEPgZxCBTtdqFgHqXjkEHAIOAYeAQyAiAp1igYxIrsvmEHAIOAQcAg4BCwJOq1nAca8cAg4Bh4BDoMsQcFqtywbMkesQcAg4BBwCFgScVrOA4145BBwCDgGHQJch4LRalw2YI9ch4BBwCDgELAg4rWYBx71yCDgEHAIOgS5DwGm1LhswR65DwCHgEHAIWBBwWs0CjnvlEHAIOAQcAl2GgNNqXTZgjlyHgEPAIeAQsCDgtJoFHPfKIeAQcAg4BLoMAafVumzAHLkOAYeAQ8AhYEHAaTULOO6VQ8Ah4BBwCHQZAk6rddmAOXIdAg4Bh4BDwIKA02oWcNwrh4BDwCHgEOgyBJxW67IBc+Q6BBwCDgGHgAUBp9Us4LhXDgGHgEPAIdBlCDit1mUD5sh1CDgEHAIOAQsCTqtZwHGvHAIOAYeAQ6DLEHBarcsGzJHrEHAIOAQcAhYEnFazgONeOQQcAg4Bh0CXIeC0WpcNmCPXIeAQcAg4BCwIOK1mAce9cghER+Ci+Hxr4HY24eF/PR/tFqMXdTk/JARWy4QHhlY/pF51U186TqulZ6lcIJzB/n9tPD8wX0nvXkRA96K6WU3OFPvGc6x4YjTXN1meXq2fNyJU0Hi7sVqZmCr0jnJiesZy/VPbCy/PoPzJ9F3+ljfkCzXNz9k9KPje/+7v3MBU5UbWo3S+feQ16tP3MUR9nx+ch9fayHzqj9eDnWp45veeI6Qv5+lZgdm8bOJuBWu1kFLvvRekwdM9byybGM4N/ujkiigwN9vYHxnBPHPj6dfmTJ39xmm1qx6frtFqTE9cf1irGoVz4/hFZXDMqmxu5b3lUwvsx5v2GsppWrhrtFr1aQGjN7KVMeJmwaOFVzC9Ex4DzVxbh4sza1+qXxYJf/bO7KztnlV396cf+Xs1aykzFpf7ppjK09lEVO/lttZk7etbPXgFVpjbb7Jg52SHQXd7tasak07VauOlueVaCv4tprYG7/O18LXZvWMNYOcrS774JrulkfzAzDZUUp1+VOr314BkPl//bF9XAzpeLV+DzVbPvdJEqkppSG8PTeZ7hrOCgH678RNOIc32OSEgN/Q08GrzqtaeR0nfLHZ96UiD2aU+amancv68hIdmuLT4+lJpslV+vn+4sFTqn9zRGA9tfYH1TVBJ2ErZKGn1nW9s8CbzntYI1rl7tbeLn/hL0k9qETb3rYJ0WeU7UqvZePuygLiyejtVqwUFBELnL3cGqEkwaExrbKRApQ3nbma0lsaL6vr2jVt0J9efqquov94bIppvuJB8wSyNQq53J6n5SkZ4oCYpQ+enK+qbK/vdHYvfr+ce4HHp+fQql+jU+q3jPdvwNWpD/kqo74sAR9mKXea7SqXPJ6nLtgtXZSpv71B0pFaLydvtReZ91dZNWg1jQmV0NqGs5l5s0T3WcGHypfXsrV4bYqrxhWSSO39G7Ujxbfodp9W6ZPH7cvs6lsL55Mv3xfi6dmLOfFAhfamOOaYCkrpLq20s+abR29sbutHpmmdOq131UHWbVkOHyXF/szWytcKxAxOQlxtajWC6yBMZmk3Ijglw3tDCTqvTtNrr6iBds0v6myPXGam1x755udlNUruJd1qt3Yg2VR+d2h20OGiKfJbZaTUGxRUluk6rvV2cIiZEwQGBbeCmqtrTsgC2sIPxcsk8fwlaLTfygj9sLtVhWu3K/ESaQq1j/EScVmtq3NqcuTtM5RE67bRaBJAuNUtzWu2H//NPfm/ym/d+9/e+t/j9w6NL8T4IkywarbbyGXEkkVRUCGqgCHsfH/KcwI49M7Vo2pEXpanO0mo2PxFyejxwJ+e7wPhnWmOFwaVa8V2gUwi2wiQ4oXG2ltkauAPOOyM44CGlj7iQCwYr9p+Y/ERgkUGWLxfF1crQfaB2JNc/u7NSt25A60fY9WMcinjZnrH8wKPq2r5qoIaGyGpJ/j/fPgb7Ak/83TD1KqRptt2HPMa4Dj8KRYwhuZXrvV9KPqvLNgcIVmH+vcNZnO35iZxtj5zwycTQHgnWSJrNuCuKDB0ZUgAw7kjhWmChqZwskAYIPWLf7xS91L4+AuTdSTqFx52CMJLrm9wSAnJIjf7/pdnaOH5ZnZjMXyPn7rdwKQNXkxpw/uRUoRd80K7dKU5kjo4bCIEYEYTakcoAABI+SURBVAAXGg1LSmDig/wCJWlSjYA8392bnuXRR5S95UkBtclcTbiU8zawjYlLDQZtqNwfdy2pLSEchpT5fVSt9qf/68/6/9GNn/+Fb7B/v/iNX/r0O5+Za475JkyrgQXyTgWM7/XJO/6YSTbJsNbhhD8xucvnRuNgBALUemeqOvkeVq00imGZL/u9efG79gX4dgcl8mg5rQY+CKL59DDph6AF5eaNJ0FfCaGgsbNGPxE+ZxpnqYcgpESChwvTr7SK7XwlVezFDqv6fzeWDsVVCzSky8xnfrAv8ETTSjStVt+fMIU88nYRQkeTpmxeVvYHBvGkISkrCFmLVmsOOjKqAGA53fRIAVsY/UQaG1+ahlKw1kA1x5vcHUwZ/d6HNaxyxP/4bL3gvmYSdIYTjcbp4oyOIb1s4v7OxnJLUdgczNd+WCGjR2IJ2d+b5cFexDlvmXu6QW123ga2ia3VTKTGRlgcpubTkbRa+s/+N1NmSuK/P5xvvlFbiRCtBl4hPZ8dQC0wJFNVed0K7/V/QSQpuvBVpZ9Jw5GC91zrS6mvET/lo2jO857eNCiSOljIq94H5enMwcbRWfXorFraS34ME1VdLwNWs5Xpe3ja3Hi0kyn5pXYPU0tM6ARFACtojkCny0DNPhsmZCn5GOvgvnnaaHGzlvwISNV4FpynmQocK0ykoYO7h6lUqU/rAfvG78vRGXUrv7O9QjA5OqvW38JwBfvSOK/7BX+6TRwO+x4fYCT9fxDsHywF9b3aBYfebO+Drbn1Oi1bOlhMlQemxOgCn8OHczfmK4uQbWN1m8Vl3nzOiLw4JgQASTczlJ7q0dkx34WbtFrz0Pm9iTtSAAVCtIbx7TX+zE/BfE/cLTOIipt7c0ul/hFVqx2vlulSZqyYXD4s+lAUN6sTDyi3XBcNM8JsnXiM3cR6P95ObZ74c+Fg7iEs+zShJkLE/d3SNDS0sb5DGrp+m5YVlhFKr2w/GZgjn+USo8Xp9a+xWHtTX1hiezU+TJzmo5O1zNYNup3NJ/OgwCPxNojQmFqtZCQV5GGTCNvwifIuklb71Rv/RFFm4s9iqRylpYh5bFqNuy+ytTBCsDtOmIZE3/ApFtB4jaPODVSr3mS2Di+bGCtMqHYefY34KYzi1Xv2v67d9NWzIPI42ekflHXWlXM4sywuSNZlEM3D2YTWxZQtBUa3VmA2+Y1BQfPQWNzeYHrjW1ECTkDnKbpYVmM8zlfLfhhv9tonVU20/ulhko67xt/SxnuKGZZjyTlQZ9AzINCo0+2XvLIWaxXSe5MPdZbh0+ogWYGJ9gZSDCaFQbDqtVps6OKNlNBBk6kcjhvGFb7yizYkVkOv9zzf0KIb94uVz4mmkYO76WzFciAQ59PYAHuG4hHNUZoNbP7QxcYXEF/kiZtjoa9hSQ7mLb0p4vwrElObu/lMNaqgd4cT5M422Q8OIWTl7Ra1WjZhIBXkYXMIhyEU/j5cq1k2akS3TX/yh+HtRM6hQ//i+KieNi20YQI3qdVgmINaDV90dKaasMaK09oINqVfHaPVYvqJwDz3vhI7BqLZyw4+0++HaXN4JouyBgqatJrVT4RNb30QW3671ze8SCejiMrHhKpfhe4AwwSr1fEeK2juC1QYXavRo0QznqxVawK248OBlRmQ1IxWiw9drJESemY0lQPmkvFNKCgk6fLINO6wyOt/ImgC4HbFF5rWCv7DCcnaASTd3l4TOZ1TQi3qiZa1WpA//UboMF3jxireNkIIWKswvSs9t/J2q1rNQCpb5ave5pQyPcIS2fF+hGu1qW//gbgzC6Z/0/uteG1rS1H0RUuxnFYOReLu1c4WJg17NUbWu5PUo4J4PGO6kYSVgLWJsJXk795nyrT4DaNBLw1hJlvu3AIGlXUMFDRoNZOfCKESZKXGOOln0E1FoF9ZX8vdhh2AYnwOWc+a+wKNRtZqwHsa86lMadgvgKgdWg16EQM6IKOZkeJds/iJgNr28iFBqLCTltmPt4Egg7T2Ba02+IyZcHVFRJ0aASV2fZphSSE2oUkzMPWe2JQAE9TccqC0fplazew0HgNhDSRNPwrXat+a+nZQk4lPfuM3/13TzZoLWLTatfs6uxnIU3lJZW6AvgEhxb1ODEWwbw8Y2dXD+UAROorxtBqQJGtxbCYV51WgTc2DF9Eu03v3plo6SC1Xpx+VvalCr+AuKE8JIExatCrNgs+OpMCgoPSQFaTC3bTQg+ldSukXxbrKl/1rt7z85CvWiiYBNSuGVti+69HWNUfqBkkXWatRfWwWwRqa8TL89GxjvZbKVCbmy4P3c73cTt4OrdYCdIBnMyPFuni0O4AZXrUk0/cstHQ42z9fXatp1Q9CzPkrOHeUJ/eEA0uYrSZu0WiCKCiBKNdPIoWewOwGMFXmpIBQAsiK3PZ/aVcasmLTLRDZACGjpgwhVTiRaQJhsd246XCt9uRP/lTUYcH0N781Hbd1TTnKSdI9kHtru+JZt1LqgFzynQgeNSsZxZ9sGtgkNS8gXtY1tGqYWsIoxjpXA7kZxvecLH0KLr8PHrew/PWD6SmuqhVvsYDxBAjTKydSqTaP9iEQwdzeDNGBMGcCIptWoKkcihRDLpMEcaYMk0aKAbH6xT5526xWg/wDX3JfNd6OJoXv7L5JLh8I8gZ+EoAImpAFK6uaSjFRDbcCHZQNkEEb1IwUI4WZyoVLFdhLfBhw/NUW8/HBjDpenAj6cEF/g5ysPhGXLAY2YM0H+QF6alA5pGR7tJoeTCDAps9Il8XBveRzNT2pGIzmEWbgt5II12oXF42/9/f/YVCZsScbG3/VCgVK2SAnKRkCP8Gg1NR9SxCvpqxoApULD9iy0aItwkZRqO7SknCEoPUTwa0y5w4cwlUYnN+aztRSX2GfseOX2vsDbVIJuqHNo31IS1j8REgOmMCmOaOpHIqYNg1ArGGYrLynaY5WByJVkSP+W10pyD+0rN+EApXkr3jBKY5R8x5VFpdraeyt92aD3r4fgIg1ob3dGFm0WhzoAPYAGbQnOhDoq2im8ndfZ55Kt5Mnxopz4sV40N+Bp74TI3iiMpdUnuBOrXFkLvTUipJeq8mjav4FTejBhLfFuQr3buW9Ezp+/EbiLitvt7hX05OKu2iYaKz3VqpYrqYT4VoNIfQ//uiPmQ5TEu3dqIWtKfTdgwPS6Hfjgim/uQ9egJEtuDRmdIWNIst4eQm2+DV8dwZOs0dLC8HQaZAO8hrfIpVYP+jEECIukG1/Y/UTIZXCBDbNGQ1VcKQR1QKpbOmsc0zTHO08gBZVq1GbWzbSbch0R4tdOoMBlEaIgCR5HNXBEgluBTojGbRBM3RGPxFGqpi4OBbjT4aLC+wq7KYgZVWGzdYgPxSfEBdH6xEDGAkN4LPm9Qk7mBGHKVh1sC9CHggCNhljDOxkJxXX3zzCAlXxk5G0GkLoe4vf/9t/55cVlfatqW/Hb9lQ0oq+oQyPnhYCNQx58WMWBKMGZlnKCDK6o7Va2OJ3d6fft2LpnQLogZzilAxSSbTeKFCBR6J88A4FA7PF7idC6g6bM7rKgQx97yjNsLkPmKytvKdrjlQIc15UEgCPthTYzAPu11CK/wUxKrukw3u4VSeg+IEkg2DV7NVQC9DFGSncBVhcNjcNG8fL9HNRwsEkQGqxowBo/G8MmfsVjbCW+ZxXiRCil5q26gMZGFPSCMzQyOZrSlsk3jahZ9DTYePe8VoNIXRwePidhe+O/qfxfz/yHz+Zmc3nC9JgtumHFX1jG8fLJRKllBgtLdakrbdahkW/DheUYxU1p/Ibthc2342weaJU2f6fcPm9sWs2eQcHcuqEBNHsmRYNLHpMOW+AgqpWA3GmPpfwCJsz2spBuhkdr/nRd/CDc1be0zbnEwyQRtZqDGcTnhwHGwiMIYPLLCCpCa2G4kNnIxJ3xQAdmMrlaBDed3MquLdoAlJebdhs1fAD0KwPBkAIndbo16zUScSbtadCwGSDbuFwXQOavvBssM7ThJxjLyUIY1UWuxA7H2Q/VnMMhFnZFhJR92otNNFcUSv6lqqEgP9beU8fN31RfF6+Tq8OCQb2ovTnxeSq4TKRxllqlt5QoBNeQFjYKEK+S/oLc9uyCYC9WtDzUPxiqiwNQSp52cTtrYwQ8ON3o1F9ViKfAQrE0EBBRXsxP5F12/ojZHobZCWYaMKisEdKKbUj4APpaZ1NDH0RPMR0jGEotb87QPhwtLgQvPSrcZZ6UiVfLoW9WtBFUGD4oFgBrSbsZkSW0+3VEIoNXcyRCv9E+8nc/Lbmtk9QLZK5mx17j5ZT8l2IpOfnuzXvB/IdN2GzVSeLYIp52f4vjtTgzUZ9gd16c0laDTXW/Kt2EtgfOxgGjhDCUm5SijfFANC+6HkbsXjTgFWc74wDTmROq4lzyprWcZK1AHup3EE3Whj0z9X9r1TvJGeK1+Ee0oSXG/gyeGkhDLx/b6y3tANf4pa/o32vsmERxWHzhBF7KQmY7UY/EdwqyFkve/1hdW3XP3MuHcz50Qt9MyXd1yahyN0Cvk7sVt6Da6jw5VXsni37BZJCh0P9REjeeLISIUHcG2/M0qxpkCjWP6pkMDL11JMafBcbQFA0dDythoSvrg9n+2cr9K6mo3om7d97xIy9oJ8Sw3kvQ2+B2ljf8fDNkPmhGeLIGrRWwcZrOO89x3dxFdcrCz9lY6DXarGhizVSYaZyxqv+DW2+dwzmVeg7vuZGNkg0Vh7BPWq38jeXapS3j07WlivepA+UMnZhs1Uvi0734AON+KqzBXLJFr+wKp98TMJL1J0NQ9+eCAMTocbBBAvqGC+xu8Gq+E648oDvKyuvSnGDfMmi4W2E2D01WCzAfXggFvpntWLBaTX7SApv9ZwkZLAm8TpF8gMOekKPl6Y31TUWqROWM0av2d6Pdzb4ZXo6QsLmia5M255RxrXESpOmBB9I0e8ZL/1ehfhA8qv2FGDHtAtkrSagAtd69IUJDZve2sr9HjZOU+weP4VOD9/ukzQwALt1icPCtAtbDSiSMa5WQ6hRXWaWgwDL8bAqwQdS6ktuaPnM6AOJEGzyeM2CpDNpNYRiQRdnpCKFVMIQSx33ezScH1kPzuLzzCNbvMqNp/JnXcNmq1EWsVMMhTBy/xmt9tK0GrZzmu/F9jl8rhKQKnCjmI63cWbT1MY3kOnFQugM7YZztQBOl/LAyEnRW2uckdVZL1zAj3fr4/mB+Upq078q1FDV+Wk9k94m8cj06w+YRXK944XBpZ3MK3OYGqswbJ6wjJeQoM6NweMiTVv1g7lZ+SMaxGYLOwNBAgrbO1+gk+9fUHyGs73sAxyaZkAqiZqAuL3pLfhSFXFkpVABpnO+2MdWteQLL5nDqn1d4iPDPkfS/+kefNJB1xfSHIDWhAWS0fmmnk6V+Wd9fDy91J7s7tg4frHDv8IjfCTFCtFF8fnWALkV0Mv23C7O8e+Mm7WaT1iz0FnJUPnHbwHseGF+IuR7SfyzMoDPhuy2zuDEp0Dy91nw/MWframtBc2SYbPVJovI924Yd40Kn0Z6D1oNd5h+m4lLqtFc32R5etn/Go6ICEsbeZvmoNCBTQt/W8cmFpxWY8i6xCUhAH4iSS682tWSWaA33QL4iYSJs6YrdgW6CIFIpvIu6o8jtbMQ6Dhvkc6Cp2uogcWvxU8kfl/ap9Wi+YnEp9SV7AYEwkIqu6EPjsYORsBptQ4enOikXe7it21aLaKfSPR+u5xdiEAUP5Eu7JYjuWMQcFqtY4aiBUJoUHOon0jMJtql1ag4C/UTiUmmK9YVCFBTuT6uvCt64IjscAScVuvwAeoE8tql1TqhL44Gh4BD4ANHwGm1D3yA29E9p9XagaKrwyHgEHgvCHSKVqvW/8b96zQEgAM1Wq3TSHX0OAQcAh8AAiBzWvrbKVrtVx7Qa0N5kKAS4eh+vncELJzlhskh4BBwCLQXgZVCMLLeIoSMr5xW45cvtHeEPoDajFyD0AfQO9cFh4BDoKMQcFrNaaNLR8BptY6a844Yh8CHjcCHptW2Dv7G/es0BCxardNIdfQ4BBwCHwACFpkT/VWnWCCjU+xyOgQcAg4Bh4BDwISA02omZNxzh4BDwCHgEOg+BJxW674xcxQ7BBwCDgGHgAkBp9VMyLjnDgGHgEPAIdB9CDit1n1j5ih2CDgEHAIOARMCTquZkHHPHQIOAYeAQ6D7EHBarfvGzFHsEHAIOAQcAiYE/j+wmD6QAO4YdAAAAABJRU5ErkJggg==;" vertex="1" parent="1">
          <mxGeometry x="760" y="552.5" width="204.05" height="35" as="geometry" />
        </mxCell>
        <mxCell id="urtNTClgw5RGaUremrSD-30" value="" style="endArrow=classic;html=1;rounded=0;entryX=0;entryY=0.5;entryDx=0;entryDy=0;exitX=1;exitY=0.5;exitDx=0;exitDy=0;exitPerimeter=0;" edge="1" parent="1" source="urtNTClgw5RGaUremrSD-12" target="urtNTClgw5RGaUremrSD-8">
          <mxGeometry width="50" height="50" relative="1" as="geometry">
            <mxPoint x="200" y="350" as="sourcePoint" />
            <mxPoint x="250" y="300" as="targetPoint" />
            <Array as="points" />
          </mxGeometry>
        </mxCell>
        <mxCell id="urtNTClgw5RGaUremrSD-31" value="" style="endArrow=classic;html=1;rounded=0;entryX=-0.019;entryY=0.598;entryDx=0;entryDy=0;entryPerimeter=0;exitX=1;exitY=0.5;exitDx=0;exitDy=0;" edge="1" parent="1" source="urtNTClgw5RGaUremrSD-8" target="urtNTClgw5RGaUremrSD-10">
          <mxGeometry width="50" height="50" relative="1" as="geometry">
            <mxPoint x="430" y="292.8" as="sourcePoint" />
            <mxPoint x="552" y="279.8" as="targetPoint" />
            <Array as="points" />
          </mxGeometry>
        </mxCell>
        <mxCell id="urtNTClgw5RGaUremrSD-33" value="" style="endArrow=classic;html=1;rounded=0;entryX=0;entryY=0.5;entryDx=0;entryDy=0;" edge="1" parent="1" target="urtNTClgw5RGaUremrSD-14">
          <mxGeometry width="50" height="50" relative="1" as="geometry">
            <mxPoint x="198" y="486.5" as="sourcePoint" />
            <mxPoint x="320" y="473.5" as="targetPoint" />
            <Array as="points" />
          </mxGeometry>
        </mxCell>
        <mxCell id="urtNTClgw5RGaUremrSD-35" value="" style="endArrow=classic;html=1;rounded=0;entryX=0;entryY=0.5;entryDx=0;entryDy=0;exitX=1;exitY=0.5;exitDx=0;exitDy=0;" edge="1" parent="1" source="urtNTClgw5RGaUremrSD-14" target="urtNTClgw5RGaUremrSD-15">
          <mxGeometry width="50" height="50" relative="1" as="geometry">
            <mxPoint x="440" y="490" as="sourcePoint" />
            <mxPoint x="490" y="440" as="targetPoint" />
          </mxGeometry>
        </mxCell>
        <mxCell id="urtNTClgw5RGaUremrSD-36" value="" style="endArrow=classic;html=1;rounded=0;entryX=0;entryY=0.5;entryDx=0;entryDy=0;exitX=1;exitY=0.5;exitDx=0;exitDy=0;" edge="1" parent="1" target="urtNTClgw5RGaUremrSD-11">
          <mxGeometry width="50" height="50" relative="1" as="geometry">
            <mxPoint x="440" y="475" as="sourcePoint" />
            <mxPoint x="550" y="470" as="targetPoint" />
          </mxGeometry>
        </mxCell>
        <mxCell id="urtNTClgw5RGaUremrSD-37" value="" style="endArrow=classic;html=1;rounded=0;entryX=0;entryY=0.5;entryDx=0;entryDy=0;exitX=1;exitY=0.5;exitDx=0;exitDy=0;" edge="1" parent="1" target="urtNTClgw5RGaUremrSD-16">
          <mxGeometry width="50" height="50" relative="1" as="geometry">
            <mxPoint x="440" y="505.56" as="sourcePoint" />
            <mxPoint x="550" y="400.56" as="targetPoint" />
          </mxGeometry>
        </mxCell>
        <mxCell id="urtNTClgw5RGaUremrSD-38" value="" style="endArrow=classic;html=1;rounded=0;entryX=0;entryY=0.5;entryDx=0;entryDy=0;" edge="1" parent="1">
          <mxGeometry width="50" height="50" relative="1" as="geometry">
            <mxPoint x="440" y="620" as="sourcePoint" />
            <mxPoint x="550" y="666.01" as="targetPoint" />
          </mxGeometry>
        </mxCell>
        <mxCell id="urtNTClgw5RGaUremrSD-39" value="" style="endArrow=classic;html=1;rounded=0;entryX=0.004;entryY=0.619;entryDx=0;entryDy=0;entryPerimeter=0;" edge="1" parent="1">
          <mxGeometry width="50" height="50" relative="1" as="geometry">
            <mxPoint x="440" y="622.86" as="sourcePoint" />
            <mxPoint x="550.4799999999999" y="580.0000000000003" as="targetPoint" />
          </mxGeometry>
        </mxCell>
        <mxCell id="urtNTClgw5RGaUremrSD-40" value="" style="endArrow=classic;html=1;rounded=0;entryX=-0.024;entryY=0.841;entryDx=0;entryDy=0;entryPerimeter=0;exitX=0.988;exitY=0.625;exitDx=0;exitDy=0;exitPerimeter=0;" edge="1" parent="1" source="urtNTClgw5RGaUremrSD-9" target="urtNTClgw5RGaUremrSD-15">
          <mxGeometry width="50" height="50" relative="1" as="geometry">
            <mxPoint x="440" y="620" as="sourcePoint" />
            <mxPoint x="550" y="557" as="targetPoint" />
          </mxGeometry>
        </mxCell>
        <mxCell id="urtNTClgw5RGaUremrSD-41" value="" style="endArrow=classic;html=1;rounded=0;entryX=-0.014;entryY=0.826;entryDx=0;entryDy=0;entryPerimeter=0;exitX=1.01;exitY=0.375;exitDx=0;exitDy=0;exitPerimeter=0;" edge="1" parent="1" target="urtNTClgw5RGaUremrSD-11">
          <mxGeometry width="50" height="50" relative="1" as="geometry">
            <mxPoint x="440" y="600" as="sourcePoint" />
            <mxPoint x="546" y="492" as="targetPoint" />
          </mxGeometry>
        </mxCell>
        <mxCell id="urtNTClgw5RGaUremrSD-42" value="" style="endArrow=classic;html=1;rounded=0;entryX=-0.024;entryY=0.828;entryDx=0;entryDy=0;entryPerimeter=0;" edge="1" parent="1" target="urtNTClgw5RGaUremrSD-10">
          <mxGeometry width="50" height="50" relative="1" as="geometry">
            <mxPoint x="440" y="600" as="sourcePoint" />
            <mxPoint x="550" y="390" as="targetPoint" />
          </mxGeometry>
        </mxCell>
        <mxCell id="urtNTClgw5RGaUremrSD-44" value="" style="endArrow=classic;html=1;rounded=0;entryX=0;entryY=0.5;entryDx=0;entryDy=0;" edge="1" parent="1">
          <mxGeometry width="50" height="50" relative="1" as="geometry">
            <mxPoint x="198" y="615.75" as="sourcePoint" />
            <mxPoint x="320" y="614.25" as="targetPoint" />
            <Array as="points" />
          </mxGeometry>
        </mxCell>
      </root>
    </mxGraphModel>
  </diagram>
</mxfile>
